<svg width="1360" height="553" viewBox="0 0 1360 553" fill="none" xmlns="http://www.w3.org/2000/svg">
<rect width="1360" height="553" rx="10" fill="white"/>
<path d="M186.996 70.3623C186.996 73.484 186.267 76.1159 184.809 78.2578C183.35 80.377 181.345 81.9834 178.793 83.0771C176.264 84.1481 173.393 84.6836 170.18 84.6836C166.967 84.6836 164.084 84.1481 161.532 83.0771C158.98 81.9834 156.964 80.377 155.482 78.2578C154.001 76.1159 153.261 73.484 153.261 70.3623C153.261 68.266 153.682 66.3747 154.525 64.6885C155.368 62.9795 156.542 61.5212 158.046 60.3135C159.573 59.083 161.361 58.1488 163.412 57.5107C165.463 56.8499 167.696 56.5195 170.111 56.5195C173.347 56.5195 176.241 57.0892 178.793 58.2285C181.345 59.3678 183.35 60.9743 184.809 63.0479C186.267 65.1214 186.996 67.5596 186.996 70.3623ZM177.084 69.7129C177.084 68.1862 176.788 66.876 176.195 65.7822C175.626 64.6657 174.817 63.8112 173.769 63.2188C172.72 62.6263 171.501 62.3301 170.111 62.3301C168.721 62.3301 167.502 62.6263 166.454 63.2188C165.406 63.8112 164.586 64.6657 163.993 65.7822C163.424 66.876 163.139 68.1862 163.139 69.7129C163.139 71.2168 163.424 72.5156 163.993 73.6094C164.586 74.7031 165.406 75.5462 166.454 76.1387C167.525 76.7083 168.767 76.9932 170.18 76.9932C171.592 76.9932 172.812 76.7083 173.837 76.1387C174.885 75.5462 175.683 74.7031 176.229 73.6094C176.799 72.5156 177.084 71.2168 177.084 69.7129ZM185.937 47.4277C185.937 49.957 185.264 52.2015 183.92 54.1611C182.576 56.098 180.707 57.6133 178.314 58.707C175.945 59.8008 173.233 60.3477 170.18 60.3477C167.104 60.3477 164.369 59.8008 161.977 58.707C159.584 57.6133 157.715 56.098 156.371 54.1611C155.027 52.2015 154.354 49.957 154.354 47.4277C154.354 44.4199 155.027 41.8906 156.371 39.8398C157.738 37.7663 159.607 36.194 161.977 35.123C164.369 34.0521 167.081 33.5166 170.111 33.5166C173.188 33.5166 175.91 34.0521 178.28 35.123C180.673 36.194 182.541 37.7663 183.886 39.8398C185.253 41.8906 185.937 44.4199 185.937 47.4277ZM176.093 47.8721C176.093 46.5277 175.854 45.3656 175.375 44.3857C174.896 43.3831 174.213 42.6084 173.324 42.0615C172.458 41.5146 171.387 41.2412 170.111 41.2412C168.881 41.2412 167.821 41.5033 166.933 42.0273C166.067 42.5514 165.395 43.3148 164.916 44.3174C164.46 45.2972 164.232 46.4821 164.232 47.8721C164.232 49.2165 164.46 50.4014 164.916 51.4268C165.395 52.4294 166.078 53.2155 166.967 53.7852C167.855 54.3548 168.926 54.6396 170.18 54.6396C171.433 54.6396 172.493 54.3548 173.358 53.7852C174.247 53.2155 174.919 52.4294 175.375 51.4268C175.854 50.4014 176.093 49.2165 176.093 47.8721ZM217.655 34.1318V84H207.812V45.4795L195.985 49.2393V41.4805L216.596 34.1318H217.655ZM267.353 54.7422V63.3555C267.353 67.0924 266.954 70.3167 266.156 73.0283C265.359 75.7171 264.208 77.9274 262.704 79.6592C261.223 81.3682 259.457 82.6328 257.406 83.4531C255.355 84.2734 253.077 84.6836 250.57 84.6836C248.565 84.6836 246.697 84.4329 244.965 83.9316C243.233 83.4076 241.672 82.5986 240.282 81.5049C238.915 80.4111 237.73 79.0326 236.728 77.3691C235.748 75.6829 234.996 73.6777 234.472 71.3535C233.948 69.0293 233.686 66.3633 233.686 63.3555V54.7422C233.686 51.0052 234.084 47.8037 234.882 45.1377C235.702 42.4489 236.853 40.25 238.334 38.541C239.838 36.832 241.615 35.5788 243.666 34.7812C245.717 33.9609 247.995 33.5508 250.502 33.5508C252.507 33.5508 254.364 33.8128 256.073 34.3369C257.805 34.8382 259.366 35.6243 260.756 36.6953C262.146 37.7663 263.331 39.1449 264.311 40.8311C265.29 42.4945 266.042 44.4883 266.566 46.8125C267.09 49.1139 267.353 51.7572 267.353 54.7422ZM257.475 64.6543V53.4092C257.475 51.609 257.372 50.0368 257.167 48.6924C256.985 47.348 256.7 46.2087 256.312 45.2744C255.925 44.3174 255.447 43.5426 254.877 42.9502C254.307 42.3577 253.658 41.9248 252.929 41.6514C252.2 41.3779 251.391 41.2412 250.502 41.2412C249.385 41.2412 248.394 41.4577 247.528 41.8906C246.685 42.3236 245.967 43.0186 245.375 43.9756C244.783 44.9098 244.327 46.1631 244.008 47.7354C243.712 49.2848 243.563 51.1761 243.563 53.4092V64.6543C243.563 66.4544 243.655 68.0381 243.837 69.4053C244.042 70.7725 244.338 71.946 244.726 72.9258C245.136 73.8828 245.614 74.6689 246.161 75.2842C246.731 75.8766 247.38 76.3096 248.109 76.583C248.861 76.8564 249.682 76.9932 250.57 76.9932C251.664 76.9932 252.632 76.7767 253.476 76.3438C254.341 75.888 255.071 75.1816 255.663 74.2246C256.278 73.2448 256.734 71.9688 257.03 70.3965C257.326 68.8242 257.475 66.9102 257.475 64.6543ZM279.76 34.2344H288.441L301.225 70.7725L314.008 34.2344H322.689L304.711 84H297.738L279.76 34.2344ZM275.077 34.2344H283.725L285.297 69.8496V84H275.077V34.2344ZM318.725 34.2344H327.406V84H317.152V69.8496L318.725 34.2344Z" fill="#002C29"/>
<path d="M159.891 109.371H162.332C162.254 110.302 161.993 111.132 161.551 111.861C161.108 112.584 160.486 113.154 159.686 113.57C158.885 113.987 157.911 114.195 156.766 114.195C155.887 114.195 155.096 114.039 154.393 113.727C153.689 113.408 153.087 112.958 152.586 112.379C152.085 111.793 151.701 111.087 151.434 110.26C151.173 109.433 151.043 108.508 151.043 107.486V106.305C151.043 105.283 151.176 104.358 151.443 103.531C151.717 102.704 152.107 101.998 152.615 101.412C153.123 100.82 153.732 100.367 154.441 100.055C155.158 99.7422 155.962 99.5859 156.854 99.5859C157.986 99.5859 158.943 99.7943 159.725 100.211C160.506 100.628 161.111 101.204 161.541 101.939C161.977 102.675 162.244 103.518 162.342 104.469H159.9C159.835 103.857 159.692 103.333 159.471 102.896C159.256 102.46 158.937 102.128 158.514 101.9C158.09 101.666 157.537 101.549 156.854 101.549C156.294 101.549 155.805 101.653 155.389 101.861C154.972 102.07 154.624 102.376 154.344 102.779C154.064 103.183 153.852 103.681 153.709 104.273C153.572 104.859 153.504 105.53 153.504 106.285V107.486C153.504 108.202 153.566 108.854 153.689 109.439C153.82 110.019 154.015 110.517 154.275 110.934C154.542 111.35 154.881 111.673 155.291 111.9C155.701 112.128 156.193 112.242 156.766 112.242C157.462 112.242 158.025 112.132 158.455 111.91C158.891 111.689 159.22 111.367 159.441 110.943C159.669 110.514 159.819 109.99 159.891 109.371ZM172.537 99.7812H174.979V109.283C174.979 110.364 174.744 111.269 174.275 111.998C173.807 112.727 173.169 113.277 172.361 113.648C171.561 114.013 170.665 114.195 169.676 114.195C168.654 114.195 167.742 114.013 166.941 113.648C166.141 113.277 165.509 112.727 165.047 111.998C164.591 111.269 164.363 110.364 164.363 109.283V99.7812H166.805V109.283C166.805 109.967 166.922 110.53 167.156 110.973C167.391 111.409 167.723 111.731 168.152 111.939C168.582 112.148 169.09 112.252 169.676 112.252C170.262 112.252 170.766 112.148 171.189 111.939C171.619 111.731 171.951 111.409 172.186 110.973C172.42 110.53 172.537 109.967 172.537 109.283V99.7812ZM188.924 99.7812V114H186.473L180.096 103.814V114H177.645V99.7812H180.096L186.492 109.986V99.7812H188.924ZM203.123 99.7812V114H200.672L194.295 103.814V114H191.844V99.7812H194.295L200.691 109.986V99.7812H203.123ZM217.322 99.7812V114H214.871L208.494 103.814V114H206.043V99.7812H208.494L214.891 109.986V99.7812H217.322ZM231.16 106.734V112.164C230.958 112.431 230.643 112.724 230.213 113.043C229.79 113.355 229.227 113.626 228.523 113.854C227.82 114.081 226.945 114.195 225.896 114.195C225.005 114.195 224.188 114.046 223.445 113.746C222.703 113.44 222.062 112.994 221.521 112.408C220.988 111.822 220.574 111.109 220.281 110.27C219.988 109.423 219.842 108.46 219.842 107.379V106.393C219.842 105.318 219.975 104.361 220.242 103.521C220.516 102.675 220.906 101.959 221.414 101.373C221.922 100.787 222.534 100.344 223.25 100.045C223.973 99.7389 224.79 99.5859 225.701 99.5859C226.867 99.5859 227.83 99.7812 228.592 100.172C229.36 100.556 229.952 101.09 230.369 101.773C230.786 102.457 231.049 103.238 231.16 104.117H228.758C228.68 103.622 228.527 103.18 228.299 102.789C228.077 102.398 227.758 102.092 227.342 101.871C226.932 101.643 226.398 101.529 225.74 101.529C225.174 101.529 224.676 101.637 224.246 101.852C223.816 102.066 223.458 102.382 223.172 102.799C222.892 103.215 222.68 103.723 222.537 104.322C222.394 104.921 222.322 105.605 222.322 106.373V107.379C222.322 108.16 222.404 108.854 222.566 109.459C222.736 110.064 222.977 110.576 223.289 110.992C223.608 111.409 223.995 111.725 224.451 111.939C224.907 112.148 225.421 112.252 225.994 112.252C226.554 112.252 227.013 112.206 227.371 112.115C227.729 112.018 228.012 111.904 228.221 111.773C228.436 111.637 228.602 111.507 228.719 111.383V108.561H225.76V106.734H231.16ZM243.27 105.719V107.662H235.721V105.719H243.27ZM236.326 99.7812V114H233.875V99.7812H236.326ZM245.154 99.7812V114H242.713V99.7812H245.154ZM253.787 101.676L249.539 114H246.971L252.322 99.7812H253.963L253.787 101.676ZM257.342 114L253.084 101.676L252.898 99.7812H254.549L259.92 114H257.342ZM257.137 108.727V110.67H249.402V108.727H257.137ZM262.508 99.7812H264.695L268.807 110.748L272.908 99.7812H275.096L269.666 114H267.928L262.508 99.7812ZM261.512 99.7812H263.592L263.953 109.273V114H261.512V99.7812ZM274.012 99.7812H276.102V114H273.65V109.273L274.012 99.7812ZM284.988 99.7812H287.176L291.287 110.748L295.389 99.7812H297.576L292.146 114H290.408L284.988 99.7812ZM283.992 99.7812H286.072L286.434 109.273V114H283.992V99.7812ZM296.492 99.7812H298.582V114H296.131V109.273L296.492 99.7812ZM304.109 99.7812V114H301.658V99.7812H304.109ZM318.436 99.7812V114H315.984L309.607 103.814V114H307.156V99.7812H309.607L316.004 109.986V99.7812H318.436ZM323.973 99.7812V114H321.521V99.7812H323.973ZM338.299 99.7812V114H335.848L329.471 103.814V114H327.02V99.7812H329.471L335.867 109.986V99.7812H338.299ZM352.137 106.734V112.164C351.935 112.431 351.619 112.724 351.189 113.043C350.766 113.355 350.203 113.626 349.5 113.854C348.797 114.081 347.921 114.195 346.873 114.195C345.981 114.195 345.164 114.046 344.422 113.746C343.68 113.44 343.038 112.994 342.498 112.408C341.964 111.822 341.551 111.109 341.258 110.27C340.965 109.423 340.818 108.46 340.818 107.379V106.393C340.818 105.318 340.952 104.361 341.219 103.521C341.492 102.675 341.883 101.959 342.391 101.373C342.898 100.787 343.51 100.344 344.227 100.045C344.949 99.7389 345.766 99.5859 346.678 99.5859C347.843 99.5859 348.807 99.7812 349.568 100.172C350.337 100.556 350.929 101.09 351.346 101.773C351.762 102.457 352.026 103.238 352.137 104.117H349.734C349.656 103.622 349.503 103.18 349.275 102.789C349.054 102.398 348.735 102.092 348.318 101.871C347.908 101.643 347.374 101.529 346.717 101.529C346.15 101.529 345.652 101.637 345.223 101.852C344.793 102.066 344.435 102.382 344.148 102.799C343.868 103.215 343.657 103.723 343.514 104.322C343.37 104.921 343.299 105.605 343.299 106.373V107.379C343.299 108.16 343.38 108.854 343.543 109.459C343.712 110.064 343.953 110.576 344.266 110.992C344.585 111.409 344.972 111.725 345.428 111.939C345.883 112.148 346.398 112.252 346.971 112.252C347.531 112.252 347.99 112.206 348.348 112.115C348.706 112.018 348.989 111.904 349.197 111.773C349.412 111.637 349.578 111.507 349.695 111.383V108.561H346.736V106.734H352.137ZM368.738 112.057V114H361.6V112.057H368.738ZM362.283 99.7812V114H359.832V99.7812H362.283ZM374.764 114H371.727L371.746 112.057H374.764C375.643 112.057 376.378 111.865 376.971 111.48C377.57 111.096 378.019 110.546 378.318 109.83C378.624 109.114 378.777 108.261 378.777 107.271V106.5C378.777 105.732 378.689 105.051 378.514 104.459C378.344 103.867 378.09 103.368 377.752 102.965C377.42 102.561 377.01 102.255 376.521 102.047C376.04 101.839 375.483 101.734 374.852 101.734H371.668V99.7812H374.852C375.796 99.7812 376.658 99.9408 377.439 100.26C378.221 100.572 378.895 101.025 379.461 101.617C380.034 102.21 380.473 102.919 380.779 103.746C381.085 104.573 381.238 105.497 381.238 106.52V107.271C381.238 108.294 381.085 109.218 380.779 110.045C380.473 110.872 380.034 111.581 379.461 112.174C378.888 112.76 378.204 113.212 377.41 113.531C376.622 113.844 375.74 114 374.764 114ZM373.084 99.7812V114H370.633V99.7812H373.084ZM389.061 99.7812V114H386.629V99.7812H389.061ZM393.523 99.7812V101.734H382.205V99.7812H393.523Z" fill="#002C29"/>
<path d="M143.46 204.132V254H133.616V215.479L121.79 219.239V211.48L142.4 204.132H143.46ZM193.157 224.742V233.355C193.157 237.092 192.758 240.317 191.961 243.028C191.163 245.717 190.013 247.927 188.509 249.659C187.028 251.368 185.262 252.633 183.211 253.453C181.16 254.273 178.882 254.684 176.375 254.684C174.37 254.684 172.501 254.433 170.77 253.932C169.038 253.408 167.477 252.599 166.087 251.505C164.72 250.411 163.535 249.033 162.532 247.369C161.552 245.683 160.8 243.678 160.276 241.354C159.752 239.029 159.49 236.363 159.49 233.355V224.742C159.49 221.005 159.889 217.804 160.687 215.138C161.507 212.449 162.658 210.25 164.139 208.541C165.643 206.832 167.42 205.579 169.471 204.781C171.521 203.961 173.8 203.551 176.307 203.551C178.312 203.551 180.169 203.813 181.878 204.337C183.61 204.838 185.171 205.624 186.561 206.695C187.951 207.766 189.135 209.145 190.115 210.831C191.095 212.494 191.847 214.488 192.371 216.812C192.895 219.114 193.157 221.757 193.157 224.742ZM183.279 234.654V223.409C183.279 221.609 183.177 220.037 182.972 218.692C182.789 217.348 182.505 216.209 182.117 215.274C181.73 214.317 181.251 213.543 180.682 212.95C180.112 212.358 179.463 211.925 178.733 211.651C178.004 211.378 177.195 211.241 176.307 211.241C175.19 211.241 174.199 211.458 173.333 211.891C172.49 212.324 171.772 213.019 171.18 213.976C170.587 214.91 170.132 216.163 169.812 217.735C169.516 219.285 169.368 221.176 169.368 223.409V234.654C169.368 236.454 169.459 238.038 169.642 239.405C169.847 240.772 170.143 241.946 170.53 242.926C170.94 243.883 171.419 244.669 171.966 245.284C172.535 245.877 173.185 246.31 173.914 246.583C174.666 246.856 175.486 246.993 176.375 246.993C177.469 246.993 178.437 246.777 179.28 246.344C180.146 245.888 180.875 245.182 181.468 244.225C182.083 243.245 182.539 241.969 182.835 240.396C183.131 238.824 183.279 236.91 183.279 234.654ZM233.353 224.742V233.355C233.353 237.092 232.954 240.317 232.156 243.028C231.359 245.717 230.208 247.927 228.704 249.659C227.223 251.368 225.457 252.633 223.406 253.453C221.355 254.273 219.077 254.684 216.57 254.684C214.565 254.684 212.697 254.433 210.965 253.932C209.233 253.408 207.672 252.599 206.282 251.505C204.915 250.411 203.73 249.033 202.728 247.369C201.748 245.683 200.996 243.678 200.472 241.354C199.948 239.029 199.686 236.363 199.686 233.355V224.742C199.686 221.005 200.084 217.804 200.882 215.138C201.702 212.449 202.853 210.25 204.334 208.541C205.838 206.832 207.615 205.579 209.666 204.781C211.717 203.961 213.995 203.551 216.502 203.551C218.507 203.551 220.364 203.813 222.073 204.337C223.805 204.838 225.366 205.624 226.756 206.695C228.146 207.766 229.331 209.145 230.311 210.831C231.29 212.494 232.042 214.488 232.566 216.812C233.09 219.114 233.353 221.757 233.353 224.742ZM223.475 234.654V223.409C223.475 221.609 223.372 220.037 223.167 218.692C222.985 217.348 222.7 216.209 222.312 215.274C221.925 214.317 221.447 213.543 220.877 212.95C220.307 212.358 219.658 211.925 218.929 211.651C218.2 211.378 217.391 211.241 216.502 211.241C215.385 211.241 214.394 211.458 213.528 211.891C212.685 212.324 211.967 213.019 211.375 213.976C210.783 214.91 210.327 216.163 210.008 217.735C209.712 219.285 209.563 221.176 209.563 223.409V234.654C209.563 236.454 209.655 238.038 209.837 239.405C210.042 240.772 210.338 241.946 210.726 242.926C211.136 243.883 211.614 244.669 212.161 245.284C212.731 245.877 213.38 246.31 214.109 246.583C214.861 246.856 215.682 246.993 216.57 246.993C217.664 246.993 218.632 246.777 219.476 246.344C220.341 245.888 221.071 245.182 221.663 244.225C222.278 243.245 222.734 241.969 223.03 240.396C223.326 238.824 223.475 236.91 223.475 234.654ZM245.76 204.234H254.441L267.225 240.772L280.008 204.234H288.689L270.711 254H263.738L245.76 204.234ZM241.077 204.234H249.725L251.297 239.85V254H241.077V204.234ZM284.725 204.234H293.406V254H283.152V239.85L284.725 204.234Z" fill="#002C29"/>
<path d="M120.361 269.781V284H117.91V269.781H120.361ZM130.889 280.338C130.889 280.045 130.843 279.785 130.752 279.557C130.667 279.329 130.514 279.12 130.293 278.932C130.072 278.743 129.759 278.561 129.355 278.385C128.958 278.202 128.451 278.017 127.832 277.828C127.155 277.62 126.53 277.389 125.957 277.135C125.391 276.874 124.896 276.575 124.473 276.236C124.049 275.891 123.721 275.497 123.486 275.055C123.252 274.605 123.135 274.088 123.135 273.502C123.135 272.923 123.255 272.395 123.496 271.92C123.743 271.445 124.092 271.035 124.541 270.689C124.997 270.338 125.534 270.068 126.152 269.879C126.771 269.684 127.454 269.586 128.203 269.586C129.258 269.586 130.166 269.781 130.928 270.172C131.696 270.562 132.285 271.087 132.695 271.744C133.112 272.402 133.32 273.128 133.32 273.922H130.889C130.889 273.453 130.788 273.04 130.586 272.682C130.391 272.317 130.091 272.031 129.688 271.822C129.29 271.614 128.786 271.51 128.174 271.51C127.594 271.51 127.113 271.598 126.729 271.773C126.344 271.949 126.058 272.187 125.869 272.486C125.68 272.786 125.586 273.124 125.586 273.502C125.586 273.769 125.648 274.013 125.771 274.234C125.895 274.449 126.084 274.651 126.338 274.84C126.592 275.022 126.911 275.195 127.295 275.357C127.679 275.52 128.132 275.676 128.652 275.826C129.44 276.061 130.127 276.321 130.713 276.607C131.299 276.887 131.787 277.206 132.178 277.564C132.568 277.923 132.861 278.329 133.057 278.785C133.252 279.234 133.35 279.745 133.35 280.318C133.35 280.917 133.229 281.458 132.988 281.939C132.747 282.415 132.402 282.822 131.953 283.16C131.51 283.492 130.977 283.749 130.352 283.932C129.733 284.107 129.043 284.195 128.281 284.195C127.598 284.195 126.924 284.104 126.26 283.922C125.602 283.74 125.003 283.463 124.463 283.092C123.923 282.714 123.493 282.245 123.174 281.686C122.855 281.119 122.695 280.458 122.695 279.703H125.146C125.146 280.165 125.225 280.559 125.381 280.885C125.544 281.21 125.768 281.477 126.055 281.686C126.341 281.887 126.673 282.037 127.051 282.135C127.435 282.232 127.845 282.281 128.281 282.281C128.854 282.281 129.333 282.2 129.717 282.037C130.107 281.874 130.4 281.646 130.596 281.354C130.791 281.061 130.889 280.722 130.889 280.338ZM142.998 280.338C142.998 280.045 142.952 279.785 142.861 279.557C142.777 279.329 142.624 279.12 142.402 278.932C142.181 278.743 141.868 278.561 141.465 278.385C141.068 278.202 140.56 278.017 139.941 277.828C139.264 277.62 138.639 277.389 138.066 277.135C137.5 276.874 137.005 276.575 136.582 276.236C136.159 275.891 135.83 275.497 135.596 275.055C135.361 274.605 135.244 274.088 135.244 273.502C135.244 272.923 135.365 272.395 135.605 271.92C135.853 271.445 136.201 271.035 136.65 270.689C137.106 270.338 137.643 270.068 138.262 269.879C138.88 269.684 139.564 269.586 140.312 269.586C141.367 269.586 142.275 269.781 143.037 270.172C143.805 270.562 144.395 271.087 144.805 271.744C145.221 272.402 145.43 273.128 145.43 273.922H142.998C142.998 273.453 142.897 273.04 142.695 272.682C142.5 272.317 142.201 272.031 141.797 271.822C141.4 271.614 140.895 271.51 140.283 271.51C139.704 271.51 139.222 271.598 138.838 271.773C138.454 271.949 138.167 272.187 137.979 272.486C137.79 272.786 137.695 273.124 137.695 273.502C137.695 273.769 137.757 274.013 137.881 274.234C138.005 274.449 138.193 274.651 138.447 274.84C138.701 275.022 139.02 275.195 139.404 275.357C139.788 275.52 140.241 275.676 140.762 275.826C141.549 276.061 142.236 276.321 142.822 276.607C143.408 276.887 143.896 277.206 144.287 277.564C144.678 277.923 144.971 278.329 145.166 278.785C145.361 279.234 145.459 279.745 145.459 280.318C145.459 280.917 145.339 281.458 145.098 281.939C144.857 282.415 144.512 282.822 144.062 283.16C143.62 283.492 143.086 283.749 142.461 283.932C141.842 284.107 141.152 284.195 140.391 284.195C139.707 284.195 139.033 284.104 138.369 283.922C137.712 283.74 137.113 283.463 136.572 283.092C136.032 282.714 135.602 282.245 135.283 281.686C134.964 281.119 134.805 280.458 134.805 279.703H137.256C137.256 280.165 137.334 280.559 137.49 280.885C137.653 281.21 137.878 281.477 138.164 281.686C138.451 281.887 138.783 282.037 139.16 282.135C139.544 282.232 139.954 282.281 140.391 282.281C140.964 282.281 141.442 282.2 141.826 282.037C142.217 281.874 142.51 281.646 142.705 281.354C142.9 281.061 142.998 280.722 142.998 280.338ZM155.605 269.781H158.047V279.283C158.047 280.364 157.812 281.269 157.344 281.998C156.875 282.727 156.237 283.277 155.43 283.648C154.629 284.013 153.734 284.195 152.744 284.195C151.722 284.195 150.811 284.013 150.01 283.648C149.209 283.277 148.577 282.727 148.115 281.998C147.66 281.269 147.432 280.364 147.432 279.283V269.781H149.873V279.283C149.873 279.967 149.99 280.53 150.225 280.973C150.459 281.409 150.791 281.731 151.221 281.939C151.65 282.148 152.158 282.252 152.744 282.252C153.33 282.252 153.835 282.148 154.258 281.939C154.688 281.731 155.02 281.409 155.254 280.973C155.488 280.53 155.605 279.967 155.605 279.283V269.781ZM170.02 282.057V284H162.471V282.057H170.02ZM163.164 269.781V284H160.713V269.781H163.164ZM169.033 275.719V277.633H162.471V275.719H169.033ZM169.971 269.781V271.734H162.471V269.781H169.971ZM176.152 284H173.115L173.135 282.057H176.152C177.031 282.057 177.767 281.865 178.359 281.48C178.958 281.096 179.408 280.546 179.707 279.83C180.013 279.114 180.166 278.261 180.166 277.271V276.5C180.166 275.732 180.078 275.051 179.902 274.459C179.733 273.867 179.479 273.368 179.141 272.965C178.809 272.561 178.398 272.255 177.91 272.047C177.428 271.839 176.872 271.734 176.24 271.734H173.057V269.781H176.24C177.184 269.781 178.047 269.941 178.828 270.26C179.609 270.572 180.283 271.025 180.85 271.617C181.423 272.21 181.862 272.919 182.168 273.746C182.474 274.573 182.627 275.497 182.627 276.52V277.271C182.627 278.294 182.474 279.218 182.168 280.045C181.862 280.872 181.423 281.581 180.85 282.174C180.277 282.76 179.593 283.212 178.799 283.531C178.011 283.844 177.129 284 176.152 284ZM174.473 269.781V284H172.021V269.781H174.473ZM195.449 269.781V284H193.018V269.781H195.449ZM199.912 269.781V271.734H188.594V269.781H199.912ZM212.852 276.5V277.281C212.852 278.355 212.712 279.319 212.432 280.172C212.152 281.025 211.751 281.751 211.23 282.35C210.716 282.949 210.098 283.408 209.375 283.727C208.652 284.039 207.852 284.195 206.973 284.195C206.1 284.195 205.303 284.039 204.58 283.727C203.864 283.408 203.242 282.949 202.715 282.35C202.188 281.751 201.777 281.025 201.484 280.172C201.198 279.319 201.055 278.355 201.055 277.281V276.5C201.055 275.426 201.198 274.465 201.484 273.619C201.771 272.766 202.174 272.04 202.695 271.441C203.223 270.836 203.844 270.377 204.561 270.064C205.283 269.745 206.081 269.586 206.953 269.586C207.832 269.586 208.633 269.745 209.355 270.064C210.078 270.377 210.7 270.836 211.221 271.441C211.742 272.04 212.142 272.766 212.422 273.619C212.708 274.465 212.852 275.426 212.852 276.5ZM210.4 277.281V276.48C210.4 275.686 210.322 274.986 210.166 274.381C210.016 273.769 209.792 273.258 209.492 272.848C209.199 272.431 208.838 272.118 208.408 271.91C207.979 271.695 207.493 271.588 206.953 271.588C206.413 271.588 205.931 271.695 205.508 271.91C205.085 272.118 204.723 272.431 204.424 272.848C204.131 273.258 203.906 273.769 203.75 274.381C203.594 274.986 203.516 275.686 203.516 276.48V277.281C203.516 278.076 203.594 278.779 203.75 279.391C203.906 280.003 204.134 280.52 204.434 280.943C204.74 281.36 205.104 281.676 205.527 281.891C205.951 282.099 206.432 282.203 206.973 282.203C207.52 282.203 208.005 282.099 208.428 281.891C208.851 281.676 209.209 281.36 209.502 280.943C209.795 280.52 210.016 280.003 210.166 279.391C210.322 278.779 210.4 278.076 210.4 277.281ZM221.279 269.781H223.467L227.578 280.748L231.68 269.781H233.867L228.438 284H226.699L221.279 269.781ZM220.283 269.781H222.363L222.725 279.273V284H220.283V269.781ZM232.783 269.781H234.873V284H232.422V279.273L232.783 269.781ZM243.496 271.676L239.248 284H236.68L242.031 269.781H243.672L243.496 271.676ZM247.051 284L242.793 271.676L242.607 269.781H244.258L249.629 284H247.051ZM246.846 278.727V280.67H239.111V278.727H246.846ZM251.221 269.781H256.25C257.331 269.781 258.252 269.944 259.014 270.27C259.775 270.595 260.358 271.077 260.762 271.715C261.172 272.346 261.377 273.128 261.377 274.059C261.377 274.768 261.247 275.393 260.986 275.934C260.726 276.474 260.358 276.93 259.883 277.301C259.408 277.665 258.841 277.949 258.184 278.15L257.441 278.512H252.92L252.9 276.568H256.289C256.875 276.568 257.363 276.464 257.754 276.256C258.145 276.048 258.438 275.764 258.633 275.406C258.835 275.042 258.936 274.632 258.936 274.176C258.936 273.681 258.838 273.251 258.643 272.887C258.454 272.516 258.161 272.232 257.764 272.037C257.367 271.835 256.862 271.734 256.25 271.734H253.672V284H251.221V269.781ZM259.336 284L255.996 277.613L258.564 277.604L261.953 283.873V284H259.336ZM266.27 269.781V284H263.818V269.781H266.27ZM274.814 269.781L269.053 276.627L265.771 280.104L265.342 277.672L267.686 274.781L271.826 269.781H274.814ZM272.178 284L267.5 277.262L269.189 275.592L275.088 284H272.178ZM285.762 282.057V284H278.213V282.057H285.762ZM278.906 269.781V284H276.455V269.781H278.906ZM284.775 275.719V277.633H278.213V275.719H284.775ZM285.713 269.781V271.734H278.213V269.781H285.713ZM293.809 269.781V284H291.377V269.781H293.809ZM298.271 269.781V271.734H286.953V269.781H298.271Z" fill="#002C29"/>
<path d="M977.536 64.5146H978.186C980.92 64.5146 983.267 64.1842 985.227 63.5234C987.209 62.8398 988.838 61.86 990.114 60.584C991.39 59.3079 992.336 57.7471 992.951 55.9014C993.566 54.0329 993.874 51.9137 993.874 49.5439V40.1104C993.874 38.3102 993.692 36.7266 993.327 35.3594C992.985 33.9922 992.484 32.8643 991.823 31.9756C991.185 31.0641 990.433 30.3805 989.567 29.9248C988.724 29.4691 987.79 29.2412 986.765 29.2412C985.671 29.2412 984.702 29.5146 983.859 30.0615C983.016 30.5856 982.299 31.3034 981.706 32.2148C981.136 33.1263 980.692 34.1745 980.373 35.3594C980.077 36.5215 979.929 37.7406 979.929 39.0166C979.929 40.2926 980.077 41.5117 980.373 42.6738C980.669 43.8132 981.114 44.8271 981.706 45.7158C982.299 46.5817 983.039 47.2767 983.928 47.8008C984.816 48.3021 985.865 48.5527 987.072 48.5527C988.234 48.5527 989.271 48.3363 990.183 47.9033C991.117 47.4476 991.903 46.8551 992.541 46.126C993.202 45.3968 993.703 44.5879 994.045 43.6992C994.41 42.8105 994.592 41.9105 994.592 40.999L997.839 42.7764C997.839 44.3714 997.497 45.9437 996.813 47.4932C996.13 49.0426 995.173 50.4554 993.942 51.7314C992.735 52.9847 991.333 53.9873 989.738 54.7393C988.143 55.4912 986.434 55.8672 984.611 55.8672C982.287 55.8672 980.225 55.4456 978.425 54.6025C976.625 53.7367 975.098 52.5518 973.845 51.0479C972.614 49.5212 971.68 47.7438 971.042 45.7158C970.404 43.6878 970.085 41.4889 970.085 39.1191C970.085 36.7038 970.472 34.4365 971.247 32.3174C972.045 30.1982 973.173 28.3298 974.631 26.7119C976.112 25.0941 977.878 23.8294 979.929 22.918C982.002 21.9837 984.304 21.5166 986.833 21.5166C989.362 21.5166 991.664 22.0065 993.737 22.9863C995.811 23.9661 997.588 25.3561 999.069 27.1562C1000.55 28.9336 1001.69 31.0641 1002.49 33.5479C1003.31 36.0316 1003.72 38.7887 1003.72 41.8193V45.2373C1003.72 48.473 1003.36 51.4808 1002.66 54.2607C1001.97 57.0407 1000.94 59.5586 999.548 61.8145C998.181 64.0475 996.472 65.9616 994.421 67.5566C992.393 69.1517 990.035 70.3708 987.346 71.2139C984.657 72.057 981.649 72.4785 978.322 72.4785H977.536V64.5146ZM1044.25 42.7422V51.3555C1044.25 55.0924 1043.86 58.3167 1043.06 61.0283C1042.26 63.7171 1041.11 65.9274 1039.61 67.6592C1038.13 69.3682 1036.36 70.6328 1034.31 71.4531C1032.26 72.2734 1029.98 72.6836 1027.47 72.6836C1025.47 72.6836 1023.6 72.4329 1021.87 71.9316C1020.14 71.4076 1018.57 70.5986 1017.18 69.5049C1015.82 68.4111 1014.63 67.0326 1013.63 65.3691C1012.65 63.6829 1011.9 61.6777 1011.37 59.3535C1010.85 57.0293 1010.59 54.3633 1010.59 51.3555V42.7422C1010.59 39.0052 1010.99 35.8037 1011.78 33.1377C1012.6 30.4489 1013.76 28.25 1015.24 26.541C1016.74 24.832 1018.52 23.5788 1020.57 22.7812C1022.62 21.9609 1024.9 21.5508 1027.4 21.5508C1029.41 21.5508 1031.27 21.8128 1032.98 22.3369C1034.71 22.8382 1036.27 23.6243 1037.66 24.6953C1039.05 25.7663 1040.23 27.1449 1041.21 28.8311C1042.19 30.4945 1042.94 32.4883 1043.47 34.8125C1043.99 37.1139 1044.25 39.7572 1044.25 42.7422ZM1034.38 52.6543V41.4092C1034.38 39.609 1034.27 38.0368 1034.07 36.6924C1033.89 35.348 1033.6 34.2087 1033.21 33.2744C1032.83 32.3174 1032.35 31.5426 1031.78 30.9502C1031.21 30.3577 1030.56 29.9248 1029.83 29.6514C1029.1 29.3779 1028.29 29.2412 1027.4 29.2412C1026.29 29.2412 1025.3 29.4577 1024.43 29.8906C1023.59 30.3236 1022.87 31.0186 1022.28 31.9756C1021.68 32.9098 1021.23 34.1631 1020.91 35.7354C1020.61 37.2848 1020.47 39.1761 1020.47 41.4092V52.6543C1020.47 54.4544 1020.56 56.0381 1020.74 57.4053C1020.94 58.7725 1021.24 59.946 1021.63 60.9258C1022.04 61.8828 1022.52 62.6689 1023.06 63.2842C1023.63 63.8766 1024.28 64.3096 1025.01 64.583C1025.76 64.8564 1026.58 64.9932 1027.47 64.9932C1028.57 64.9932 1029.53 64.7767 1030.38 64.3438C1031.24 63.888 1031.97 63.1816 1032.57 62.2246C1033.18 61.2448 1033.64 59.9688 1033.93 58.3965C1034.23 56.8242 1034.38 54.9102 1034.38 52.6543ZM1056.66 22.2344H1065.34L1078.13 58.7725L1090.91 22.2344H1099.59L1081.61 72H1074.64L1056.66 22.2344ZM1051.98 22.2344H1060.63L1062.2 57.8496V72H1051.98V22.2344ZM1095.63 22.2344H1104.31V72H1094.05V57.8496L1095.63 22.2344Z" fill="#002C29"/>
<path d="M985.309 93.7188V95.6621H977.76V93.7188H985.309ZM978.365 87.7812V102H975.914V87.7812H978.365ZM987.193 87.7812V102H984.752V87.7812H987.193ZM1001.39 87.7812V102H998.941L992.564 91.8145V102H990.113V87.7812H992.564L998.961 97.9863V87.7812H1001.39ZM1004.31 87.7812H1009.34C1010.42 87.7812 1011.34 87.944 1012.11 88.2695C1012.87 88.5951 1013.45 89.0768 1013.85 89.7148C1014.26 90.3464 1014.47 91.1276 1014.47 92.0586C1014.47 92.7682 1014.34 93.3932 1014.08 93.9336C1013.82 94.474 1013.45 94.9297 1012.97 95.3008C1012.5 95.6654 1011.93 95.9486 1011.28 96.1504L1010.53 96.5117H1006.01L1005.99 94.5684H1009.38C1009.97 94.5684 1010.46 94.4642 1010.85 94.2559C1011.24 94.0475 1011.53 93.7643 1011.72 93.4062C1011.93 93.0417 1012.03 92.6315 1012.03 92.1758C1012.03 91.681 1011.93 91.2513 1011.73 90.8867C1011.55 90.5156 1011.25 90.2324 1010.86 90.0371C1010.46 89.8353 1009.95 89.7344 1009.34 89.7344H1006.76V102H1004.31V87.7812ZM1012.43 102L1009.09 95.6133L1011.66 95.6035L1015.04 101.873V102H1012.43ZM1025.31 97.3711H1027.75C1027.67 98.3021 1027.41 99.1322 1026.97 99.8613C1026.53 100.584 1025.9 101.154 1025.1 101.57C1024.3 101.987 1023.33 102.195 1022.18 102.195C1021.3 102.195 1020.51 102.039 1019.81 101.727C1019.11 101.408 1018.51 100.958 1018 100.379C1017.5 99.793 1017.12 99.0866 1016.85 98.2598C1016.59 97.4329 1016.46 96.5085 1016.46 95.4863V94.3047C1016.46 93.2826 1016.59 92.3581 1016.86 91.5312C1017.13 90.7044 1017.53 89.998 1018.03 89.4121C1018.54 88.8197 1019.15 88.3672 1019.86 88.0547C1020.58 87.7422 1021.38 87.5859 1022.27 87.5859C1023.4 87.5859 1024.36 87.7943 1025.14 88.2109C1025.92 88.6276 1026.53 89.2038 1026.96 89.9395C1027.4 90.6751 1027.66 91.5182 1027.76 92.4688H1025.32C1025.25 91.8568 1025.11 91.3327 1024.89 90.8965C1024.67 90.4603 1024.35 90.1283 1023.93 89.9004C1023.51 89.666 1022.96 89.5488 1022.27 89.5488C1021.71 89.5488 1021.22 89.653 1020.81 89.8613C1020.39 90.0697 1020.04 90.3757 1019.76 90.7793C1019.48 91.1829 1019.27 91.681 1019.13 92.2734C1018.99 92.8594 1018.92 93.5299 1018.92 94.2852V95.4863C1018.92 96.2025 1018.98 96.8535 1019.11 97.4395C1019.24 98.0189 1019.43 98.5169 1019.69 98.9336C1019.96 99.3503 1020.3 99.6725 1020.71 99.9004C1021.12 100.128 1021.61 100.242 1022.18 100.242C1022.88 100.242 1023.44 100.132 1023.87 99.9102C1024.31 99.6888 1024.64 99.3665 1024.86 98.9434C1025.09 98.5137 1025.24 97.9896 1025.31 97.3711Z" fill="#002C29"/>
<path d="M1105.33 479.406V487.131H1069.48L1069 481.149L1089.74 448.234H1097.57L1089.09 462.419L1078.77 479.406H1105.33ZM1099.69 448.234V498H1089.85V448.234H1099.69ZM1131.17 476.159H1118.39L1118.32 469.118H1129.05C1130.94 469.118 1132.49 468.879 1133.7 468.4C1134.91 467.899 1135.81 467.181 1136.4 466.247C1137.01 465.29 1137.32 464.128 1137.32 462.761C1137.32 461.211 1137.03 459.958 1136.43 459.001C1135.86 458.044 1134.96 457.349 1133.73 456.916C1132.53 456.483 1130.96 456.267 1129.05 456.267H1121.94V498H1111.69V448.234H1129.05C1131.94 448.234 1134.53 448.508 1136.81 449.055C1139.11 449.602 1141.06 450.433 1142.65 451.55C1144.25 452.666 1145.47 454.079 1146.31 455.788C1147.15 457.474 1147.58 459.479 1147.58 461.804C1147.58 463.854 1147.11 465.746 1146.17 467.478C1145.26 469.209 1143.82 470.622 1141.83 471.716C1139.87 472.81 1137.31 473.413 1134.14 473.527L1131.17 476.159ZM1130.73 498H1115.58L1119.58 490.002H1130.73C1132.53 490.002 1134 489.717 1135.13 489.147C1136.27 488.555 1137.12 487.757 1137.66 486.755C1138.21 485.752 1138.48 484.602 1138.48 483.303C1138.48 481.844 1138.23 480.58 1137.73 479.509C1137.25 478.438 1136.48 477.618 1135.41 477.048C1134.34 476.455 1132.92 476.159 1131.17 476.159H1121.29L1121.36 469.118H1133.67L1136.02 471.887C1139.05 471.841 1141.49 472.377 1143.34 473.493C1145.21 474.587 1146.56 476.011 1147.41 477.766C1148.27 479.52 1148.7 481.4 1148.7 483.405C1148.7 486.595 1148.01 489.284 1146.62 491.472C1145.23 493.636 1143.19 495.266 1140.5 496.359C1137.83 497.453 1134.58 498 1130.73 498Z" fill="#002C29"/>
<path d="M1068.84 509.781H1073.87C1074.95 509.781 1075.87 509.944 1076.63 510.27C1077.39 510.595 1077.98 511.077 1078.38 511.715C1078.79 512.346 1078.99 513.128 1078.99 514.059C1078.99 514.768 1078.86 515.393 1078.6 515.934C1078.34 516.474 1077.98 516.93 1077.5 517.301C1077.02 517.665 1076.46 517.949 1075.8 518.15L1075.06 518.512H1070.54L1070.52 516.568H1073.91C1074.49 516.568 1074.98 516.464 1075.37 516.256C1075.76 516.048 1076.05 515.764 1076.25 515.406C1076.45 515.042 1076.55 514.632 1076.55 514.176C1076.55 513.681 1076.46 513.251 1076.26 512.887C1076.07 512.516 1075.78 512.232 1075.38 512.037C1074.98 511.835 1074.48 511.734 1073.87 511.734H1071.29V524H1068.84V509.781ZM1076.95 524L1073.61 517.613L1076.18 517.604L1079.57 523.873V524H1076.95ZM1090.74 522.057V524H1083.19V522.057H1090.74ZM1083.89 509.781V524H1081.44V509.781H1083.89ZM1089.76 515.719V517.633H1083.19V515.719H1089.76ZM1090.69 509.781V511.734H1083.19V509.781H1090.69ZM1100.22 520.338C1100.22 520.045 1100.18 519.785 1100.09 519.557C1100 519.329 1099.85 519.12 1099.63 518.932C1099.41 518.743 1099.1 518.561 1098.69 518.385C1098.29 518.202 1097.79 518.017 1097.17 517.828C1096.49 517.62 1095.87 517.389 1095.29 517.135C1094.73 516.874 1094.23 516.575 1093.81 516.236C1093.39 515.891 1093.06 515.497 1092.82 515.055C1092.59 514.605 1092.47 514.088 1092.47 513.502C1092.47 512.923 1092.59 512.395 1092.83 511.92C1093.08 511.445 1093.43 511.035 1093.88 510.689C1094.33 510.338 1094.87 510.068 1095.49 509.879C1096.11 509.684 1096.79 509.586 1097.54 509.586C1098.59 509.586 1099.5 509.781 1100.26 510.172C1101.03 510.562 1101.62 511.087 1102.03 511.744C1102.45 512.402 1102.66 513.128 1102.66 513.922H1100.22C1100.22 513.453 1100.12 513.04 1099.92 512.682C1099.73 512.317 1099.43 512.031 1099.02 511.822C1098.63 511.614 1098.12 511.51 1097.51 511.51C1096.93 511.51 1096.45 511.598 1096.06 511.773C1095.68 511.949 1095.39 512.187 1095.21 512.486C1095.02 512.786 1094.92 513.124 1094.92 513.502C1094.92 513.769 1094.98 514.013 1095.11 514.234C1095.23 514.449 1095.42 514.651 1095.67 514.84C1095.93 515.022 1096.25 515.195 1096.63 515.357C1097.01 515.52 1097.47 515.676 1097.99 515.826C1098.78 516.061 1099.46 516.321 1100.05 516.607C1100.63 516.887 1101.12 517.206 1101.51 517.564C1101.9 517.923 1102.2 518.329 1102.39 518.785C1102.59 519.234 1102.69 519.745 1102.69 520.318C1102.69 520.917 1102.57 521.458 1102.32 521.939C1102.08 522.415 1101.74 522.822 1101.29 523.16C1100.85 523.492 1100.31 523.749 1099.69 523.932C1099.07 524.107 1098.38 524.195 1097.62 524.195C1096.93 524.195 1096.26 524.104 1095.6 523.922C1094.94 523.74 1094.34 523.463 1093.8 523.092C1093.26 522.714 1092.83 522.245 1092.51 521.686C1092.19 521.119 1092.03 520.458 1092.03 519.703H1094.48C1094.48 520.165 1094.56 520.559 1094.72 520.885C1094.88 521.21 1095.1 521.477 1095.39 521.686C1095.68 521.887 1096.01 522.037 1096.39 522.135C1096.77 522.232 1097.18 522.281 1097.62 522.281C1098.19 522.281 1098.67 522.2 1099.05 522.037C1099.44 521.874 1099.74 521.646 1099.93 521.354C1100.13 521.061 1100.22 520.722 1100.22 520.338ZM1114.16 522.057V524H1106.61V522.057H1114.16ZM1107.3 509.781V524H1104.85V509.781H1107.3ZM1113.17 515.719V517.633H1106.61V515.719H1113.17ZM1114.11 509.781V511.734H1106.61V509.781H1114.11ZM1116.16 509.781H1121.19C1122.27 509.781 1123.19 509.944 1123.96 510.27C1124.72 510.595 1125.3 511.077 1125.7 511.715C1126.11 512.346 1126.32 513.128 1126.32 514.059C1126.32 514.768 1126.19 515.393 1125.93 515.934C1125.67 516.474 1125.3 516.93 1124.82 517.301C1124.35 517.665 1123.78 517.949 1123.12 518.15L1122.38 518.512H1117.86L1117.84 516.568H1121.23C1121.82 516.568 1122.3 516.464 1122.7 516.256C1123.09 516.048 1123.38 515.764 1123.57 515.406C1123.78 515.042 1123.88 514.632 1123.88 514.176C1123.88 513.681 1123.78 513.251 1123.58 512.887C1123.4 512.516 1123.1 512.232 1122.71 512.037C1122.31 511.835 1121.8 511.734 1121.19 511.734H1118.61V524H1116.16V509.781ZM1124.28 524L1120.94 517.613L1123.51 517.604L1126.89 523.873V524H1124.28ZM1133.44 521.402L1137.18 509.781H1139.88L1134.79 524H1132.96L1133.44 521.402ZM1129.98 509.781L1133.69 521.402L1134.2 524H1132.36L1127.29 509.781H1129.98ZM1150.78 522.057V524H1143.23V522.057H1150.78ZM1143.93 509.781V524H1141.47V509.781H1143.93ZM1149.79 515.719V517.633H1143.23V515.719H1149.79ZM1150.73 509.781V511.734H1143.23V509.781H1150.73ZM1165.24 520.338C1165.24 520.045 1165.2 519.785 1165.11 519.557C1165.02 519.329 1164.87 519.12 1164.65 518.932C1164.43 518.743 1164.11 518.561 1163.71 518.385C1163.31 518.202 1162.81 518.017 1162.19 517.828C1161.51 517.62 1160.89 517.389 1160.31 517.135C1159.75 516.874 1159.25 516.575 1158.83 516.236C1158.4 515.891 1158.08 515.497 1157.84 515.055C1157.61 514.605 1157.49 514.088 1157.49 513.502C1157.49 512.923 1157.61 512.395 1157.85 511.92C1158.1 511.445 1158.45 511.035 1158.9 510.689C1159.35 510.338 1159.89 510.068 1160.51 509.879C1161.13 509.684 1161.81 509.586 1162.56 509.586C1163.61 509.586 1164.52 509.781 1165.28 510.172C1166.05 510.562 1166.64 511.087 1167.05 511.744C1167.47 512.402 1167.68 513.128 1167.68 513.922H1165.24C1165.24 513.453 1165.14 513.04 1164.94 512.682C1164.75 512.317 1164.45 512.031 1164.04 511.822C1163.65 511.614 1163.14 511.51 1162.53 511.51C1161.95 511.51 1161.47 511.598 1161.08 511.773C1160.7 511.949 1160.41 512.187 1160.22 512.486C1160.04 512.786 1159.94 513.124 1159.94 513.502C1159.94 513.769 1160 514.013 1160.13 514.234C1160.25 514.449 1160.44 514.651 1160.69 514.84C1160.95 515.022 1161.27 515.195 1161.65 515.357C1162.03 515.52 1162.49 515.676 1163.01 515.826C1163.8 516.061 1164.48 516.321 1165.07 516.607C1165.65 516.887 1166.14 517.206 1166.53 517.564C1166.92 517.923 1167.22 518.329 1167.41 518.785C1167.61 519.234 1167.71 519.745 1167.71 520.318C1167.71 520.917 1167.58 521.458 1167.34 521.939C1167.1 522.415 1166.76 522.822 1166.31 523.16C1165.87 523.492 1165.33 523.749 1164.71 523.932C1164.09 524.107 1163.4 524.195 1162.64 524.195C1161.95 524.195 1161.28 524.104 1160.62 523.922C1159.96 523.74 1159.36 523.463 1158.82 523.092C1158.28 522.714 1157.85 522.245 1157.53 521.686C1157.21 521.119 1157.05 520.458 1157.05 519.703H1159.5C1159.5 520.165 1159.58 520.559 1159.74 520.885C1159.9 521.21 1160.12 521.477 1160.41 521.686C1160.7 521.887 1161.03 522.037 1161.41 522.135C1161.79 522.232 1162.2 522.281 1162.64 522.281C1163.21 522.281 1163.69 522.2 1164.07 522.037C1164.46 521.874 1164.76 521.646 1164.95 521.354C1165.15 521.061 1165.24 520.722 1165.24 520.338ZM1177.85 509.781H1180.29V519.283C1180.29 520.364 1180.06 521.269 1179.59 521.998C1179.12 522.727 1178.48 523.277 1177.68 523.648C1176.88 524.013 1175.98 524.195 1174.99 524.195C1173.97 524.195 1173.06 524.013 1172.26 523.648C1171.46 523.277 1170.82 522.727 1170.36 521.998C1169.91 521.269 1169.68 520.364 1169.68 519.283V509.781H1172.12V519.283C1172.12 519.967 1172.24 520.53 1172.47 520.973C1172.71 521.409 1173.04 521.731 1173.47 521.939C1173.9 522.148 1174.4 522.252 1174.99 522.252C1175.58 522.252 1176.08 522.148 1176.5 521.939C1176.93 521.731 1177.27 521.409 1177.5 520.973C1177.73 520.53 1177.85 519.967 1177.85 519.283V509.781ZM1188.36 518.697H1184.66V516.754H1188.36C1189 516.754 1189.52 516.65 1189.92 516.441C1190.32 516.233 1190.61 515.947 1190.79 515.582C1190.98 515.211 1191.07 514.788 1191.07 514.312C1191.07 513.863 1190.98 513.443 1190.79 513.053C1190.61 512.656 1190.32 512.337 1189.92 512.096C1189.52 511.855 1189 511.734 1188.36 511.734H1185.41V524H1182.96V509.781H1188.36C1189.46 509.781 1190.39 509.977 1191.16 510.367C1191.94 510.751 1192.53 511.285 1192.93 511.969C1193.33 512.646 1193.54 513.421 1193.54 514.293C1193.54 515.211 1193.33 515.999 1192.93 516.656C1192.53 517.314 1191.94 517.818 1191.16 518.17C1190.39 518.521 1189.46 518.697 1188.36 518.697ZM1201.13 518.697H1197.43V516.754H1201.13C1201.78 516.754 1202.3 516.65 1202.7 516.441C1203.09 516.233 1203.38 515.947 1203.56 515.582C1203.75 515.211 1203.85 514.788 1203.85 514.312C1203.85 513.863 1203.75 513.443 1203.56 513.053C1203.38 512.656 1203.09 512.337 1202.7 512.096C1202.3 511.855 1201.78 511.734 1201.13 511.734H1198.18V524H1195.73V509.781H1201.13C1202.23 509.781 1203.17 509.977 1203.94 510.367C1204.71 510.751 1205.3 511.285 1205.7 511.969C1206.11 512.646 1206.31 513.421 1206.31 514.293C1206.31 515.211 1206.11 515.999 1205.7 516.656C1205.3 517.314 1204.71 517.818 1203.94 518.17C1203.17 518.521 1202.23 518.697 1201.13 518.697ZM1217.41 522.057V524H1210.27V522.057H1217.41ZM1210.96 509.781V524H1208.51V509.781H1210.96ZM1218.18 509.781L1221.48 516.568L1224.79 509.781H1227.5L1222.71 518.766V524H1220.24V518.766L1215.46 509.781H1218.18Z" fill="#002C29"/>
<path d="M599.875 226.582C581.798 262.365 575.834 303.052 582.88 342.518C589.927 381.983 609.603 418.092 638.946 445.408C668.29 472.725 705.712 489.77 745.581 493.978C785.449 498.186 825.606 489.33 860.006 468.742C894.405 448.154 921.186 416.949 936.317 379.824C951.448 342.699 954.11 301.663 943.902 262.895C933.695 224.126 911.17 189.723 879.718 164.863C848.266 140.003 809.59 126.033 769.512 125.055L765 310L599.875 226.582Z" fill="#61D836"/>
<path d="M725.113 53.1133C692.91 53.1133 661.264 61.5194 633.306 77.5005C605.348 93.4815 582.046 116.484 565.704 144.233L725.113 238.113L725.113 53.1133Z" fill="#F0B345"/>
<path d="M546.141 156.515C542.768 161.984 539.683 167.626 536.898 173.416L703.613 253.609L546.141 156.515Z" fill="#D83639"/>
<path d="M762.304 48.811C755.907 48.21 749.482 47.9427 743.057 48.0102L745 233L762.304 48.811Z" fill="#36D8D0"/>
<path d="M351.333 59.5C351.333 60.9728 352.527 62.1667 354 62.1667C355.473 62.1667 356.667 60.9728 356.667 59.5C356.667 58.0272 355.473 56.8333 354 56.8333C352.527 56.8333 351.333 58.0272 351.333 59.5ZM577.333 59.5C577.333 60.9728 578.527 62.1667 580 62.1667C581.473 62.1667 582.667 60.9728 582.667 59.5C582.667 58.0272 581.473 56.8333 580 56.8333C578.527 56.8333 577.333 58.0272 577.333 59.5ZM354 60H580V59H354V60Z" fill="#002C29"/>
<path d="M773.333 43.5C773.333 44.9728 774.527 46.1667 776 46.1667C777.473 46.1667 778.667 44.9728 778.667 43.5C778.667 42.0272 777.473 40.8333 776 40.8333C774.527 40.8333 773.333 42.0272 773.333 43.5ZM952.333 43.5C952.333 44.9728 953.527 46.1667 955 46.1667C956.473 46.1667 957.667 44.9728 957.667 43.5C957.667 42.0272 956.473 40.8333 955 40.8333C953.527 40.8333 952.333 42.0272 952.333 43.5ZM776 44H955V43H776V44Z" fill="#002C29"/>
<path d="M316.333 218.5C316.333 219.973 317.527 221.167 319 221.167C320.473 221.167 321.667 219.973 321.667 218.5C321.667 217.027 320.473 215.833 319 215.833C317.527 215.833 316.333 217.027 316.333 218.5ZM597.333 218.5C597.333 219.973 598.527 221.167 600 221.167C601.473 221.167 602.667 219.973 602.667 218.5C602.667 217.027 601.473 215.833 600 215.833C598.527 215.833 597.333 217.027 597.333 218.5ZM319 219H600V218H319V219Z" fill="#002C29"/>
<path d="M905.333 473.5C905.333 474.973 906.527 476.167 908 476.167C909.473 476.167 910.667 474.973 910.667 473.5C910.667 472.027 909.473 470.833 908 470.833C906.527 470.833 905.333 472.027 905.333 473.5ZM1047.33 473.5C1047.33 474.973 1048.53 476.167 1050 476.167C1051.47 476.167 1052.67 474.973 1052.67 473.5C1052.67 472.027 1051.47 470.833 1050 470.833C1048.53 470.833 1047.33 472.027 1047.33 473.5ZM908 474H1050V473H908V474Z" fill="#002C29"/>
<path d="M371.441 454.781H373.629L377.74 465.748L381.842 454.781H384.029L378.6 469H376.861L371.441 454.781ZM370.445 454.781H372.525L372.887 464.273V469H370.445V454.781ZM382.945 454.781H385.035V469H382.584V464.273L382.945 454.781ZM393.658 456.676L389.41 469H386.842L392.193 454.781H393.834L393.658 456.676ZM397.213 469L392.955 456.676L392.77 454.781H394.42L399.791 469H397.213ZM397.008 463.727V465.67H389.273V463.727H397.008ZM403.248 454.781L406.266 459.967L409.283 454.781H412.105L407.809 461.822L412.213 469H409.361L406.266 463.717L403.17 469H400.309L404.723 461.822L400.416 454.781H403.248ZM426.48 465.338C426.48 465.045 426.435 464.785 426.344 464.557C426.259 464.329 426.106 464.12 425.885 463.932C425.663 463.743 425.351 463.561 424.947 463.385C424.55 463.202 424.042 463.017 423.424 462.828C422.747 462.62 422.122 462.389 421.549 462.135C420.982 461.874 420.488 461.575 420.064 461.236C419.641 460.891 419.312 460.497 419.078 460.055C418.844 459.605 418.727 459.088 418.727 458.502C418.727 457.923 418.847 457.395 419.088 456.92C419.335 456.445 419.684 456.035 420.133 455.689C420.589 455.338 421.126 455.068 421.744 454.879C422.363 454.684 423.046 454.586 423.795 454.586C424.85 454.586 425.758 454.781 426.52 455.172C427.288 455.562 427.877 456.087 428.287 456.744C428.704 457.402 428.912 458.128 428.912 458.922H426.48C426.48 458.453 426.38 458.04 426.178 457.682C425.982 457.317 425.683 457.031 425.279 456.822C424.882 456.614 424.378 456.51 423.766 456.51C423.186 456.51 422.704 456.598 422.32 456.773C421.936 456.949 421.65 457.187 421.461 457.486C421.272 457.786 421.178 458.124 421.178 458.502C421.178 458.769 421.24 459.013 421.363 459.234C421.487 459.449 421.676 459.651 421.93 459.84C422.184 460.022 422.503 460.195 422.887 460.357C423.271 460.52 423.723 460.676 424.244 460.826C425.032 461.061 425.719 461.321 426.305 461.607C426.891 461.887 427.379 462.206 427.77 462.564C428.16 462.923 428.453 463.329 428.648 463.785C428.844 464.234 428.941 464.745 428.941 465.318C428.941 465.917 428.821 466.458 428.58 466.939C428.339 467.415 427.994 467.822 427.545 468.16C427.102 468.492 426.568 468.749 425.943 468.932C425.325 469.107 424.635 469.195 423.873 469.195C423.189 469.195 422.516 469.104 421.852 468.922C421.194 468.74 420.595 468.463 420.055 468.092C419.514 467.714 419.085 467.245 418.766 466.686C418.447 466.119 418.287 465.458 418.287 464.703H420.738C420.738 465.165 420.816 465.559 420.973 465.885C421.135 466.21 421.36 466.477 421.646 466.686C421.933 466.887 422.265 467.037 422.643 467.135C423.027 467.232 423.437 467.281 423.873 467.281C424.446 467.281 424.924 467.2 425.309 467.037C425.699 466.874 425.992 466.646 426.188 466.354C426.383 466.061 426.48 465.722 426.48 465.338ZM439.088 454.781H441.529V464.283C441.529 465.364 441.295 466.269 440.826 466.998C440.357 467.727 439.719 468.277 438.912 468.648C438.111 469.013 437.216 469.195 436.227 469.195C435.204 469.195 434.293 469.013 433.492 468.648C432.691 468.277 432.06 467.727 431.598 466.998C431.142 466.269 430.914 465.364 430.914 464.283V454.781H433.355V464.283C433.355 464.967 433.473 465.53 433.707 465.973C433.941 466.409 434.273 466.731 434.703 466.939C435.133 467.148 435.641 467.252 436.227 467.252C436.812 467.252 437.317 467.148 437.74 466.939C438.17 466.731 438.502 466.409 438.736 465.973C438.971 465.53 439.088 464.967 439.088 464.283V454.781ZM449.596 463.697H445.895V461.754H449.596C450.24 461.754 450.761 461.65 451.158 461.441C451.555 461.233 451.845 460.947 452.027 460.582C452.216 460.211 452.311 459.788 452.311 459.312C452.311 458.863 452.216 458.443 452.027 458.053C451.845 457.656 451.555 457.337 451.158 457.096C450.761 456.855 450.24 456.734 449.596 456.734H446.646V469H444.195V454.781H449.596C450.696 454.781 451.63 454.977 452.398 455.367C453.173 455.751 453.762 456.285 454.166 456.969C454.57 457.646 454.771 458.421 454.771 459.293C454.771 460.211 454.57 460.999 454.166 461.656C453.762 462.314 453.173 462.818 452.398 463.17C451.63 463.521 450.696 463.697 449.596 463.697ZM462.369 463.697H458.668V461.754H462.369C463.014 461.754 463.535 461.65 463.932 461.441C464.329 461.233 464.618 460.947 464.801 460.582C464.99 460.211 465.084 459.788 465.084 459.312C465.084 458.863 464.99 458.443 464.801 458.053C464.618 457.656 464.329 457.337 463.932 457.096C463.535 456.855 463.014 456.734 462.369 456.734H459.42V469H456.969V454.781H462.369C463.469 454.781 464.404 454.977 465.172 455.367C465.947 455.751 466.536 456.285 466.939 456.969C467.343 457.646 467.545 458.421 467.545 459.293C467.545 460.211 467.343 460.999 466.939 461.656C466.536 462.314 465.947 462.818 465.172 463.17C464.404 463.521 463.469 463.697 462.369 463.697ZM478.648 467.057V469H471.51V467.057H478.648ZM472.193 454.781V469H469.742V454.781H472.193ZM479.42 454.781L482.721 461.568L486.021 454.781H488.736L483.951 463.766V469H481.48V463.766L476.695 454.781H479.42ZM490.084 467.828C490.084 467.464 490.208 467.158 490.455 466.91C490.702 466.656 491.038 466.529 491.461 466.529C491.891 466.529 492.226 466.656 492.467 466.91C492.714 467.158 492.838 467.464 492.838 467.828C492.838 468.193 492.714 468.499 492.467 468.746C492.226 468.993 491.891 469.117 491.461 469.117C491.038 469.117 490.702 468.993 490.455 468.746C490.208 468.499 490.084 468.193 490.084 467.828ZM490.094 459.508C490.094 459.143 490.217 458.837 490.465 458.59C490.712 458.336 491.048 458.209 491.471 458.209C491.9 458.209 492.236 458.336 492.477 458.59C492.724 458.837 492.848 459.143 492.848 459.508C492.848 459.872 492.724 460.178 492.477 460.426C492.236 460.673 491.9 460.797 491.471 460.797C491.048 460.797 490.712 460.673 490.465 460.426C490.217 460.178 490.094 459.872 490.094 459.508ZM502.643 462.389L500.768 461.93L501.539 454.781H509.205V456.773H503.492L503.102 460.26C503.323 460.13 503.629 460.003 504.02 459.879C504.41 459.749 504.856 459.684 505.357 459.684C506.028 459.684 506.627 459.794 507.154 460.016C507.688 460.23 508.141 460.546 508.512 460.963C508.883 461.373 509.166 461.874 509.361 462.467C509.557 463.053 509.654 463.714 509.654 464.449C509.654 465.107 509.557 465.722 509.361 466.295C509.173 466.868 508.886 467.372 508.502 467.809C508.118 468.245 507.633 468.587 507.047 468.834C506.467 469.075 505.781 469.195 504.986 469.195C504.394 469.195 503.824 469.111 503.277 468.941C502.737 468.766 502.252 468.508 501.822 468.17C501.393 467.825 501.048 467.402 500.787 466.9C500.527 466.393 500.377 465.81 500.338 465.152H502.643C502.701 465.615 502.828 466.008 503.023 466.334C503.225 466.653 503.492 466.897 503.824 467.066C504.156 467.236 504.54 467.32 504.977 467.32C505.374 467.32 505.715 467.252 506.002 467.115C506.288 466.972 506.526 466.77 506.715 466.51C506.91 466.243 507.053 465.93 507.145 465.572C507.242 465.214 507.291 464.817 507.291 464.381C507.291 463.964 507.236 463.583 507.125 463.238C507.021 462.893 506.861 462.594 506.646 462.34C506.438 462.086 506.174 461.891 505.855 461.754C505.536 461.611 505.169 461.539 504.752 461.539C504.192 461.539 503.762 461.62 503.463 461.783C503.17 461.946 502.896 462.148 502.643 462.389ZM522.223 462.574H518.6L518.58 460.787H521.744C522.278 460.787 522.73 460.709 523.102 460.553C523.479 460.39 523.766 460.159 523.961 459.859C524.156 459.553 524.254 459.186 524.254 458.756C524.254 458.281 524.163 457.893 523.98 457.594C523.798 457.294 523.518 457.076 523.141 456.939C522.77 456.803 522.294 456.734 521.715 456.734H519.342V469H516.891V454.781H521.715C522.496 454.781 523.193 454.856 523.805 455.006C524.423 455.156 524.947 455.39 525.377 455.709C525.813 456.021 526.142 456.419 526.363 456.9C526.591 457.382 526.705 457.955 526.705 458.619C526.705 459.205 526.565 459.742 526.285 460.23C526.005 460.712 525.592 461.106 525.045 461.412C524.498 461.718 523.818 461.9 523.004 461.959L522.223 462.574ZM522.115 469H517.828L518.932 467.057H522.115C522.669 467.057 523.131 466.965 523.502 466.783C523.873 466.594 524.15 466.337 524.332 466.012C524.521 465.68 524.615 465.292 524.615 464.85C524.615 464.387 524.534 463.987 524.371 463.648C524.208 463.303 523.951 463.04 523.6 462.857C523.248 462.669 522.789 462.574 522.223 462.574H519.469L519.488 460.787H523.072L523.629 461.461C524.41 461.487 525.051 461.66 525.553 461.979C526.061 462.298 526.438 462.711 526.686 463.219C526.933 463.727 527.057 464.273 527.057 464.859C527.057 465.764 526.858 466.523 526.461 467.135C526.07 467.747 525.507 468.212 524.771 468.531C524.036 468.844 523.15 469 522.115 469ZM532.145 454.781V469H529.693V454.781H532.145ZM544.098 467.057V469H536.959V467.057H544.098ZM537.643 454.781V469H535.191V454.781H537.643ZM554.898 467.057V469H547.76V467.057H554.898ZM548.443 454.781V469H545.992V454.781H548.443ZM559.41 454.781V469H556.959V454.781H559.41ZM573.795 461.5V462.281C573.795 463.355 573.655 464.319 573.375 465.172C573.095 466.025 572.695 466.751 572.174 467.35C571.66 467.949 571.041 468.408 570.318 468.727C569.596 469.039 568.795 469.195 567.916 469.195C567.044 469.195 566.246 469.039 565.523 468.727C564.807 468.408 564.186 467.949 563.658 467.35C563.131 466.751 562.721 466.025 562.428 465.172C562.141 464.319 561.998 463.355 561.998 462.281V461.5C561.998 460.426 562.141 459.465 562.428 458.619C562.714 457.766 563.118 457.04 563.639 456.441C564.166 455.836 564.788 455.377 565.504 455.064C566.227 454.745 567.024 454.586 567.896 454.586C568.775 454.586 569.576 454.745 570.299 455.064C571.021 455.377 571.643 455.836 572.164 456.441C572.685 457.04 573.085 457.766 573.365 458.619C573.652 459.465 573.795 460.426 573.795 461.5ZM571.344 462.281V461.48C571.344 460.686 571.266 459.986 571.109 459.381C570.96 458.769 570.735 458.258 570.436 457.848C570.143 457.431 569.781 457.118 569.352 456.91C568.922 456.695 568.437 456.588 567.896 456.588C567.356 456.588 566.874 456.695 566.451 456.91C566.028 457.118 565.667 457.431 565.367 457.848C565.074 458.258 564.85 458.769 564.693 459.381C564.537 459.986 564.459 460.686 564.459 461.48V462.281C564.459 463.076 564.537 463.779 564.693 464.391C564.85 465.003 565.077 465.52 565.377 465.943C565.683 466.36 566.048 466.676 566.471 466.891C566.894 467.099 567.376 467.203 567.916 467.203C568.463 467.203 568.948 467.099 569.371 466.891C569.794 466.676 570.152 466.36 570.445 465.943C570.738 465.52 570.96 465.003 571.109 464.391C571.266 463.779 571.344 463.076 571.344 462.281ZM587.525 454.781V469H585.074L578.697 458.814V469H576.246V454.781H578.697L585.094 464.986V454.781H587.525Z" fill="#002C29"/>
</svg>
