<svg width="1360" height="575" viewBox="0 0 1360 575" fill="none" xmlns="http://www.w3.org/2000/svg">
<g clip-path="url(#clip0_7497_1858)">
<rect width="1360" height="575" rx="10" fill="white"/>
<path d="M56.7793 430.057V432H49.2305V430.057H56.7793ZM49.9238 417.781V432H47.4727V417.781H49.9238ZM55.793 423.719V425.633H49.2305V423.719H55.793ZM56.7305 417.781V419.734H49.2305V417.781H56.7305ZM64.1816 426.697H60.4805V424.754H64.1816C64.8262 424.754 65.347 424.65 65.7441 424.441C66.1413 424.233 66.431 423.947 66.6133 423.582C66.8021 423.211 66.8965 422.788 66.8965 422.312C66.8965 421.863 66.8021 421.443 66.6133 421.053C66.431 420.656 66.1413 420.337 65.7441 420.096C65.347 419.855 64.8262 419.734 64.1816 419.734H61.2324V432H58.7812V417.781H64.1816C65.2819 417.781 66.2161 417.977 66.9844 418.367C67.7591 418.751 68.3483 419.285 68.752 419.969C69.1556 420.646 69.3574 421.421 69.3574 422.293C69.3574 423.211 69.1556 423.999 68.752 424.656C68.3483 425.314 67.7591 425.818 66.9844 426.17C66.2161 426.521 65.2819 426.697 64.1816 426.697ZM82.8926 424.5V425.281C82.8926 426.355 82.7526 427.319 82.4727 428.172C82.1927 429.025 81.7923 429.751 81.2715 430.35C80.7572 430.949 80.1387 431.408 79.416 431.727C78.6934 432.039 77.8926 432.195 77.0137 432.195C76.1413 432.195 75.3438 432.039 74.6211 431.727C73.9049 431.408 73.2832 430.949 72.7559 430.35C72.2285 429.751 71.8184 429.025 71.5254 428.172C71.2389 427.319 71.0957 426.355 71.0957 425.281V424.5C71.0957 423.426 71.2389 422.465 71.5254 421.619C71.8118 420.766 72.2155 420.04 72.7363 419.441C73.2637 418.836 73.8854 418.377 74.6016 418.064C75.3242 417.745 76.1217 417.586 76.9941 417.586C77.873 417.586 78.6738 417.745 79.3965 418.064C80.1191 418.377 80.7409 418.836 81.2617 419.441C81.7826 420.04 82.1829 420.766 82.4629 421.619C82.7493 422.465 82.8926 423.426 82.8926 424.5ZM80.4414 425.281V424.48C80.4414 423.686 80.3633 422.986 80.207 422.381C80.0573 421.769 79.8327 421.258 79.5332 420.848C79.2402 420.431 78.8789 420.118 78.4492 419.91C78.0195 419.695 77.5345 419.588 76.9941 419.588C76.4538 419.588 75.972 419.695 75.5488 419.91C75.1257 420.118 74.7643 420.431 74.4648 420.848C74.1719 421.258 73.9473 421.769 73.791 422.381C73.6348 422.986 73.5566 423.686 73.5566 424.48V425.281C73.5566 426.076 73.6348 426.779 73.791 427.391C73.9473 428.003 74.1751 428.52 74.4746 428.943C74.7806 429.36 75.1452 429.676 75.5684 429.891C75.9915 430.099 76.4733 430.203 77.0137 430.203C77.5605 430.203 78.0456 430.099 78.4688 429.891C78.8919 429.676 79.25 429.36 79.543 428.943C79.8359 428.52 80.0573 428.003 80.207 427.391C80.3633 426.779 80.4414 426.076 80.4414 425.281ZM92.8242 428.338C92.8242 428.045 92.7786 427.785 92.6875 427.557C92.6029 427.329 92.4499 427.12 92.2285 426.932C92.0072 426.743 91.6947 426.561 91.291 426.385C90.8939 426.202 90.3861 426.017 89.7676 425.828C89.0905 425.62 88.4655 425.389 87.8926 425.135C87.3262 424.874 86.8314 424.575 86.4082 424.236C85.985 423.891 85.6562 423.497 85.4219 423.055C85.1875 422.605 85.0703 422.088 85.0703 421.502C85.0703 420.923 85.1908 420.395 85.4316 419.92C85.679 419.445 86.0273 419.035 86.4766 418.689C86.9323 418.338 87.4694 418.068 88.0879 417.879C88.7064 417.684 89.39 417.586 90.1387 417.586C91.1934 417.586 92.1016 417.781 92.8633 418.172C93.6315 418.562 94.2207 419.087 94.6309 419.744C95.0475 420.402 95.2559 421.128 95.2559 421.922H92.8242C92.8242 421.453 92.7233 421.04 92.5215 420.682C92.3262 420.317 92.0267 420.031 91.623 419.822C91.2259 419.614 90.7214 419.51 90.1094 419.51C89.5299 419.51 89.0482 419.598 88.6641 419.773C88.2799 419.949 87.9935 420.187 87.8047 420.486C87.6159 420.786 87.5215 421.124 87.5215 421.502C87.5215 421.769 87.5833 422.013 87.707 422.234C87.8307 422.449 88.0195 422.651 88.2734 422.84C88.5273 423.022 88.8464 423.195 89.2305 423.357C89.6146 423.52 90.0671 423.676 90.5879 423.826C91.3757 424.061 92.0625 424.321 92.6484 424.607C93.2344 424.887 93.7227 425.206 94.1133 425.564C94.5039 425.923 94.7969 426.329 94.9922 426.785C95.1875 427.234 95.2852 427.745 95.2852 428.318C95.2852 428.917 95.1647 429.458 94.9238 429.939C94.6829 430.415 94.3379 430.822 93.8887 431.16C93.446 431.492 92.9121 431.749 92.2871 431.932C91.6686 432.107 90.9785 432.195 90.2168 432.195C89.5332 432.195 88.8594 432.104 88.1953 431.922C87.5378 431.74 86.9388 431.463 86.3984 431.092C85.8581 430.714 85.4284 430.245 85.1094 429.686C84.7904 429.119 84.6309 428.458 84.6309 427.703H87.082C87.082 428.165 87.1602 428.559 87.3164 428.885C87.4792 429.21 87.7038 429.477 87.9902 429.686C88.2767 429.887 88.6087 430.037 88.9863 430.135C89.3704 430.232 89.7806 430.281 90.2168 430.281C90.7897 430.281 91.2682 430.2 91.6523 430.037C92.043 429.874 92.3359 429.646 92.5312 429.354C92.7266 429.061 92.8242 428.722 92.8242 428.338ZM104.631 424.266L107.082 422.615C107.492 422.342 107.785 422.075 107.961 421.814C108.137 421.548 108.225 421.215 108.225 420.818C108.225 420.48 108.094 420.167 107.834 419.881C107.574 419.594 107.206 419.451 106.73 419.451C106.398 419.451 106.118 419.529 105.891 419.686C105.663 419.835 105.49 420.037 105.373 420.291C105.262 420.538 105.207 420.815 105.207 421.121C105.207 421.414 105.282 421.717 105.432 422.029C105.581 422.335 105.786 422.658 106.047 422.996C106.307 423.328 106.6 423.686 106.926 424.07L113.645 432H110.92L105.432 425.545C104.956 424.972 104.536 424.448 104.172 423.973C103.807 423.491 103.524 423.025 103.322 422.576C103.12 422.12 103.02 421.652 103.02 421.17C103.02 420.428 103.173 419.79 103.479 419.256C103.785 418.722 104.217 418.312 104.777 418.025C105.337 417.732 105.992 417.586 106.74 417.586C107.463 417.586 108.085 417.732 108.605 418.025C109.133 418.312 109.536 418.693 109.816 419.168C110.103 419.643 110.246 420.164 110.246 420.73C110.246 421.18 110.165 421.59 110.002 421.961C109.839 422.332 109.615 422.671 109.328 422.977C109.042 423.283 108.71 423.572 108.332 423.846L105.354 426.014C105.008 426.294 104.751 426.564 104.582 426.824C104.419 427.078 104.312 427.312 104.26 427.527C104.208 427.742 104.182 427.931 104.182 428.094C104.182 428.51 104.27 428.888 104.445 429.227C104.628 429.565 104.891 429.835 105.236 430.037C105.588 430.232 106.014 430.33 106.516 430.33C107.056 430.33 107.58 430.21 108.088 429.969C108.596 429.721 109.051 429.373 109.455 428.924C109.859 428.475 110.178 427.938 110.412 427.312C110.653 426.688 110.773 425.994 110.773 425.232H112.805C112.805 425.923 112.736 426.577 112.6 427.195C112.469 427.814 112.258 428.387 111.965 428.914C111.678 429.441 111.301 429.913 110.832 430.33C110.786 430.376 110.734 430.434 110.676 430.506C110.624 430.571 110.572 430.626 110.52 430.672C109.96 431.186 109.331 431.57 108.635 431.824C107.945 432.072 107.209 432.195 106.428 432.195C105.484 432.195 104.667 432.023 103.977 431.678C103.286 431.333 102.753 430.857 102.375 430.252C102.004 429.646 101.818 428.953 101.818 428.172C101.818 427.592 101.939 427.085 102.18 426.648C102.421 426.206 102.749 425.796 103.166 425.418C103.589 425.034 104.077 424.65 104.631 424.266ZM121.242 417.781H123.43L127.541 428.748L131.643 417.781H133.83L128.4 432H126.662L121.242 417.781ZM120.246 417.781H122.326L122.688 427.273V432H120.246V417.781ZM132.746 417.781H134.836V432H132.385V427.273L132.746 417.781ZM143.146 426.697H139.445V424.754H143.146C143.791 424.754 144.312 424.65 144.709 424.441C145.106 424.233 145.396 423.947 145.578 423.582C145.767 423.211 145.861 422.788 145.861 422.312C145.861 421.863 145.767 421.443 145.578 421.053C145.396 420.656 145.106 420.337 144.709 420.096C144.312 419.855 143.791 419.734 143.146 419.734H140.197V432H137.746V417.781H143.146C144.247 417.781 145.181 417.977 145.949 418.367C146.724 418.751 147.313 419.285 147.717 419.969C148.12 420.646 148.322 421.421 148.322 422.293C148.322 423.211 148.12 423.999 147.717 424.656C147.313 425.314 146.724 425.818 145.949 426.17C145.181 426.521 144.247 426.697 143.146 426.697ZM161.857 424.5V425.281C161.857 426.355 161.717 427.319 161.438 428.172C161.158 429.025 160.757 429.751 160.236 430.35C159.722 430.949 159.104 431.408 158.381 431.727C157.658 432.039 156.857 432.195 155.979 432.195C155.106 432.195 154.309 432.039 153.586 431.727C152.87 431.408 152.248 430.949 151.721 430.35C151.193 429.751 150.783 429.025 150.49 428.172C150.204 427.319 150.061 426.355 150.061 425.281V424.5C150.061 423.426 150.204 422.465 150.49 421.619C150.777 420.766 151.18 420.04 151.701 419.441C152.229 418.836 152.85 418.377 153.566 418.064C154.289 417.745 155.087 417.586 155.959 417.586C156.838 417.586 157.639 417.745 158.361 418.064C159.084 418.377 159.706 418.836 160.227 419.441C160.747 420.04 161.148 420.766 161.428 421.619C161.714 422.465 161.857 423.426 161.857 424.5ZM159.406 425.281V424.48C159.406 423.686 159.328 422.986 159.172 422.381C159.022 421.769 158.798 421.258 158.498 420.848C158.205 420.431 157.844 420.118 157.414 419.91C156.984 419.695 156.499 419.588 155.959 419.588C155.419 419.588 154.937 419.695 154.514 419.91C154.09 420.118 153.729 420.431 153.43 420.848C153.137 421.258 152.912 421.769 152.756 422.381C152.6 422.986 152.521 423.686 152.521 424.48V425.281C152.521 426.076 152.6 426.779 152.756 427.391C152.912 428.003 153.14 428.52 153.439 428.943C153.745 429.36 154.11 429.676 154.533 429.891C154.956 430.099 155.438 430.203 155.979 430.203C156.525 430.203 157.01 430.099 157.434 429.891C157.857 429.676 158.215 429.36 158.508 428.943C158.801 428.52 159.022 428.003 159.172 427.391C159.328 426.779 159.406 426.076 159.406 425.281ZM171.789 428.338C171.789 428.045 171.743 427.785 171.652 427.557C171.568 427.329 171.415 427.12 171.193 426.932C170.972 426.743 170.66 426.561 170.256 426.385C169.859 426.202 169.351 426.017 168.732 425.828C168.055 425.62 167.43 425.389 166.857 425.135C166.291 424.874 165.796 424.575 165.373 424.236C164.95 423.891 164.621 423.497 164.387 423.055C164.152 422.605 164.035 422.088 164.035 421.502C164.035 420.923 164.156 420.395 164.396 419.92C164.644 419.445 164.992 419.035 165.441 418.689C165.897 418.338 166.434 418.068 167.053 417.879C167.671 417.684 168.355 417.586 169.104 417.586C170.158 417.586 171.066 417.781 171.828 418.172C172.596 418.562 173.186 419.087 173.596 419.744C174.012 420.402 174.221 421.128 174.221 421.922H171.789C171.789 421.453 171.688 421.04 171.486 420.682C171.291 420.317 170.992 420.031 170.588 419.822C170.191 419.614 169.686 419.51 169.074 419.51C168.495 419.51 168.013 419.598 167.629 419.773C167.245 419.949 166.958 420.187 166.77 420.486C166.581 420.786 166.486 421.124 166.486 421.502C166.486 421.769 166.548 422.013 166.672 422.234C166.796 422.449 166.984 422.651 167.238 422.84C167.492 423.022 167.811 423.195 168.195 423.357C168.579 423.52 169.032 423.676 169.553 423.826C170.34 424.061 171.027 424.321 171.613 424.607C172.199 424.887 172.688 425.206 173.078 425.564C173.469 425.923 173.762 426.329 173.957 426.785C174.152 427.234 174.25 427.745 174.25 428.318C174.25 428.917 174.13 429.458 173.889 429.939C173.648 430.415 173.303 430.822 172.854 431.16C172.411 431.492 171.877 431.749 171.252 431.932C170.633 432.107 169.943 432.195 169.182 432.195C168.498 432.195 167.824 432.104 167.16 431.922C166.503 431.74 165.904 431.463 165.363 431.092C164.823 430.714 164.393 430.245 164.074 429.686C163.755 429.119 163.596 428.458 163.596 427.703H166.047C166.047 428.165 166.125 428.559 166.281 428.885C166.444 429.21 166.669 429.477 166.955 429.686C167.242 429.887 167.574 430.037 167.951 430.135C168.335 430.232 168.745 430.281 169.182 430.281C169.755 430.281 170.233 430.2 170.617 430.037C171.008 429.874 171.301 429.646 171.496 429.354C171.691 429.061 171.789 428.722 171.789 428.338Z" fill="#002C29"/>
<path d="M101.004 269.574H97.3809L97.3613 267.787H100.525C101.059 267.787 101.512 267.709 101.883 267.553C102.26 267.39 102.547 267.159 102.742 266.859C102.938 266.553 103.035 266.186 103.035 265.756C103.035 265.281 102.944 264.893 102.762 264.594C102.579 264.294 102.299 264.076 101.922 263.939C101.551 263.803 101.076 263.734 100.496 263.734H98.123V276H95.6719V261.781H100.496C101.277 261.781 101.974 261.856 102.586 262.006C103.204 262.156 103.729 262.39 104.158 262.709C104.594 263.021 104.923 263.419 105.145 263.9C105.372 264.382 105.486 264.955 105.486 265.619C105.486 266.205 105.346 266.742 105.066 267.23C104.786 267.712 104.373 268.106 103.826 268.412C103.279 268.718 102.599 268.9 101.785 268.959L101.004 269.574ZM100.896 276H96.6094L97.7129 274.057H100.896C101.45 274.057 101.912 273.965 102.283 273.783C102.654 273.594 102.931 273.337 103.113 273.012C103.302 272.68 103.396 272.292 103.396 271.85C103.396 271.387 103.315 270.987 103.152 270.648C102.99 270.303 102.732 270.04 102.381 269.857C102.029 269.669 101.57 269.574 101.004 269.574H98.25L98.2695 267.787H101.854L102.41 268.461C103.191 268.487 103.833 268.66 104.334 268.979C104.842 269.298 105.219 269.711 105.467 270.219C105.714 270.727 105.838 271.273 105.838 271.859C105.838 272.764 105.639 273.523 105.242 274.135C104.852 274.747 104.288 275.212 103.553 275.531C102.817 275.844 101.932 276 100.896 276ZM110.926 261.781V276H108.475V261.781H110.926ZM122.879 274.057V276H115.74V274.057H122.879ZM116.424 261.781V276H113.973V261.781H116.424ZM133.68 274.057V276H126.541V274.057H133.68ZM127.225 261.781V276H124.773V261.781H127.225ZM145.955 270.697H142.254V268.754H145.955C146.6 268.754 147.12 268.65 147.518 268.441C147.915 268.233 148.204 267.947 148.387 267.582C148.576 267.211 148.67 266.788 148.67 266.312C148.67 265.863 148.576 265.443 148.387 265.053C148.204 264.656 147.915 264.337 147.518 264.096C147.12 263.855 146.6 263.734 145.955 263.734H143.006V276H140.555V261.781H145.955C147.055 261.781 147.99 261.977 148.758 262.367C149.533 262.751 150.122 263.285 150.525 263.969C150.929 264.646 151.131 265.421 151.131 266.293C151.131 267.211 150.929 267.999 150.525 268.656C150.122 269.314 149.533 269.818 148.758 270.17C147.99 270.521 147.055 270.697 145.955 270.697ZM157.381 263.676L153.133 276H150.564L155.916 261.781H157.557L157.381 263.676ZM160.936 276L156.678 263.676L156.492 261.781H158.143L163.514 276H160.936ZM160.73 270.727V272.67H152.996V270.727H160.73ZM165.35 261.781L168.65 268.568L171.951 261.781H174.666L169.881 270.766V276H167.41V270.766L162.625 261.781H165.35Z" fill="#002C29"/>
<path d="M199.885 93.7812H202.072L206.184 104.748L210.285 93.7812H212.473L207.043 108H205.305L199.885 93.7812ZM198.889 93.7812H200.969L201.33 103.273V108H198.889V93.7812ZM211.389 93.7812H213.479V108H211.027V103.273L211.389 93.7812ZM222.102 95.6758L217.854 108H215.285L220.637 93.7812H222.277L222.102 95.6758ZM225.656 108L221.398 95.6758L221.213 93.7812H222.863L228.234 108H225.656ZM225.451 102.727V104.67H217.717V102.727H225.451ZM229.826 93.7812H234.855C235.936 93.7812 236.857 93.944 237.619 94.2695C238.381 94.5951 238.964 95.0768 239.367 95.7148C239.777 96.3464 239.982 97.1276 239.982 98.0586C239.982 98.7682 239.852 99.3932 239.592 99.9336C239.331 100.474 238.964 100.93 238.488 101.301C238.013 101.665 237.447 101.949 236.789 102.15L236.047 102.512H231.525L231.506 100.568H234.895C235.48 100.568 235.969 100.464 236.359 100.256C236.75 100.048 237.043 99.7643 237.238 99.4062C237.44 99.0417 237.541 98.6315 237.541 98.1758C237.541 97.681 237.443 97.2513 237.248 96.8867C237.059 96.5156 236.766 96.2324 236.369 96.0371C235.972 95.8353 235.467 95.7344 234.855 95.7344H232.277V108H229.826V93.7812ZM237.941 108L234.602 101.613L237.17 101.604L240.559 107.873V108H237.941ZM244.875 93.7812V108H242.424V93.7812H244.875ZM253.42 93.7812L247.658 100.627L244.377 104.104L243.947 101.672L246.291 98.7812L250.432 93.7812H253.42ZM250.783 108L246.105 101.262L247.795 99.5918L253.693 108H250.783ZM264.367 106.057V108H256.818V106.057H264.367ZM257.512 93.7812V108H255.061V93.7812H257.512ZM263.381 99.7188V101.633H256.818V99.7188H263.381ZM264.318 93.7812V95.7344H256.818V93.7812H264.318ZM272.414 93.7812V108H269.982V93.7812H272.414ZM276.877 93.7812V95.7344H265.559V93.7812H276.877ZM284.152 102.697H280.451V100.754H284.152C284.797 100.754 285.318 100.65 285.715 100.441C286.112 100.233 286.402 99.9466 286.584 99.582C286.773 99.2109 286.867 98.7878 286.867 98.3125C286.867 97.8633 286.773 97.4434 286.584 97.0527C286.402 96.6556 286.112 96.3366 285.715 96.0957C285.318 95.8548 284.797 95.7344 284.152 95.7344H281.203V108H278.752V93.7812H284.152C285.253 93.7812 286.187 93.9766 286.955 94.3672C287.73 94.7513 288.319 95.2852 288.723 95.9688C289.126 96.6458 289.328 97.4206 289.328 98.293C289.328 99.2109 289.126 99.9987 288.723 100.656C288.319 101.314 287.73 101.818 286.955 102.17C286.187 102.521 285.253 102.697 284.152 102.697ZM300.432 106.057V108H293.293V106.057H300.432ZM293.977 93.7812V108H291.525V93.7812H293.977ZM308.059 95.6758L303.811 108H301.242L306.594 93.7812H308.234L308.059 95.6758ZM311.613 108L307.355 95.6758L307.17 93.7812H308.82L314.191 108H311.613ZM311.408 102.727V104.67H303.674V102.727H311.408ZM324.025 103.371H326.467C326.389 104.302 326.128 105.132 325.686 105.861C325.243 106.584 324.621 107.154 323.82 107.57C323.02 107.987 322.046 108.195 320.9 108.195C320.021 108.195 319.23 108.039 318.527 107.727C317.824 107.408 317.222 106.958 316.721 106.379C316.219 105.793 315.835 105.087 315.568 104.26C315.308 103.433 315.178 102.508 315.178 101.486V100.305C315.178 99.2826 315.311 98.3581 315.578 97.5312C315.852 96.7044 316.242 95.998 316.75 95.4121C317.258 94.8197 317.867 94.3672 318.576 94.0547C319.292 93.7422 320.096 93.5859 320.988 93.5859C322.121 93.5859 323.078 93.7943 323.859 94.2109C324.641 94.6276 325.246 95.2038 325.676 95.9395C326.112 96.6751 326.379 97.5182 326.477 98.4688H324.035C323.97 97.8568 323.827 97.3327 323.605 96.8965C323.391 96.4603 323.072 96.1283 322.648 95.9004C322.225 95.666 321.672 95.5488 320.988 95.5488C320.428 95.5488 319.94 95.653 319.523 95.8613C319.107 96.0697 318.758 96.3757 318.479 96.7793C318.199 97.1829 317.987 97.681 317.844 98.2734C317.707 98.8594 317.639 99.5299 317.639 100.285V101.486C317.639 102.202 317.701 102.854 317.824 103.439C317.954 104.019 318.15 104.517 318.41 104.934C318.677 105.35 319.016 105.673 319.426 105.9C319.836 106.128 320.327 106.242 320.9 106.242C321.597 106.242 322.16 106.132 322.59 105.91C323.026 105.689 323.355 105.367 323.576 104.943C323.804 104.514 323.954 103.99 324.025 103.371ZM338 106.057V108H330.451V106.057H338ZM331.145 93.7812V108H328.693V93.7812H331.145ZM337.014 99.7188V101.633H330.451V99.7188H337.014ZM337.951 93.7812V95.7344H330.451V93.7812H337.951Z" fill="#002C29"/>
<path d="M519.176 54.1055L522.916 57.0742L521.324 58.4707L517.652 55.5312L519.176 54.1055ZM522.945 48.5V49.2812C522.945 50.3555 522.805 51.319 522.525 52.1719C522.245 53.0247 521.845 53.7507 521.324 54.3496C520.803 54.9486 520.182 55.4076 519.459 55.7266C518.736 56.0391 517.936 56.1953 517.057 56.1953C516.184 56.1953 515.387 56.0391 514.664 55.7266C513.948 55.4076 513.326 54.9486 512.799 54.3496C512.271 53.7507 511.861 53.0247 511.568 52.1719C511.282 51.319 511.139 50.3555 511.139 49.2812V48.5C511.139 47.4258 511.282 46.4655 511.568 45.6191C511.855 44.7663 512.258 44.0404 512.779 43.4414C513.307 42.8359 513.928 42.377 514.645 42.0645C515.367 41.7454 516.165 41.5859 517.037 41.5859C517.916 41.5859 518.717 41.7454 519.439 42.0645C520.169 42.377 520.794 42.8359 521.314 43.4414C521.835 44.0404 522.236 44.7663 522.516 45.6191C522.802 46.4655 522.945 47.4258 522.945 48.5ZM520.484 49.2812V48.4805C520.484 47.6862 520.406 46.9863 520.25 46.3809C520.1 45.7689 519.876 45.2578 519.576 44.8477C519.283 44.431 518.922 44.1185 518.492 43.9102C518.069 43.6953 517.584 43.5879 517.037 43.5879C516.503 43.5879 516.025 43.6953 515.602 43.9102C515.178 44.1185 514.817 44.431 514.518 44.8477C514.218 45.2578 513.99 45.7689 513.834 46.3809C513.678 46.9863 513.6 47.6862 513.6 48.4805V49.2812C513.6 50.0755 513.678 50.7786 513.834 51.3906C513.99 52.0026 514.218 52.5202 514.518 52.9434C514.824 53.36 515.188 53.6758 515.611 53.8906C516.041 54.099 516.523 54.2031 517.057 54.2031C517.604 54.2031 518.089 54.099 518.512 53.8906C518.935 53.6758 519.293 53.36 519.586 52.9434C519.879 52.5202 520.1 52.0026 520.25 51.3906C520.406 50.7786 520.484 50.0755 520.484 49.2812ZM525.436 41.7812H530.465C531.546 41.7812 532.467 41.944 533.229 42.2695C533.99 42.5951 534.573 43.0768 534.977 43.7148C535.387 44.3464 535.592 45.1276 535.592 46.0586C535.592 46.7682 535.462 47.3932 535.201 47.9336C534.941 48.474 534.573 48.9297 534.098 49.3008C533.622 49.6654 533.056 49.9486 532.398 50.1504L531.656 50.5117H527.135L527.115 48.5684H530.504C531.09 48.5684 531.578 48.4642 531.969 48.2559C532.359 48.0475 532.652 47.7643 532.848 47.4062C533.049 47.0417 533.15 46.6315 533.15 46.1758C533.15 45.681 533.053 45.2513 532.857 44.8867C532.669 44.5156 532.376 44.2324 531.979 44.0371C531.581 43.8353 531.077 43.7344 530.465 43.7344H527.887V56H525.436V41.7812ZM533.551 56L530.211 49.6133L532.779 49.6035L536.168 55.873V56H533.551ZM551.412 51.3711H553.854C553.775 52.3021 553.515 53.1322 553.072 53.8613C552.63 54.584 552.008 55.1536 551.207 55.5703C550.406 55.987 549.433 56.1953 548.287 56.1953C547.408 56.1953 546.617 56.0391 545.914 55.7266C545.211 55.4076 544.609 54.9583 544.107 54.3789C543.606 53.793 543.222 53.0866 542.955 52.2598C542.695 51.4329 542.564 50.5085 542.564 49.4863V48.3047C542.564 47.2826 542.698 46.3581 542.965 45.5312C543.238 44.7044 543.629 43.998 544.137 43.4121C544.645 42.8197 545.253 42.3672 545.963 42.0547C546.679 41.7422 547.483 41.5859 548.375 41.5859C549.508 41.5859 550.465 41.7943 551.246 42.2109C552.027 42.6276 552.633 43.2038 553.062 43.9395C553.499 44.6751 553.766 45.5182 553.863 46.4688H551.422C551.357 45.8568 551.214 45.3327 550.992 44.8965C550.777 44.4603 550.458 44.1283 550.035 43.9004C549.612 43.666 549.059 43.5488 548.375 43.5488C547.815 43.5488 547.327 43.653 546.91 43.8613C546.493 44.0697 546.145 44.3757 545.865 44.7793C545.585 45.1829 545.374 45.681 545.23 46.2734C545.094 46.8594 545.025 47.5299 545.025 48.2852V49.4863C545.025 50.2025 545.087 50.8535 545.211 51.4395C545.341 52.0189 545.536 52.5169 545.797 52.9336C546.064 53.3503 546.402 53.6725 546.812 53.9004C547.223 54.1283 547.714 54.2422 548.287 54.2422C548.984 54.2422 549.547 54.1315 549.977 53.9102C550.413 53.6888 550.742 53.3665 550.963 52.9434C551.191 52.5137 551.34 51.9896 551.412 51.3711ZM567.418 48.5V49.2812C567.418 50.3555 567.278 51.319 566.998 52.1719C566.718 53.0247 566.318 53.7507 565.797 54.3496C565.283 54.9486 564.664 55.4076 563.941 55.7266C563.219 56.0391 562.418 56.1953 561.539 56.1953C560.667 56.1953 559.869 56.0391 559.146 55.7266C558.43 55.4076 557.809 54.9486 557.281 54.3496C556.754 53.7507 556.344 53.0247 556.051 52.1719C555.764 51.319 555.621 50.3555 555.621 49.2812V48.5C555.621 47.4258 555.764 46.4655 556.051 45.6191C556.337 44.7663 556.741 44.0404 557.262 43.4414C557.789 42.8359 558.411 42.377 559.127 42.0645C559.85 41.7454 560.647 41.5859 561.52 41.5859C562.398 41.5859 563.199 41.7454 563.922 42.0645C564.645 42.377 565.266 42.8359 565.787 43.4414C566.308 44.0404 566.708 44.7663 566.988 45.6191C567.275 46.4655 567.418 47.4258 567.418 48.5ZM564.967 49.2812V48.4805C564.967 47.6862 564.889 46.9863 564.732 46.3809C564.583 45.7689 564.358 45.2578 564.059 44.8477C563.766 44.431 563.404 44.1185 562.975 43.9102C562.545 43.6953 562.06 43.5879 561.52 43.5879C560.979 43.5879 560.497 43.6953 560.074 43.9102C559.651 44.1185 559.29 44.431 558.99 44.8477C558.697 45.2578 558.473 45.7689 558.316 46.3809C558.16 46.9863 558.082 47.6862 558.082 48.4805V49.2812C558.082 50.0755 558.16 50.7786 558.316 51.3906C558.473 52.0026 558.701 52.5202 559 52.9434C559.306 53.36 559.671 53.6758 560.094 53.8906C560.517 54.099 560.999 54.2031 561.539 54.2031C562.086 54.2031 562.571 54.099 562.994 53.8906C563.417 53.6758 563.775 53.36 564.068 52.9434C564.361 52.5202 564.583 52.0026 564.732 51.3906C564.889 50.7786 564.967 50.0755 564.967 49.2812ZM574 56H570.963L570.982 54.0566H574C574.879 54.0566 575.615 53.8646 576.207 53.4805C576.806 53.0964 577.255 52.5462 577.555 51.8301C577.861 51.1139 578.014 50.2611 578.014 49.2715V48.5C578.014 47.7318 577.926 47.0514 577.75 46.459C577.581 45.8665 577.327 45.3685 576.988 44.9648C576.656 44.5612 576.246 44.2552 575.758 44.0469C575.276 43.8385 574.719 43.7344 574.088 43.7344H570.904V41.7812H574.088C575.032 41.7812 575.895 41.9408 576.676 42.2598C577.457 42.5723 578.131 43.0247 578.697 43.6172C579.27 44.2096 579.71 44.9193 580.016 45.7461C580.322 46.5729 580.475 47.4974 580.475 48.5195V49.2715C580.475 50.2936 580.322 51.2181 580.016 52.0449C579.71 52.8717 579.27 53.5814 578.697 54.1738C578.124 54.7598 577.441 55.2122 576.646 55.5312C575.859 55.8438 574.977 56 574 56ZM572.32 41.7812V56H569.869V41.7812H572.32ZM592.242 54.0566V56H584.693V54.0566H592.242ZM585.387 41.7812V56H582.936V41.7812H585.387ZM591.256 47.7188V49.6328H584.693V47.7188H591.256ZM592.193 41.7812V43.7344H584.693V41.7812H592.193Z" fill="#002C29"/>
<path d="M942.139 137.807L944.971 126.781H946.455L946.289 129.623L943.262 141H941.719L942.139 137.807ZM940.02 126.781L942.314 137.719L942.52 141H940.879L937.588 126.781H940.02ZM949.668 137.689L951.934 126.781H954.375L951.084 141H949.443L949.668 137.689ZM947.031 126.781L949.834 137.836L950.244 141H948.701L945.723 129.623L945.566 126.781H947.031ZM961.299 128.676L957.051 141H954.482L959.834 126.781H961.475L961.299 128.676ZM964.854 141L960.596 128.676L960.41 126.781H962.061L967.432 141H964.854ZM964.648 135.727V137.67H956.914V135.727H964.648ZM977.93 139.057V141H970.791V139.057H977.93ZM971.475 126.781V141H969.023V126.781H971.475ZM988.73 139.057V141H981.592V139.057H988.73ZM982.275 126.781V141H979.824V126.781H982.275ZM999.932 139.057V141H992.383V139.057H999.932ZM993.076 126.781V141H990.625V126.781H993.076ZM998.945 132.719V134.633H992.383V132.719H998.945ZM999.883 126.781V128.734H992.383V126.781H999.883ZM1007.98 126.781V141H1005.55V126.781H1007.98ZM1012.44 126.781V128.734H1001.12V126.781H1012.44Z" fill="#002C29"/>
<path d="M1145.91 248.781H1150.94C1152.02 248.781 1152.94 248.944 1153.7 249.27C1154.46 249.595 1155.04 250.077 1155.45 250.715C1155.86 251.346 1156.06 252.128 1156.06 253.059C1156.06 253.768 1155.93 254.393 1155.67 254.934C1155.41 255.474 1155.04 255.93 1154.57 256.301C1154.09 256.665 1153.53 256.949 1152.87 257.15L1152.13 257.512H1147.61L1147.59 255.568H1150.97C1151.56 255.568 1152.05 255.464 1152.44 255.256C1152.83 255.048 1153.12 254.764 1153.32 254.406C1153.52 254.042 1153.62 253.632 1153.62 253.176C1153.62 252.681 1153.52 252.251 1153.33 251.887C1153.14 251.516 1152.85 251.232 1152.45 251.037C1152.05 250.835 1151.55 250.734 1150.94 250.734H1148.36V263H1145.91V248.781ZM1154.02 263L1150.68 256.613L1153.25 256.604L1156.64 262.873V263H1154.02ZM1167.81 261.057V263H1160.26V261.057H1167.81ZM1160.96 248.781V263H1158.5V248.781H1160.96ZM1166.82 254.719V256.633H1160.26V254.719H1166.82ZM1167.76 248.781V250.734H1160.26V248.781H1167.76ZM1175.86 248.781V263H1173.43V248.781H1175.86ZM1180.32 248.781V250.734H1169V248.781H1180.32ZM1186.79 250.676L1182.55 263H1179.98L1185.33 248.781H1186.97L1186.79 250.676ZM1190.35 263L1186.09 250.676L1185.91 248.781H1187.56L1192.93 263H1190.35ZM1190.14 257.727V259.67H1182.41V257.727H1190.14ZM1197.14 248.781V263H1194.69V248.781H1197.14ZM1209.09 261.057V263H1201.95V261.057H1209.09ZM1202.63 248.781V263H1200.18V248.781H1202.63Z" fill="#002C29"/>
<path d="M1197.13 423.057V425H1189.58V423.057H1197.13ZM1190.28 410.781V425H1187.82V410.781H1190.28ZM1196.14 416.719V418.633H1189.58V416.719H1196.14ZM1197.08 410.781V412.734H1189.58V410.781H1197.08ZM1203.63 417.988V419.863H1198.47V417.988H1203.63ZM1214.33 420.371H1216.77C1216.69 421.302 1216.43 422.132 1215.99 422.861C1215.55 423.584 1214.92 424.154 1214.12 424.57C1213.32 424.987 1212.35 425.195 1211.2 425.195C1210.32 425.195 1209.53 425.039 1208.83 424.727C1208.13 424.408 1207.52 423.958 1207.02 423.379C1206.52 422.793 1206.14 422.087 1205.87 421.26C1205.61 420.433 1205.48 419.508 1205.48 418.486V417.305C1205.48 416.283 1205.61 415.358 1205.88 414.531C1206.15 413.704 1206.54 412.998 1207.05 412.412C1207.56 411.82 1208.17 411.367 1208.88 411.055C1209.6 410.742 1210.4 410.586 1211.29 410.586C1212.42 410.586 1213.38 410.794 1214.16 411.211C1214.94 411.628 1215.55 412.204 1215.98 412.939C1216.41 413.675 1216.68 414.518 1216.78 415.469H1214.34C1214.27 414.857 1214.13 414.333 1213.91 413.896C1213.69 413.46 1213.37 413.128 1212.95 412.9C1212.53 412.666 1211.97 412.549 1211.29 412.549C1210.73 412.549 1210.24 412.653 1209.83 412.861C1209.41 413.07 1209.06 413.376 1208.78 413.779C1208.5 414.183 1208.29 414.681 1208.15 415.273C1208.01 415.859 1207.94 416.53 1207.94 417.285V418.486C1207.94 419.202 1208 419.854 1208.13 420.439C1208.26 421.019 1208.45 421.517 1208.71 421.934C1208.98 422.35 1209.32 422.673 1209.73 422.9C1210.14 423.128 1210.63 423.242 1211.2 423.242C1211.9 423.242 1212.46 423.132 1212.89 422.91C1213.33 422.689 1213.66 422.367 1213.88 421.943C1214.11 421.514 1214.26 420.99 1214.33 420.371ZM1230.33 417.5V418.281C1230.33 419.355 1230.19 420.319 1229.91 421.172C1229.63 422.025 1229.23 422.751 1228.71 423.35C1228.2 423.949 1227.58 424.408 1226.86 424.727C1226.13 425.039 1225.33 425.195 1224.46 425.195C1223.58 425.195 1222.79 425.039 1222.06 424.727C1221.35 424.408 1220.72 423.949 1220.2 423.35C1219.67 422.751 1219.26 422.025 1218.97 421.172C1218.68 420.319 1218.54 419.355 1218.54 418.281V417.5C1218.54 416.426 1218.68 415.465 1218.97 414.619C1219.25 413.766 1219.66 413.04 1220.18 412.441C1220.71 411.836 1221.33 411.377 1222.04 411.064C1222.77 410.745 1223.56 410.586 1224.44 410.586C1225.31 410.586 1226.12 410.745 1226.84 411.064C1227.56 411.377 1228.18 411.836 1228.7 412.441C1229.22 413.04 1229.62 413.766 1229.9 414.619C1230.19 415.465 1230.33 416.426 1230.33 417.5ZM1227.88 418.281V417.48C1227.88 416.686 1227.8 415.986 1227.65 415.381C1227.5 414.769 1227.27 414.258 1226.97 413.848C1226.68 413.431 1226.32 413.118 1225.89 412.91C1225.46 412.695 1224.98 412.588 1224.44 412.588C1223.9 412.588 1223.41 412.695 1222.99 412.91C1222.57 413.118 1222.21 413.431 1221.91 413.848C1221.61 414.258 1221.39 414.769 1221.23 415.381C1221.08 415.986 1221 416.686 1221 417.48V418.281C1221 419.076 1221.08 419.779 1221.23 420.391C1221.39 421.003 1221.62 421.52 1221.92 421.943C1222.22 422.36 1222.59 422.676 1223.01 422.891C1223.43 423.099 1223.91 423.203 1224.46 423.203C1225 423.203 1225.49 423.099 1225.91 422.891C1226.33 422.676 1226.69 422.36 1226.98 421.943C1227.28 421.52 1227.5 421.003 1227.65 420.391C1227.8 419.779 1227.88 419.076 1227.88 418.281ZM1233.78 410.781H1235.97L1240.08 421.748L1244.18 410.781H1246.37L1240.94 425H1239.2L1233.78 410.781ZM1232.79 410.781H1234.87L1235.23 420.273V425H1232.79V410.781ZM1245.29 410.781H1247.38V425H1244.92V420.273L1245.29 410.781ZM1251.28 410.781H1253.47L1257.58 421.748L1261.68 410.781H1263.87L1258.44 425H1256.7L1251.28 410.781ZM1250.29 410.781H1252.37L1252.73 420.273V425H1250.29V410.781ZM1262.79 410.781H1264.88V425H1262.42V420.273L1262.79 410.781ZM1277.09 423.057V425H1269.54V423.057H1277.09ZM1270.24 410.781V425H1267.79V410.781H1270.24ZM1276.11 416.719V418.633H1269.54V416.719H1276.11ZM1277.04 410.781V412.734H1269.54V410.781H1277.04ZM1279.09 410.781H1284.12C1285.2 410.781 1286.12 410.944 1286.89 411.27C1287.65 411.595 1288.23 412.077 1288.63 412.715C1289.04 413.346 1289.25 414.128 1289.25 415.059C1289.25 415.768 1289.12 416.393 1288.86 416.934C1288.6 417.474 1288.23 417.93 1287.76 418.301C1287.28 418.665 1286.71 418.949 1286.06 419.15L1285.31 419.512H1280.79L1280.77 417.568H1284.16C1284.75 417.568 1285.24 417.464 1285.63 417.256C1286.02 417.048 1286.31 416.764 1286.51 416.406C1286.71 416.042 1286.81 415.632 1286.81 415.176C1286.81 414.681 1286.71 414.251 1286.52 413.887C1286.33 413.516 1286.03 413.232 1285.64 413.037C1285.24 412.835 1284.74 412.734 1284.12 412.734H1281.54V425H1279.09V410.781ZM1287.21 425L1283.87 418.613L1286.44 418.604L1289.83 424.873V425H1287.21ZM1300.09 420.371H1302.53C1302.45 421.302 1302.19 422.132 1301.75 422.861C1301.31 423.584 1300.69 424.154 1299.88 424.57C1299.08 424.987 1298.11 425.195 1296.96 425.195C1296.09 425.195 1295.29 425.039 1294.59 424.727C1293.89 424.408 1293.29 423.958 1292.79 423.379C1292.28 422.793 1291.9 422.087 1291.63 421.26C1291.37 420.433 1291.24 419.508 1291.24 418.486V417.305C1291.24 416.283 1291.38 415.358 1291.64 414.531C1291.92 413.704 1292.31 412.998 1292.81 412.412C1293.32 411.82 1293.93 411.367 1294.64 411.055C1295.36 410.742 1296.16 410.586 1297.05 410.586C1298.19 410.586 1299.14 410.794 1299.92 411.211C1300.71 411.628 1301.31 412.204 1301.74 412.939C1302.18 413.675 1302.44 414.518 1302.54 415.469H1300.1C1300.03 414.857 1299.89 414.333 1299.67 413.896C1299.46 413.46 1299.14 413.128 1298.71 412.9C1298.29 412.666 1297.74 412.549 1297.05 412.549C1296.49 412.549 1296 412.653 1295.59 412.861C1295.17 413.07 1294.82 413.376 1294.54 413.779C1294.26 414.183 1294.05 414.681 1293.91 415.273C1293.77 415.859 1293.7 416.53 1293.7 417.285V418.486C1293.7 419.202 1293.76 419.854 1293.89 420.439C1294.02 421.019 1294.21 421.517 1294.47 421.934C1294.74 422.35 1295.08 422.673 1295.49 422.9C1295.9 423.128 1296.39 423.242 1296.96 423.242C1297.66 423.242 1298.22 423.132 1298.65 422.91C1299.09 422.689 1299.42 422.367 1299.64 421.943C1299.87 421.514 1300.02 420.99 1300.09 420.371ZM1314.06 423.057V425H1306.52V423.057H1314.06ZM1307.21 410.781V425H1304.76V410.781H1307.21ZM1313.08 416.719V418.633H1306.52V416.719H1313.08ZM1314.02 410.781V412.734H1306.52V410.781H1314.02Z" fill="#002C29"/>
<path d="M317.734 373.182C291.362 399.553 270.443 430.861 256.171 465.318C241.898 499.774 234.552 536.705 234.552 574H424.552L430.79 573.936L518.5 573.036L317.734 373.182Z" fill="#F0B345"/>
<path d="M417.556 217.312C371.24 235.171 328.895 261.978 292.94 296.202C256.984 330.427 228.122 371.398 208 416.776L553.552 570L417.556 217.312Z" fill="#024944"/>
<path d="M592.848 166.039C544.002 157.201 493.893 158.071 445.382 168.599C396.872 179.128 350.91 199.107 310.121 227.398L525.552 538L592.848 166.039Z" fill="#F0B345"/>
<path d="M803.938 184.017C758.24 153.368 706.953 132.021 653.005 121.193C599.057 110.365 543.505 110.269 489.52 120.91L570.552 532L803.938 184.017Z" fill="#024944"/>
<path d="M958.51 364.108C940.139 312.242 911.732 264.501 874.911 223.613C838.09 182.725 793.576 149.49 743.911 125.805L563.552 504L958.51 364.108Z" fill="#F0B345"/>
<path d="M1091.55 504C1091.55 448.976 1080.71 394.491 1059.66 343.656C1038.6 292.82 1007.74 246.63 968.83 207.722L672.552 504L1091.55 504Z" fill="#024944"/>
<path d="M1170.55 570C1170.55 484.352 1150.5 399.897 1111.99 323.41L623.052 570H814.286L1170.55 570Z" fill="#F0B345"/>
<path d="M819.552 524.5C819.552 540.159 817.73 555.393 814.286 570C813.975 571.317 813.651 572.629 813.315 573.936C791.369 659.088 714.057 722 622.052 722C530.047 722 452.736 659.088 430.79 573.936C426.718 558.136 424.552 541.571 424.552 524.5C424.552 415.424 512.976 327 622.052 327C731.129 327 819.552 415.424 819.552 524.5Z" fill="url(#paint0_radial_7497_1858)"/>
<circle cx="195" cy="491" r="37" fill="#F0B345"/>
<path d="M198.68 476.504V505H193.055V482.988L186.297 485.137V480.703L198.074 476.504H198.68Z" fill="white"/>
<circle cx="231" cy="278" r="37" fill="#F0B345"/>
<path d="M240.422 287.605V292H220.969V288.25L230.168 278.387C231.092 277.358 231.822 276.453 232.355 275.672C232.889 274.878 233.273 274.168 233.508 273.543C233.755 272.905 233.879 272.299 233.879 271.727C233.879 270.867 233.736 270.132 233.449 269.52C233.163 268.895 232.74 268.413 232.18 268.074C231.633 267.736 230.956 267.566 230.148 267.566C229.289 267.566 228.547 267.775 227.922 268.191C227.31 268.608 226.841 269.188 226.516 269.93C226.203 270.672 226.047 271.512 226.047 272.449H220.402C220.402 270.757 220.806 269.207 221.613 267.801C222.421 266.382 223.56 265.255 225.031 264.422C226.503 263.576 228.247 263.152 230.266 263.152C232.258 263.152 233.938 263.478 235.305 264.129C236.685 264.767 237.727 265.691 238.43 266.902C239.146 268.1 239.504 269.533 239.504 271.199C239.504 272.137 239.354 273.055 239.055 273.953C238.755 274.839 238.326 275.724 237.766 276.609C237.219 277.482 236.555 278.367 235.773 279.266C234.992 280.164 234.126 281.095 233.176 282.059L228.234 287.605H240.422Z" fill="white"/>
<circle cx="401" cy="126" r="37" fill="#F0B345"/>
<path d="M396.73 123.34H399.738C400.702 123.34 401.496 123.177 402.121 122.852C402.746 122.513 403.208 122.044 403.508 121.445C403.82 120.833 403.977 120.124 403.977 119.316C403.977 118.587 403.833 117.943 403.547 117.383C403.273 116.81 402.85 116.367 402.277 116.055C401.704 115.729 400.982 115.566 400.109 115.566C399.419 115.566 398.781 115.703 398.195 115.977C397.609 116.25 397.141 116.634 396.789 117.129C396.438 117.624 396.262 118.223 396.262 118.926H390.617C390.617 117.363 391.034 116.003 391.867 114.844C392.714 113.685 393.846 112.78 395.266 112.129C396.685 111.478 398.247 111.152 399.953 111.152C401.88 111.152 403.566 111.465 405.012 112.09C406.457 112.702 407.583 113.607 408.391 114.805C409.198 116.003 409.602 117.487 409.602 119.258C409.602 120.156 409.393 121.029 408.977 121.875C408.56 122.708 407.961 123.464 407.18 124.141C406.411 124.805 405.474 125.339 404.367 125.742C403.26 126.133 402.017 126.328 400.637 126.328H396.73V123.34ZM396.73 127.617V124.707H400.637C402.186 124.707 403.547 124.883 404.719 125.234C405.891 125.586 406.874 126.094 407.668 126.758C408.462 127.409 409.061 128.184 409.465 129.082C409.868 129.967 410.07 130.951 410.07 132.031C410.07 133.359 409.816 134.544 409.309 135.586C408.801 136.615 408.085 137.487 407.16 138.203C406.249 138.919 405.181 139.466 403.957 139.844C402.733 140.208 401.398 140.391 399.953 140.391C398.755 140.391 397.577 140.228 396.418 139.902C395.272 139.564 394.23 139.062 393.293 138.398C392.368 137.721 391.626 136.875 391.066 135.859C390.52 134.831 390.246 133.613 390.246 132.207H395.891C395.891 132.936 396.073 133.587 396.438 134.16C396.802 134.733 397.303 135.182 397.941 135.508C398.592 135.833 399.315 135.996 400.109 135.996C401.008 135.996 401.776 135.833 402.414 135.508C403.065 135.169 403.56 134.701 403.898 134.102C404.25 133.49 404.426 132.78 404.426 131.973C404.426 130.931 404.237 130.098 403.859 129.473C403.482 128.835 402.941 128.366 402.238 128.066C401.535 127.767 400.702 127.617 399.738 127.617H396.73Z" fill="white"/>
<circle cx="646" cy="73" r="37" fill="#F0B345"/>
<path d="M655.891 76.375V80.7891H635.402L635.129 77.3711L646.984 58.5625H651.457L646.613 66.668L640.715 76.375H655.891ZM652.668 58.5625V87H647.043V58.5625H652.668Z" fill="white"/>
<circle cx="881" cy="151" r="37" fill="#F0B345"/>
<path d="M876.262 152.051L871.77 150.977L873.391 136.562H889.367V141.113H878.02L877.316 147.422C877.694 147.201 878.267 146.966 879.035 146.719C879.803 146.458 880.663 146.328 881.613 146.328C882.993 146.328 884.217 146.543 885.285 146.973C886.353 147.402 887.258 148.027 888 148.848C888.755 149.668 889.328 150.671 889.719 151.855C890.109 153.04 890.305 154.382 890.305 155.879C890.305 157.142 890.109 158.346 889.719 159.492C889.328 160.625 888.736 161.641 887.941 162.539C887.147 163.424 886.151 164.121 884.953 164.629C883.755 165.137 882.336 165.391 880.695 165.391C879.471 165.391 878.286 165.208 877.141 164.844C876.008 164.479 874.986 163.939 874.074 163.223C873.176 162.507 872.453 161.641 871.906 160.625C871.372 159.596 871.092 158.424 871.066 157.109H876.652C876.73 157.917 876.939 158.613 877.277 159.199C877.629 159.772 878.091 160.215 878.664 160.527C879.237 160.84 879.908 160.996 880.676 160.996C881.392 160.996 882.004 160.859 882.512 160.586C883.02 160.312 883.43 159.935 883.742 159.453C884.055 158.958 884.283 158.385 884.426 157.734C884.582 157.07 884.66 156.354 884.66 155.586C884.66 154.818 884.569 154.121 884.387 153.496C884.204 152.871 883.924 152.331 883.547 151.875C883.169 151.419 882.688 151.068 882.102 150.82C881.529 150.573 880.858 150.449 880.09 150.449C879.048 150.449 878.241 150.612 877.668 150.938C877.108 151.263 876.639 151.634 876.262 152.051Z" fill="white"/>
<circle cx="1092" cy="281" r="37" fill="#F0B345"/>
<path d="M1096.48 266.27H1097.3V270.762H1096.97C1095.48 270.762 1094.16 270.983 1093 271.426C1091.85 271.868 1090.86 272.5 1090.05 273.32C1089.26 274.128 1088.65 275.104 1088.22 276.25C1087.8 277.396 1087.59 278.678 1087.59 280.098V284.824C1087.59 285.84 1087.69 286.738 1087.89 287.52C1088.1 288.288 1088.39 288.932 1088.77 289.453C1089.16 289.961 1089.61 290.345 1090.13 290.605C1090.65 290.853 1091.24 290.977 1091.89 290.977C1092.5 290.977 1093.06 290.846 1093.55 290.586C1094.06 290.326 1094.49 289.961 1094.84 289.492C1095.2 289.01 1095.48 288.451 1095.66 287.812C1095.86 287.161 1095.95 286.452 1095.95 285.684C1095.95 284.915 1095.86 284.206 1095.66 283.555C1095.48 282.904 1095.2 282.344 1094.84 281.875C1094.48 281.393 1094.03 281.022 1093.51 280.762C1092.99 280.501 1092.4 280.371 1091.75 280.371C1090.87 280.371 1090.09 280.579 1089.41 280.996C1088.75 281.4 1088.23 281.921 1087.85 282.559C1087.47 283.197 1087.27 283.867 1087.24 284.57L1085.54 283.477C1085.58 282.474 1085.79 281.523 1086.17 280.625C1086.56 279.727 1087.09 278.932 1087.77 278.242C1088.46 277.539 1089.29 276.992 1090.25 276.602C1091.21 276.198 1092.3 275.996 1093.51 275.996C1094.84 275.996 1096.01 276.25 1097.01 276.758C1098.02 277.266 1098.87 277.962 1099.55 278.848C1100.22 279.733 1100.73 280.755 1101.07 281.914C1101.41 283.073 1101.58 284.31 1101.58 285.625C1101.58 287.005 1101.35 288.288 1100.89 289.473C1100.45 290.658 1099.81 291.693 1098.96 292.578C1098.13 293.464 1097.12 294.154 1095.95 294.648C1094.78 295.143 1093.47 295.391 1092.01 295.391C1090.5 295.391 1089.12 295.117 1087.89 294.57C1086.66 294.01 1085.61 293.229 1084.72 292.227C1083.84 291.224 1083.15 290.033 1082.67 288.652C1082.2 287.272 1081.97 285.762 1081.97 284.121V281.934C1081.97 279.642 1082.3 277.546 1082.96 275.645C1083.64 273.73 1084.61 272.077 1085.88 270.684C1087.14 269.277 1088.66 268.19 1090.45 267.422C1092.23 266.654 1094.24 266.27 1096.48 266.27Z" fill="white"/>
<circle cx="1214" cy="496" r="37" fill="#F0B345"/>
<path d="M1223.29 481.562V484.59L1212.29 510H1206.35L1217.35 485.957H1203.19V481.562H1223.29Z" fill="white"/>
<path d="M281.717 532.669L303.634 510.751M307.831 523.885L304.073 527.643M300.866 530.81L299.194 532.483M282.835 542.581H310.168M281.425 532.572C280.789 531.935 280.284 531.18 279.94 530.349C279.595 529.518 279.418 528.627 279.418 527.727C279.418 526.827 279.595 525.936 279.94 525.105C280.284 524.273 280.789 523.518 281.425 522.882L293.886 510.421C294.522 509.785 295.277 509.28 296.109 508.936C296.94 508.591 297.831 508.414 298.731 508.414C299.63 508.414 300.521 508.591 301.353 508.936C302.184 509.28 302.939 509.785 303.576 510.421L311.577 518.423C312.214 519.059 312.719 519.815 313.063 520.646C313.407 521.477 313.585 522.368 313.585 523.268C313.585 524.168 313.407 525.059 313.063 525.89C312.719 526.721 312.214 527.477 311.577 528.113L299.117 540.573C298.481 541.21 297.725 541.715 296.894 542.059C296.063 542.403 295.172 542.581 294.272 542.581C293.372 542.581 292.481 542.403 291.65 542.059C290.819 541.715 290.063 541.21 289.427 540.573L281.425 532.572Z" stroke="white" stroke-width="3" stroke-linecap="round" stroke-linejoin="round"/>
<path d="M321.924 391.5C321.761 391.499 321.605 391.562 321.489 391.676C321.373 391.79 321.307 391.944 321.304 392.107V396.641C321.307 396.804 321.373 396.959 321.49 397.073C321.606 397.187 321.763 397.25 321.926 397.248H335.585C335.747 397.25 335.904 397.187 336.021 397.073C336.137 396.959 336.204 396.804 336.206 396.641V392.107C336.204 391.944 336.137 391.789 336.021 391.675C335.904 391.561 335.747 391.498 335.585 391.5H321.924ZM330.3 377.076C332.19 377.166 333.549 377.54 334.41 378.331C335.261 379.114 335.697 380.248 335.784 381.748V386.047C335.779 386.413 335.63 386.763 335.368 387.019C335.106 387.275 334.754 387.416 334.388 387.412C334.206 387.415 334.026 387.381 333.857 387.313C333.689 387.246 333.535 387.146 333.406 387.019C333.276 386.893 333.172 386.741 333.101 386.575C333.029 386.408 332.992 386.229 332.989 386.047L332.991 381.826C332.946 381.047 332.76 380.563 332.493 380.317C332.235 380.08 331.448 379.866 330.232 379.805H303.426C302.326 379.846 301.61 380.055 301.264 380.352C300.997 380.58 300.796 381.207 300.794 382.291L300.788 406.42C300.891 407.474 301.122 408.177 301.419 408.527C301.645 408.794 302.344 409.06 303.373 409.192H330.261C331.52 409.216 332.262 409.028 332.512 408.775C332.788 408.495 332.989 407.757 332.989 406.549V402.357C332.989 401.605 333.615 400.992 334.388 400.992C335.158 400.992 335.784 401.605 335.784 402.357V406.549C335.784 408.394 335.406 409.774 334.523 410.67C333.613 411.592 332.165 411.961 330.232 411.92L303.207 411.914C301.368 411.701 300.05 411.196 299.265 410.268C298.553 409.427 298.158 408.228 298 406.551V382.289C298.004 380.494 298.435 379.143 299.423 378.298C300.329 377.519 301.637 377.14 303.373 377.074L330.3 377.076ZM335.585 388.769C337.471 388.769 339 390.264 339 392.107V396.641C339 398.484 337.471 399.979 335.585 399.979H321.926C320.04 399.979 318.51 398.482 318.51 396.641V392.107C318.51 390.264 320.04 388.769 321.926 388.769H335.585ZM325.341 392.746C324.398 392.746 323.633 393.484 323.633 394.393C323.633 395.301 324.398 396.039 325.341 396.039C326.284 396.039 327.049 395.301 327.049 394.393C327.049 393.484 326.284 392.744 325.341 392.744" fill="white"/>
<path d="M446.458 255.253H443.042C443.042 250.469 439.283 246.711 434.5 246.711C429.717 246.711 425.958 250.469 425.958 255.253H422.542C420.663 255.253 419.125 256.79 419.125 258.669V279.169C419.125 281.048 420.663 282.586 422.542 282.586H446.458C448.338 282.586 449.875 281.048 449.875 279.169V258.669C449.875 256.79 448.338 255.253 446.458 255.253ZM434.5 250.128C437.404 250.128 439.625 252.348 439.625 255.253H429.375C429.375 252.348 431.596 250.128 434.5 250.128ZM446.458 279.169H422.542V258.669H446.458V279.169ZM434.5 265.503C431.596 265.503 429.375 263.282 429.375 260.378H425.958C425.958 265.161 429.717 268.919 434.5 268.919C439.283 268.919 443.042 265.161 443.042 260.378H439.625C439.625 263.282 437.404 265.503 434.5 265.503Z" fill="white"/>
<path d="M605.499 182.836V184.544M615.749 203.336H619.165M608.915 203.336H605.499V210.169M605.499 191.378V196.503M605.499 196.503H605.516M605.499 196.503H612.349M612.332 210.169H619.165M591.832 196.503H598.665M619.165 196.503H619.182M593.54 189.669H596.957C597.41 189.669 597.845 189.489 598.165 189.169C598.485 188.849 598.665 188.414 598.665 187.961V184.544C598.665 184.091 598.485 183.657 598.165 183.336C597.845 183.016 597.41 182.836 596.957 182.836H593.54C593.087 182.836 592.653 183.016 592.332 183.336C592.012 183.657 591.832 184.091 591.832 184.544V187.961C591.832 188.414 592.012 188.849 592.332 189.169C592.653 189.489 593.087 189.669 593.54 189.669ZM614.04 189.669H617.457C617.91 189.669 618.345 189.489 618.665 189.169C618.985 188.849 619.165 188.414 619.165 187.961V184.544C619.165 184.091 618.985 183.657 618.665 183.336C618.345 183.016 617.91 182.836 617.457 182.836H614.04C613.587 182.836 613.153 183.016 612.832 183.336C612.512 183.657 612.332 184.091 612.332 184.544V187.961C612.332 188.414 612.512 188.849 612.832 189.169C613.153 189.489 613.587 189.669 614.04 189.669ZM593.54 210.169H596.957C597.41 210.169 597.845 209.989 598.165 209.669C598.485 209.349 598.665 208.914 598.665 208.461V205.044C598.665 204.591 598.485 204.157 598.165 203.836C597.845 203.516 597.41 203.336 596.957 203.336H593.54C593.087 203.336 592.653 203.516 592.332 203.836C592.012 204.157 591.832 204.591 591.832 205.044V208.461C591.832 208.914 592.012 209.349 592.332 209.669C592.653 209.989 593.087 210.169 593.54 210.169Z" stroke="white" stroke-width="3" stroke-linecap="round" stroke-linejoin="round"/>
<path d="M779.418 250.669H813.585M779.418 247.253C779.418 246.346 779.778 245.477 780.419 244.837C781.059 244.196 781.928 243.836 782.835 243.836H810.168C811.074 243.836 811.943 244.196 812.584 244.837C813.225 245.477 813.585 246.346 813.585 247.253V267.753C813.585 268.659 813.225 269.528 812.584 270.169C811.943 270.809 811.074 271.169 810.168 271.169H782.835C781.928 271.169 781.059 270.809 780.419 270.169C779.778 269.528 779.418 268.659 779.418 267.753V247.253Z" stroke="white" stroke-width="3" stroke-linecap="round" stroke-linejoin="round"/>
<path d="M779.418 257.5H791.376C791.376 259.208 792.401 262.625 796.501 262.625C800.601 262.625 801.626 259.208 801.626 257.5H813.585" stroke="white" stroke-width="3" stroke-linecap="round" stroke-linejoin="round"/>
<path d="M950.239 345.333C950.805 345.333 951.348 345.108 951.749 344.708C952.149 344.307 952.374 343.764 952.374 343.198C952.374 342.632 952.149 342.088 951.749 341.688C951.348 341.287 950.805 341.062 950.239 341.062C949.672 341.062 949.129 341.287 948.729 341.688C948.328 342.088 948.103 342.632 948.103 343.198C948.103 343.764 948.328 344.307 948.729 344.708C949.129 345.108 949.672 345.333 950.239 345.333ZM959.634 343.198C959.634 343.764 959.409 344.307 959.009 344.708C958.608 345.108 958.065 345.333 957.499 345.333C956.933 345.333 956.389 345.108 955.989 344.708C955.589 344.307 955.364 343.764 955.364 343.198C955.364 342.632 955.589 342.088 955.989 341.688C956.389 341.287 956.933 341.062 957.499 341.062C958.065 341.062 958.608 341.287 959.009 341.688C959.409 342.088 959.634 342.632 959.634 343.198ZM964.759 345.333C965.326 345.333 965.869 345.108 966.269 344.708C966.67 344.307 966.895 343.764 966.895 343.198C966.895 342.632 966.67 342.088 966.269 341.688C965.869 341.287 965.326 341.062 964.759 341.062C964.193 341.062 963.65 341.287 963.249 341.688C962.849 342.088 962.624 342.632 962.624 343.198C962.624 343.764 962.849 344.307 963.249 344.708C963.65 345.108 964.193 345.333 964.759 345.333ZM945.324 324.206C945.604 323.868 945.956 323.596 946.354 323.409C946.751 323.222 947.185 323.125 947.625 323.125H967.373C968.263 323.125 969.107 323.521 969.676 324.206L975.792 331.586C976.947 332.977 975.958 335.083 974.148 335.083H972.874V350.031C972.874 351.164 972.424 352.25 971.623 353.051C970.822 353.852 969.736 354.302 968.603 354.302H946.395C945.262 354.302 944.176 353.852 943.375 353.051C942.574 352.25 942.124 351.164 942.124 350.031V335.083H940.85C939.042 335.083 938.053 332.977 939.206 331.585L945.324 324.206ZM947.625 325.688C947.562 325.688 947.5 325.701 947.444 325.728C947.387 325.754 947.337 325.793 947.297 325.841L941.758 332.521H973.24L967.703 325.841C967.663 325.793 967.612 325.754 967.555 325.728C967.498 325.701 967.436 325.687 967.373 325.688H947.625ZM944.686 335.083V350.031C944.686 350.484 944.866 350.919 945.187 351.239C945.507 351.56 945.942 351.74 946.395 351.74H968.603C969.056 351.74 969.491 351.56 969.811 351.239C970.132 350.919 970.311 350.484 970.311 350.031V335.083H944.686Z" fill="white"/>
<path d="M1037.62 505.073L1035.56 492.807C1035.25 490.952 1035.09 490.026 1035.59 489.418C1036.09 488.81 1037 488.81 1038.83 488.81H1064.16C1065.99 488.81 1066.91 488.81 1067.41 489.418C1067.91 490.026 1067.75 490.952 1067.44 492.807L1065.38 505.073C1064.7 509.139 1064.36 511.17 1062.97 512.376C1061.58 513.581 1059.57 513.581 1055.56 513.581H1047.44C1043.43 513.581 1041.42 513.581 1040.03 512.375C1038.64 511.17 1038.3 509.137 1037.62 505.072M1060.89 488.81C1060.89 486.318 1059.91 483.928 1058.14 482.166C1056.38 480.404 1053.99 479.414 1051.5 479.414C1049.01 479.414 1046.62 480.404 1044.86 482.166C1043.09 483.928 1042.1 486.318 1042.1 488.81" stroke="white" stroke-width="3" stroke-linecap="round" stroke-linejoin="round"/>
</g>
<defs>
<radialGradient id="paint0_radial_7497_1858" cx="0" cy="0" r="1" gradientUnits="userSpaceOnUse" gradientTransform="translate(732.606 -453.263) rotate(75.1657) scale(1547.36 768.995)">
<stop stop-color="#FFE0A7"/>
<stop offset="1" stop-color="#F0B345"/>
</radialGradient>
<clipPath id="clip0_7497_1858">
<rect width="1360" height="575" rx="10" fill="white"/>
</clipPath>
</defs>
</svg>
