<svg width="25" height="25" viewBox="0 0 25 25" fill="none" xmlns="http://www.w3.org/2000/svg">
<path fill-rule="evenodd" clip-rule="evenodd" d="M12.5 1.75C12.6989 1.75 12.8897 1.82902 13.0303 1.96967C13.171 2.11032 13.25 2.30109 13.25 2.5V13.473L14.93 11.512C14.9941 11.4371 15.0723 11.3756 15.1601 11.331C15.248 11.2864 15.3438 11.2595 15.442 11.2519C15.5403 11.2443 15.639 11.2561 15.7327 11.2866C15.8264 11.3172 15.9131 11.3659 15.988 11.43C16.0629 11.4941 16.1244 11.5723 16.169 11.6601C16.2136 11.748 16.2405 11.8438 16.2481 11.942C16.2557 12.0403 16.2439 12.139 16.2134 12.2327C16.1828 12.3264 16.1341 12.4131 16.07 12.488L13.07 15.988C12.9996 16.0703 12.9122 16.1364 12.8138 16.1818C12.7154 16.2271 12.6083 16.2506 12.5 16.2506C12.3917 16.2506 12.2846 16.2271 12.1862 16.1818C12.0878 16.1364 12.0004 16.0703 11.93 15.988L8.93 12.488C8.86592 12.4131 8.8172 12.3264 8.78664 12.2327C8.75608 12.139 8.74427 12.0403 8.75188 11.942C8.7595 11.8438 8.78639 11.748 8.83102 11.6601C8.87565 11.5723 8.93715 11.4941 9.012 11.43C9.08685 11.3659 9.1736 11.3172 9.26728 11.2866C9.36096 11.2561 9.45974 11.2443 9.55798 11.2519C9.65623 11.2595 9.75201 11.2864 9.83986 11.331C9.92771 11.3756 10.0059 11.4371 10.07 11.512L11.75 13.472V2.5C11.75 2.30109 11.829 2.11032 11.9697 1.96967C12.1103 1.82902 12.3011 1.75 12.5 1.75ZM7.496 8.752C7.69491 8.75094 7.8861 8.82894 8.0275 8.96884C8.1689 9.10874 8.24894 9.29909 8.25 9.498C8.25106 9.69691 8.17306 9.8881 8.03316 10.0295C7.89326 10.1709 7.70291 10.2509 7.504 10.252C6.411 10.258 5.636 10.286 5.047 10.394C4.481 10.499 4.152 10.666 3.909 10.909C3.632 11.186 3.452 11.575 3.353 12.309C3.252 13.064 3.25 14.065 3.25 15.5V16.5C3.25 17.936 3.252 18.937 3.353 19.692C3.452 20.426 3.633 20.814 3.909 21.092C4.186 21.368 4.574 21.548 5.309 21.647C6.063 21.749 7.065 21.75 8.5 21.75H16.5C17.935 21.75 18.936 21.749 19.692 21.647C20.426 21.548 20.814 21.368 21.091 21.091C21.368 20.814 21.548 20.426 21.647 19.692C21.748 18.937 21.75 17.936 21.75 16.5V15.5C21.75 14.065 21.748 13.064 21.647 12.308C21.548 11.575 21.367 11.186 21.091 10.909C20.847 10.666 20.519 10.499 19.953 10.394C19.364 10.286 18.589 10.258 17.496 10.252C17.3975 10.2515 17.3001 10.2316 17.2093 10.1934C17.1185 10.1552 17.0361 10.0995 16.9668 10.0295C16.8976 9.95949 16.8428 9.87651 16.8056 9.78532C16.7684 9.69412 16.7495 9.59649 16.75 9.498C16.7505 9.39951 16.7704 9.30209 16.8086 9.21129C16.8468 9.1205 16.9025 9.03811 16.9725 8.96884C17.0425 8.89957 17.1255 8.84477 17.2167 8.80756C17.3079 8.77035 17.4055 8.75147 17.504 8.752C18.586 8.758 19.487 8.784 20.224 8.919C20.982 9.059 21.627 9.324 22.152 9.849C22.754 10.45 23.012 11.209 23.134 12.109C23.25 12.975 23.25 14.078 23.25 15.445V16.555C23.25 17.923 23.25 19.025 23.134 19.892C23.012 20.792 22.754 21.55 22.152 22.152C21.55 22.754 20.792 23.012 19.892 23.134C19.025 23.25 17.922 23.25 16.555 23.25H8.445C7.078 23.25 5.975 23.25 5.108 23.134C4.208 23.013 3.45 22.754 2.848 22.152C2.246 21.55 1.988 20.792 1.867 19.892C1.75 19.025 1.75 17.922 1.75 16.555V15.445C1.75 14.078 1.75 12.975 1.867 12.108C1.987 11.208 2.247 10.45 2.848 9.848C3.373 9.324 4.018 9.058 4.776 8.919C5.513 8.784 6.414 8.758 7.496 8.752Z" fill="#201400" stroke="black" stroke-width="0.3"/>
</svg>
