<svg width="196" height="178" viewBox="0 0 196 178" fill="none" xmlns="http://www.w3.org/2000/svg">
<path d="M97 11.0005L96.1757 12.2536L97 11.0005ZM84 164L84.9075 162.806L84 164ZM195.347 164.66C195.711 163.916 195.403 163.017 194.659 162.653L182.533 156.72C181.789 156.355 180.891 156.664 180.527 157.408C180.162 158.152 180.47 159.05 181.215 159.414L191.993 164.689L186.719 175.467C186.355 176.211 186.663 177.11 187.407 177.474C188.151 177.838 189.05 177.53 189.414 176.786L195.347 164.66ZM1 11.0005C1.45527 12.4297 1.45522 12.4297 1.45541 12.4296C1.4558 12.4295 1.45624 12.4294 1.45702 12.4291C1.45859 12.4286 1.46113 12.4278 1.46465 12.4267C1.47169 12.4245 1.48263 12.421 1.49741 12.4164C1.52698 12.4071 1.57194 12.393 1.63191 12.3743C1.75188 12.337 1.93191 12.2815 2.16902 12.2096C2.64327 12.0659 3.34578 11.8569 4.25264 11.5976C6.06652 11.0791 8.69707 10.3597 11.9532 9.55991C18.468 7.95971 27.4738 6.04084 37.4451 4.7623C47.4221 3.48302 58.326 2.85011 68.6483 3.8024C78.9832 4.75585 88.6278 7.28885 96.1757 12.2536L97.8243 9.74725C89.7113 4.41076 79.5254 1.79312 68.9239 0.815081C58.3098 -0.164125 47.1713 0.490625 37.0635 1.78667C26.95 3.08345 17.8287 5.02756 11.2376 6.64651C7.94067 7.45631 5.27355 8.18557 3.42799 8.71321C2.50513 8.97705 1.78748 9.19054 1.299 9.33857C1.05475 9.41258 0.86778 9.47023 0.741075 9.50964C0.677722 9.52934 0.629434 9.54448 0.596586 9.55482C0.580161 9.55999 0.567597 9.56396 0.558939 9.5667C0.554609 9.56807 0.551257 9.56913 0.548887 9.56989C0.547702 9.57026 0.546662 9.57059 0.546069 9.57078C0.545276 9.57104 0.54473 9.57121 1 11.0005ZM96.1757 12.2536C102.193 16.2117 105.708 20.8667 107.445 26.0266C109.192 31.2141 109.187 37.0477 107.919 43.414C105.37 56.2116 97.8268 70.6968 90.0537 85.5576C82.3444 100.296 74.4142 115.395 71.4676 129.107C69.9881 135.992 69.7382 142.631 71.4613 148.767C73.1923 154.931 76.8841 160.477 83.0925 165.195L84.9075 162.806C79.1797 158.454 75.8912 153.445 74.3496 147.956C72.8001 142.438 72.9854 136.323 74.4006 129.738C77.2433 116.509 84.9408 101.805 92.712 86.948C100.419 72.2131 108.21 57.3105 110.861 44.0001C112.193 37.3124 112.256 30.9119 110.289 25.0692C108.312 19.1989 104.332 14.0276 97.8243 9.74725L96.1757 12.2536ZM83.0925 165.195C91.9447 171.922 103.399 175.224 115.464 176.457C127.542 177.692 140.352 176.867 152.034 175.232C163.723 173.597 174.327 171.146 182.008 169.105C185.849 168.084 188.963 167.165 191.118 166.5C192.196 166.167 193.035 165.898 193.606 165.712C193.891 165.619 194.11 165.546 194.258 165.497C194.332 165.472 194.388 165.453 194.426 165.44C194.446 165.433 194.46 165.428 194.47 165.425C194.475 165.423 194.479 165.422 194.482 165.421C194.483 165.421 194.484 165.42 194.485 165.42C194.486 165.42 194.487 165.419 194 164C193.513 162.582 193.513 162.582 193.513 162.582C193.513 162.582 193.512 162.582 193.511 162.582C193.509 162.583 193.506 162.584 193.502 162.585C193.494 162.588 193.481 162.593 193.463 162.599C193.429 162.61 193.376 162.628 193.305 162.652C193.164 162.699 192.953 162.769 192.675 162.86C192.119 163.042 191.296 163.306 190.234 163.633C188.111 164.288 185.036 165.196 181.237 166.206C173.636 168.226 163.154 170.648 151.618 172.261C140.075 173.876 127.524 174.675 115.77 173.473C104.003 172.27 93.1568 169.075 84.9075 162.806L83.0925 165.195Z" fill="#002C29"/>
</svg>
