<svg width="1360" height="383" viewBox="0 0 1360 383" fill="none" xmlns="http://www.w3.org/2000/svg">
<rect width="1360" height="383" rx="10" fill="white"/>
<path d="M200.948 335.49V345H198.821V335.49H200.948ZM204.068 335.49V337.16H195.754V335.49H204.068ZM209.025 345.176C208.322 345.176 207.687 345.062 207.118 344.833C206.556 344.599 206.075 344.273 205.677 343.857C205.284 343.441 204.982 342.952 204.771 342.39C204.561 341.827 204.455 341.221 204.455 340.57V340.219C204.455 339.475 204.563 338.801 204.78 338.197C204.997 337.594 205.299 337.078 205.686 336.65C206.072 336.217 206.529 335.886 207.057 335.657C207.584 335.429 208.155 335.314 208.771 335.314C209.45 335.314 210.045 335.429 210.555 335.657C211.064 335.886 211.486 336.208 211.82 336.624C212.16 337.034 212.412 337.523 212.576 338.092C212.746 338.66 212.831 339.287 212.831 339.973V340.878H205.483V339.357H210.739V339.19C210.728 338.81 210.651 338.452 210.511 338.118C210.376 337.784 210.168 337.515 209.887 337.31C209.605 337.104 209.23 337.002 208.762 337.002C208.41 337.002 208.097 337.078 207.821 337.23C207.552 337.377 207.326 337.591 207.145 337.872C206.963 338.153 206.822 338.493 206.723 338.892C206.629 339.284 206.582 339.727 206.582 340.219V340.57C206.582 340.986 206.638 341.373 206.749 341.73C206.866 342.082 207.036 342.39 207.259 342.653C207.481 342.917 207.751 343.125 208.067 343.277C208.384 343.424 208.744 343.497 209.148 343.497C209.658 343.497 210.112 343.395 210.511 343.189C210.909 342.984 211.255 342.694 211.548 342.319L212.664 343.4C212.459 343.699 212.192 343.986 211.864 344.262C211.536 344.531 211.135 344.751 210.66 344.921C210.191 345.091 209.646 345.176 209.025 345.176ZM216.769 335.49V345H214.65V335.49H216.769ZM222.974 335.49L218.693 341.212H216.276L215.995 339.296H217.762L220.328 335.49H222.974ZM220.495 345L217.63 340.852L219.3 339.647L223.281 345H220.495ZM228.177 343.488C228.522 343.488 228.833 343.421 229.108 343.286C229.39 343.146 229.615 342.952 229.785 342.706C229.961 342.46 230.058 342.176 230.075 341.854H232.07C232.059 342.469 231.877 343.028 231.525 343.532C231.174 344.036 230.708 344.438 230.128 344.736C229.548 345.029 228.906 345.176 228.203 345.176C227.477 345.176 226.844 345.053 226.305 344.807C225.766 344.555 225.317 344.209 224.96 343.77C224.603 343.33 224.333 342.823 224.151 342.249C223.976 341.675 223.888 341.06 223.888 340.403V340.096C223.888 339.439 223.976 338.824 224.151 338.25C224.333 337.67 224.603 337.16 224.96 336.721C225.317 336.281 225.766 335.938 226.305 335.692C226.844 335.44 227.474 335.314 228.194 335.314C228.956 335.314 229.624 335.467 230.198 335.771C230.772 336.07 231.224 336.489 231.552 337.028C231.886 337.562 232.059 338.183 232.07 338.892H230.075C230.058 338.54 229.97 338.224 229.812 337.942C229.659 337.655 229.442 337.427 229.161 337.257C228.886 337.087 228.555 337.002 228.168 337.002C227.74 337.002 227.386 337.09 227.104 337.266C226.823 337.436 226.604 337.67 226.445 337.969C226.287 338.262 226.173 338.593 226.103 338.962C226.038 339.325 226.006 339.703 226.006 340.096V340.403C226.006 340.796 226.038 341.177 226.103 341.546C226.167 341.915 226.278 342.246 226.437 342.539C226.601 342.826 226.823 343.058 227.104 343.233C227.386 343.403 227.743 343.488 228.177 343.488ZM238.108 335.49V345H235.981V335.49H238.108ZM241.229 335.49V337.16H232.914V335.49H241.229Z" fill="#002C29"/>
<path d="M583.948 365.49V375H581.821V365.49H583.948ZM587.068 365.49V367.16H578.754V365.49H587.068ZM592.025 375.176C591.322 375.176 590.687 375.062 590.118 374.833C589.556 374.599 589.075 374.273 588.677 373.857C588.284 373.441 587.982 372.952 587.771 372.39C587.561 371.827 587.455 371.221 587.455 370.57V370.219C587.455 369.475 587.563 368.801 587.78 368.197C587.997 367.594 588.299 367.078 588.686 366.65C589.072 366.217 589.529 365.886 590.057 365.657C590.584 365.429 591.155 365.314 591.771 365.314C592.45 365.314 593.045 365.429 593.555 365.657C594.064 365.886 594.486 366.208 594.82 366.624C595.16 367.034 595.412 367.523 595.576 368.092C595.746 368.66 595.831 369.287 595.831 369.973V370.878H588.483V369.357H593.739V369.19C593.728 368.81 593.651 368.452 593.511 368.118C593.376 367.784 593.168 367.515 592.887 367.31C592.605 367.104 592.23 367.002 591.762 367.002C591.41 367.002 591.097 367.078 590.821 367.23C590.552 367.377 590.326 367.591 590.145 367.872C589.963 368.153 589.822 368.493 589.723 368.892C589.629 369.284 589.582 369.727 589.582 370.219V370.57C589.582 370.986 589.638 371.373 589.749 371.73C589.866 372.082 590.036 372.39 590.259 372.653C590.481 372.917 590.751 373.125 591.067 373.277C591.384 373.424 591.744 373.497 592.148 373.497C592.658 373.497 593.112 373.395 593.511 373.189C593.909 372.984 594.255 372.694 594.548 372.319L595.664 373.4C595.459 373.699 595.192 373.986 594.864 374.262C594.536 374.531 594.135 374.751 593.66 374.921C593.191 375.091 592.646 375.176 592.025 375.176ZM599.769 365.49V375H597.65V365.49H599.769ZM605.974 365.49L601.693 371.212H599.276L598.995 369.296H600.762L603.328 365.49H605.974ZM603.495 375L600.63 370.852L602.3 369.647L606.281 375H603.495ZM611.177 373.488C611.522 373.488 611.833 373.421 612.108 373.286C612.39 373.146 612.615 372.952 612.785 372.706C612.961 372.46 613.058 372.176 613.075 371.854H615.07C615.059 372.469 614.877 373.028 614.525 373.532C614.174 374.036 613.708 374.438 613.128 374.736C612.548 375.029 611.906 375.176 611.203 375.176C610.477 375.176 609.844 375.053 609.305 374.807C608.766 374.555 608.317 374.209 607.96 373.77C607.603 373.33 607.333 372.823 607.151 372.249C606.976 371.675 606.888 371.06 606.888 370.403V370.096C606.888 369.439 606.976 368.824 607.151 368.25C607.333 367.67 607.603 367.16 607.96 366.721C608.317 366.281 608.766 365.938 609.305 365.692C609.844 365.44 610.474 365.314 611.194 365.314C611.956 365.314 612.624 365.467 613.198 365.771C613.772 366.07 614.224 366.489 614.552 367.028C614.886 367.562 615.059 368.183 615.07 368.892H613.075C613.058 368.54 612.97 368.224 612.812 367.942C612.659 367.655 612.442 367.427 612.161 367.257C611.886 367.087 611.555 367.002 611.168 367.002C610.74 367.002 610.386 367.09 610.104 367.266C609.823 367.436 609.604 367.67 609.445 367.969C609.287 368.262 609.173 368.593 609.103 368.962C609.038 369.325 609.006 369.703 609.006 370.096V370.403C609.006 370.796 609.038 371.177 609.103 371.546C609.167 371.915 609.278 372.246 609.437 372.539C609.601 372.826 609.823 373.058 610.104 373.233C610.386 373.403 610.743 373.488 611.177 373.488ZM621.108 365.49V375H618.981V365.49H621.108ZM624.229 365.49V367.16H615.914V365.49H624.229Z" fill="#002C29"/>
<path d="M919.948 354.49V364H917.821V354.49H919.948ZM923.068 354.49V356.16H914.754V354.49H923.068ZM928.025 364.176C927.322 364.176 926.687 364.062 926.118 363.833C925.556 363.599 925.075 363.273 924.677 362.857C924.284 362.441 923.982 361.952 923.771 361.39C923.561 360.827 923.455 360.221 923.455 359.57V359.219C923.455 358.475 923.563 357.801 923.78 357.197C923.997 356.594 924.299 356.078 924.686 355.65C925.072 355.217 925.529 354.886 926.057 354.657C926.584 354.429 927.155 354.314 927.771 354.314C928.45 354.314 929.045 354.429 929.555 354.657C930.064 354.886 930.486 355.208 930.82 355.624C931.16 356.034 931.412 356.523 931.576 357.092C931.746 357.66 931.831 358.287 931.831 358.973V359.878H924.483V358.357H929.739V358.19C929.728 357.81 929.651 357.452 929.511 357.118C929.376 356.784 929.168 356.515 928.887 356.31C928.605 356.104 928.23 356.002 927.762 356.002C927.41 356.002 927.097 356.078 926.821 356.23C926.552 356.377 926.326 356.591 926.145 356.872C925.963 357.153 925.822 357.493 925.723 357.892C925.629 358.284 925.582 358.727 925.582 359.219V359.57C925.582 359.986 925.638 360.373 925.749 360.73C925.866 361.082 926.036 361.39 926.259 361.653C926.481 361.917 926.751 362.125 927.067 362.277C927.384 362.424 927.744 362.497 928.148 362.497C928.658 362.497 929.112 362.395 929.511 362.189C929.909 361.984 930.255 361.694 930.548 361.319L931.664 362.4C931.459 362.699 931.192 362.986 930.864 363.262C930.536 363.531 930.135 363.751 929.66 363.921C929.191 364.091 928.646 364.176 928.025 364.176ZM935.769 354.49V364H933.65V354.49H935.769ZM941.974 354.49L937.693 360.212H935.276L934.995 358.296H936.762L939.328 354.49H941.974ZM939.495 364L936.63 359.852L938.3 358.647L942.281 364H939.495ZM947.177 362.488C947.522 362.488 947.833 362.421 948.108 362.286C948.39 362.146 948.615 361.952 948.785 361.706C948.961 361.46 949.058 361.176 949.075 360.854H951.07C951.059 361.469 950.877 362.028 950.525 362.532C950.174 363.036 949.708 363.438 949.128 363.736C948.548 364.029 947.906 364.176 947.203 364.176C946.477 364.176 945.844 364.053 945.305 363.807C944.766 363.555 944.317 363.209 943.96 362.77C943.603 362.33 943.333 361.823 943.151 361.249C942.976 360.675 942.888 360.06 942.888 359.403V359.096C942.888 358.439 942.976 357.824 943.151 357.25C943.333 356.67 943.603 356.16 943.96 355.721C944.317 355.281 944.766 354.938 945.305 354.692C945.844 354.44 946.474 354.314 947.194 354.314C947.956 354.314 948.624 354.467 949.198 354.771C949.772 355.07 950.224 355.489 950.552 356.028C950.886 356.562 951.059 357.183 951.07 357.892H949.075C949.058 357.54 948.97 357.224 948.812 356.942C948.659 356.655 948.442 356.427 948.161 356.257C947.886 356.087 947.555 356.002 947.168 356.002C946.74 356.002 946.386 356.09 946.104 356.266C945.823 356.436 945.604 356.67 945.445 356.969C945.287 357.262 945.173 357.593 945.103 357.962C945.038 358.325 945.006 358.703 945.006 359.096V359.403C945.006 359.796 945.038 360.177 945.103 360.546C945.167 360.915 945.278 361.246 945.437 361.539C945.601 361.826 945.823 362.058 946.104 362.233C946.386 362.403 946.743 362.488 947.177 362.488ZM957.108 354.49V364H954.981V354.49H957.108ZM960.229 354.49V356.16H951.914V354.49H960.229Z" fill="#002C29"/>
<path d="M1206.95 139.49V149H1204.82V139.49H1206.95ZM1210.07 139.49V141.16H1201.75V139.49H1210.07ZM1215.03 149.176C1214.32 149.176 1213.69 149.062 1213.12 148.833C1212.56 148.599 1212.08 148.273 1211.68 147.857C1211.28 147.441 1210.98 146.952 1210.77 146.39C1210.56 145.827 1210.46 145.221 1210.46 144.57V144.219C1210.46 143.475 1210.56 142.801 1210.78 142.197C1211 141.594 1211.3 141.078 1211.69 140.65C1212.07 140.217 1212.53 139.886 1213.06 139.657C1213.58 139.429 1214.16 139.314 1214.77 139.314C1215.45 139.314 1216.04 139.429 1216.55 139.657C1217.06 139.886 1217.49 140.208 1217.82 140.624C1218.16 141.034 1218.41 141.523 1218.58 142.092C1218.75 142.66 1218.83 143.287 1218.83 143.973V144.878H1211.48V143.357H1216.74V143.19C1216.73 142.81 1216.65 142.452 1216.51 142.118C1216.38 141.784 1216.17 141.515 1215.89 141.31C1215.61 141.104 1215.23 141.002 1214.76 141.002C1214.41 141.002 1214.1 141.078 1213.82 141.23C1213.55 141.377 1213.33 141.591 1213.14 141.872C1212.96 142.153 1212.82 142.493 1212.72 142.892C1212.63 143.284 1212.58 143.727 1212.58 144.219V144.57C1212.58 144.986 1212.64 145.373 1212.75 145.73C1212.87 146.082 1213.04 146.39 1213.26 146.653C1213.48 146.917 1213.75 147.125 1214.07 147.277C1214.38 147.424 1214.74 147.497 1215.15 147.497C1215.66 147.497 1216.11 147.395 1216.51 147.189C1216.91 146.984 1217.25 146.694 1217.55 146.319L1218.66 147.4C1218.46 147.699 1218.19 147.986 1217.86 148.262C1217.54 148.531 1217.13 148.751 1216.66 148.921C1216.19 149.091 1215.65 149.176 1215.03 149.176ZM1222.77 139.49V149H1220.65V139.49H1222.77ZM1228.97 139.49L1224.69 145.212H1222.28L1222 143.296H1223.76L1226.33 139.49H1228.97ZM1226.5 149L1223.63 144.852L1225.3 143.647L1229.28 149H1226.5ZM1234.18 147.488C1234.52 147.488 1234.83 147.421 1235.11 147.286C1235.39 147.146 1235.62 146.952 1235.79 146.706C1235.96 146.46 1236.06 146.176 1236.08 145.854H1238.07C1238.06 146.469 1237.88 147.028 1237.53 147.532C1237.17 148.036 1236.71 148.438 1236.13 148.736C1235.55 149.029 1234.91 149.176 1234.2 149.176C1233.48 149.176 1232.84 149.053 1232.3 148.807C1231.77 148.555 1231.32 148.209 1230.96 147.77C1230.6 147.33 1230.33 146.823 1230.15 146.249C1229.98 145.675 1229.89 145.06 1229.89 144.403V144.096C1229.89 143.439 1229.98 142.824 1230.15 142.25C1230.33 141.67 1230.6 141.16 1230.96 140.721C1231.32 140.281 1231.77 139.938 1232.3 139.692C1232.84 139.44 1233.47 139.314 1234.19 139.314C1234.96 139.314 1235.62 139.467 1236.2 139.771C1236.77 140.07 1237.22 140.489 1237.55 141.028C1237.89 141.562 1238.06 142.183 1238.07 142.892H1236.08C1236.06 142.54 1235.97 142.224 1235.81 141.942C1235.66 141.655 1235.44 141.427 1235.16 141.257C1234.89 141.087 1234.55 141.002 1234.17 141.002C1233.74 141.002 1233.39 141.09 1233.1 141.266C1232.82 141.436 1232.6 141.67 1232.45 141.969C1232.29 142.262 1232.17 142.593 1232.1 142.962C1232.04 143.325 1232.01 143.703 1232.01 144.096V144.403C1232.01 144.796 1232.04 145.177 1232.1 145.546C1232.17 145.915 1232.28 146.246 1232.44 146.539C1232.6 146.826 1232.82 147.058 1233.1 147.233C1233.39 147.403 1233.74 147.488 1234.18 147.488ZM1244.11 139.49V149H1241.98V139.49H1244.11ZM1247.23 139.49V141.16H1238.91V139.49H1247.23Z" fill="#002C29"/>
<path d="M773.948 8.49023V18H771.821V8.49023H773.948ZM777.068 8.49023V10.1602H768.754V8.49023H777.068ZM782.025 18.1758C781.322 18.1758 780.687 18.0615 780.118 17.833C779.556 17.5986 779.075 17.2734 778.677 16.8574C778.284 16.4414 777.982 15.9521 777.771 15.3896C777.561 14.8271 777.455 14.2207 777.455 13.5703V13.2188C777.455 12.4746 777.563 11.8008 777.78 11.1973C777.997 10.5938 778.299 10.0781 778.686 9.65039C779.072 9.2168 779.529 8.88574 780.057 8.65723C780.584 8.42871 781.155 8.31445 781.771 8.31445C782.45 8.31445 783.045 8.42871 783.555 8.65723C784.064 8.88574 784.486 9.20801 784.82 9.62402C785.16 10.0342 785.412 10.5234 785.576 11.0918C785.746 11.6602 785.831 12.2871 785.831 12.9727V13.8779H778.483V12.3574H783.739V12.1904C783.728 11.8096 783.651 11.4521 783.511 11.1182C783.376 10.7842 783.168 10.5146 782.887 10.3096C782.605 10.1045 782.23 10.002 781.762 10.002C781.41 10.002 781.097 10.0781 780.821 10.2305C780.552 10.377 780.326 10.5908 780.145 10.8721C779.963 11.1533 779.822 11.4932 779.723 11.8916C779.629 12.2842 779.582 12.7266 779.582 13.2188V13.5703C779.582 13.9863 779.638 14.373 779.749 14.7305C779.866 15.082 780.036 15.3896 780.259 15.6533C780.481 15.917 780.751 16.125 781.067 16.2773C781.384 16.4238 781.744 16.4971 782.148 16.4971C782.658 16.4971 783.112 16.3945 783.511 16.1895C783.909 15.9844 784.255 15.6943 784.548 15.3193L785.664 16.4004C785.459 16.6992 785.192 16.9863 784.864 17.2617C784.536 17.5312 784.135 17.751 783.66 17.9209C783.191 18.0908 782.646 18.1758 782.025 18.1758ZM789.769 8.49023V18H787.65V8.49023H789.769ZM795.974 8.49023L791.693 14.2119H789.276L788.995 12.2959H790.762L793.328 8.49023H795.974ZM793.495 18L790.63 13.8516L792.3 12.6475L796.281 18H793.495ZM801.177 16.4883C801.522 16.4883 801.833 16.4209 802.108 16.2861C802.39 16.1455 802.615 15.9521 802.785 15.7061C802.961 15.46 803.058 15.1758 803.075 14.8535H805.07C805.059 15.4688 804.877 16.0283 804.525 16.5322C804.174 17.0361 803.708 17.4375 803.128 17.7363C802.548 18.0293 801.906 18.1758 801.203 18.1758C800.477 18.1758 799.844 18.0527 799.305 17.8066C798.766 17.5547 798.317 17.209 797.96 16.7695C797.603 16.3301 797.333 15.8232 797.151 15.249C796.976 14.6748 796.888 14.0596 796.888 13.4033V13.0957C796.888 12.4395 796.976 11.8242 797.151 11.25C797.333 10.6699 797.603 10.1602 797.96 9.7207C798.317 9.28125 798.766 8.93848 799.305 8.69238C799.844 8.44043 800.474 8.31445 801.194 8.31445C801.956 8.31445 802.624 8.4668 803.198 8.77148C803.772 9.07031 804.224 9.48926 804.552 10.0283C804.886 10.5615 805.059 11.1826 805.07 11.8916H803.075C803.058 11.54 802.97 11.2236 802.812 10.9424C802.659 10.6553 802.442 10.4268 802.161 10.2568C801.886 10.0869 801.555 10.002 801.168 10.002C800.74 10.002 800.386 10.0898 800.104 10.2656C799.823 10.4355 799.604 10.6699 799.445 10.9688C799.287 11.2617 799.173 11.5928 799.103 11.9619C799.038 12.3252 799.006 12.7031 799.006 13.0957V13.4033C799.006 13.7959 799.038 14.1768 799.103 14.5459C799.167 14.915 799.278 15.2461 799.437 15.5391C799.601 15.8262 799.823 16.0576 800.104 16.2334C800.386 16.4033 800.743 16.4883 801.177 16.4883ZM811.108 8.49023V18H808.981V8.49023H811.108ZM814.229 8.49023V10.1602H805.914V8.49023H814.229Z" fill="#002C29"/>
<path d="M453.948 8.49023V18H451.821V8.49023H453.948ZM457.068 8.49023V10.1602H448.754V8.49023H457.068ZM462.025 18.1758C461.322 18.1758 460.687 18.0615 460.118 17.833C459.556 17.5986 459.075 17.2734 458.677 16.8574C458.284 16.4414 457.982 15.9521 457.771 15.3896C457.561 14.8271 457.455 14.2207 457.455 13.5703V13.2188C457.455 12.4746 457.563 11.8008 457.78 11.1973C457.997 10.5938 458.299 10.0781 458.686 9.65039C459.072 9.2168 459.529 8.88574 460.057 8.65723C460.584 8.42871 461.155 8.31445 461.771 8.31445C462.45 8.31445 463.045 8.42871 463.555 8.65723C464.064 8.88574 464.486 9.20801 464.82 9.62402C465.16 10.0342 465.412 10.5234 465.576 11.0918C465.746 11.6602 465.831 12.2871 465.831 12.9727V13.8779H458.483V12.3574H463.739V12.1904C463.728 11.8096 463.651 11.4521 463.511 11.1182C463.376 10.7842 463.168 10.5146 462.887 10.3096C462.605 10.1045 462.23 10.002 461.762 10.002C461.41 10.002 461.097 10.0781 460.821 10.2305C460.552 10.377 460.326 10.5908 460.145 10.8721C459.963 11.1533 459.822 11.4932 459.723 11.8916C459.629 12.2842 459.582 12.7266 459.582 13.2188V13.5703C459.582 13.9863 459.638 14.373 459.749 14.7305C459.866 15.082 460.036 15.3896 460.259 15.6533C460.481 15.917 460.751 16.125 461.067 16.2773C461.384 16.4238 461.744 16.4971 462.148 16.4971C462.658 16.4971 463.112 16.3945 463.511 16.1895C463.909 15.9844 464.255 15.6943 464.548 15.3193L465.664 16.4004C465.459 16.6992 465.192 16.9863 464.864 17.2617C464.536 17.5312 464.135 17.751 463.66 17.9209C463.191 18.0908 462.646 18.1758 462.025 18.1758ZM469.769 8.49023V18H467.65V8.49023H469.769ZM475.974 8.49023L471.693 14.2119H469.276L468.995 12.2959H470.762L473.328 8.49023H475.974ZM473.495 18L470.63 13.8516L472.3 12.6475L476.281 18H473.495ZM481.177 16.4883C481.522 16.4883 481.833 16.4209 482.108 16.2861C482.39 16.1455 482.615 15.9521 482.785 15.7061C482.961 15.46 483.058 15.1758 483.075 14.8535H485.07C485.059 15.4688 484.877 16.0283 484.525 16.5322C484.174 17.0361 483.708 17.4375 483.128 17.7363C482.548 18.0293 481.906 18.1758 481.203 18.1758C480.477 18.1758 479.844 18.0527 479.305 17.8066C478.766 17.5547 478.317 17.209 477.96 16.7695C477.603 16.3301 477.333 15.8232 477.151 15.249C476.976 14.6748 476.888 14.0596 476.888 13.4033V13.0957C476.888 12.4395 476.976 11.8242 477.151 11.25C477.333 10.6699 477.603 10.1602 477.96 9.7207C478.317 9.28125 478.766 8.93848 479.305 8.69238C479.844 8.44043 480.474 8.31445 481.194 8.31445C481.956 8.31445 482.624 8.4668 483.198 8.77148C483.772 9.07031 484.224 9.48926 484.552 10.0283C484.886 10.5615 485.059 11.1826 485.07 11.8916H483.075C483.058 11.54 482.97 11.2236 482.812 10.9424C482.659 10.6553 482.442 10.4268 482.161 10.2568C481.886 10.0869 481.555 10.002 481.168 10.002C480.74 10.002 480.386 10.0898 480.104 10.2656C479.823 10.4355 479.604 10.6699 479.445 10.9688C479.287 11.2617 479.173 11.5928 479.103 11.9619C479.038 12.3252 479.006 12.7031 479.006 13.0957V13.4033C479.006 13.7959 479.038 14.1768 479.103 14.5459C479.167 14.915 479.278 15.2461 479.437 15.5391C479.601 15.8262 479.823 16.0576 480.104 16.2334C480.386 16.4033 480.743 16.4883 481.177 16.4883ZM491.108 8.49023V18H488.981V8.49023H491.108ZM494.229 8.49023V10.1602H485.914V8.49023H494.229Z" fill="#002C29"/>
<path d="M320.5 298.501C320.5 298.501 374.688 298.698 401.5 280.501C454.787 244.336 370.731 149.706 426.5 117.501C450.079 103.884 467.772 104.665 495 104.501C519.109 104.355 534.736 102.639 556 114.001C606.571 141.021 534.462 226.444 582 258.501C605.759 274.522 624.845 275.323 653.5 275.001C680.825 274.693 698.976 273.974 721.5 258.501C765.784 228.079 701.263 150 748 123.501C770.316 110.848 787.346 113.972 813 114.001C838.461 114.029 855.448 110.775 877.5 123.501C919.316 147.631 868.606 219.401 911 242.501C933.097 254.541 949.857 251.038 975 250.001C999.87 248.975 1016.46 250.798 1037.5 237.501C1081.62 209.615 1018.38 138.889 1058.5 105.501C1090.49 78.8817 1164 90.5007 1164 90.5007" stroke="#002C29" stroke-width="3"/>
<circle cx="323.5" cy="296.5" r="12" fill="#F0B345" stroke="white" stroke-width="5"/>
<circle cx="494.5" cy="103.5" r="12" fill="#F0B345" stroke="white" stroke-width="5"/>
<circle cx="653.5" cy="275.5" r="12" fill="#F0B345" stroke="white" stroke-width="5"/>
<circle cx="814.5" cy="111.5" r="12" fill="#F0B345" stroke="white" stroke-width="5"/>
<circle cx="975.5" cy="251.5" r="12" fill="#F0B345" stroke="white" stroke-width="5"/>
<circle cx="1159.5" cy="87.5" r="12" fill="#F0B345" stroke="white" stroke-width="5"/>
<rect x="195" y="275" width="94" height="40" rx="10" fill="#002C29"/>
<path d="M226.766 287.732V302H224.412V290.525L220.926 291.707V289.764L226.482 287.732H226.766ZM233.602 300.145H233.797C234.695 300.145 235.444 300.027 236.043 299.793C236.648 299.552 237.13 299.22 237.488 298.797C237.846 298.374 238.104 297.876 238.26 297.303C238.416 296.73 238.494 296.108 238.494 295.438V292.986C238.494 292.407 238.432 291.899 238.309 291.463C238.191 291.02 238.022 290.652 237.801 290.359C237.586 290.06 237.335 289.835 237.049 289.686C236.769 289.536 236.466 289.461 236.141 289.461C235.783 289.461 235.46 289.542 235.174 289.705C234.894 289.861 234.656 290.079 234.461 290.359C234.272 290.633 234.126 290.955 234.021 291.326C233.924 291.691 233.875 292.081 233.875 292.498C233.875 292.889 233.921 293.266 234.012 293.631C234.109 293.989 234.253 294.308 234.441 294.588C234.63 294.868 234.868 295.089 235.154 295.252C235.441 295.415 235.776 295.496 236.16 295.496C236.525 295.496 236.86 295.428 237.166 295.291C237.472 295.148 237.739 294.956 237.967 294.715C238.195 294.474 238.374 294.204 238.504 293.904C238.634 293.605 238.706 293.299 238.719 292.986L239.617 293.26C239.617 293.755 239.513 294.243 239.305 294.725C239.103 295.2 238.82 295.636 238.455 296.033C238.097 296.424 237.677 296.736 237.195 296.971C236.72 297.205 236.202 297.322 235.643 297.322C234.965 297.322 234.367 297.195 233.846 296.941C233.331 296.681 232.902 296.329 232.557 295.887C232.218 295.444 231.964 294.936 231.795 294.363C231.626 293.79 231.541 293.188 231.541 292.557C231.541 291.873 231.645 291.232 231.854 290.633C232.062 290.034 232.365 289.507 232.762 289.051C233.159 288.589 233.641 288.23 234.207 287.977C234.78 287.716 235.428 287.586 236.15 287.586C236.919 287.586 237.592 287.736 238.172 288.035C238.751 288.335 239.24 288.748 239.637 289.275C240.034 289.803 240.333 290.415 240.535 291.111C240.737 291.808 240.838 292.557 240.838 293.357V294.188C240.838 295.027 240.763 295.838 240.613 296.619C240.464 297.394 240.219 298.113 239.881 298.777C239.549 299.435 239.109 300.014 238.562 300.516C238.022 301.01 237.358 301.398 236.57 301.678C235.789 301.951 234.871 302.088 233.816 302.088H233.602V300.145ZM245.838 293.826H247.244C247.791 293.826 248.243 293.732 248.602 293.543C248.966 293.354 249.236 293.094 249.412 292.762C249.588 292.43 249.676 292.049 249.676 291.619C249.676 291.17 249.594 290.786 249.432 290.467C249.275 290.141 249.035 289.891 248.709 289.715C248.39 289.539 247.983 289.451 247.488 289.451C247.072 289.451 246.694 289.536 246.355 289.705C246.023 289.868 245.76 290.102 245.564 290.408C245.369 290.708 245.271 291.066 245.271 291.482H242.908C242.908 290.727 243.107 290.057 243.504 289.471C243.901 288.885 244.441 288.426 245.125 288.094C245.815 287.755 246.59 287.586 247.449 287.586C248.367 287.586 249.168 287.739 249.852 288.045C250.542 288.344 251.079 288.794 251.463 289.393C251.847 289.992 252.039 290.734 252.039 291.619C252.039 292.023 251.945 292.433 251.756 292.85C251.567 293.266 251.287 293.647 250.916 293.992C250.545 294.331 250.083 294.607 249.529 294.822C248.976 295.031 248.335 295.135 247.605 295.135H245.838V293.826ZM245.838 295.662V294.373H247.605C248.439 294.373 249.148 294.471 249.734 294.666C250.327 294.861 250.809 295.132 251.18 295.477C251.551 295.815 251.821 296.202 251.99 296.639C252.166 297.075 252.254 297.537 252.254 298.025C252.254 298.689 252.133 299.282 251.893 299.803C251.658 300.317 251.323 300.753 250.887 301.111C250.451 301.469 249.939 301.74 249.354 301.922C248.774 302.104 248.143 302.195 247.459 302.195C246.847 302.195 246.261 302.111 245.701 301.941C245.141 301.772 244.64 301.521 244.197 301.189C243.755 300.851 243.403 300.431 243.143 299.93C242.889 299.422 242.762 298.836 242.762 298.172H245.115C245.115 298.595 245.213 298.969 245.408 299.295C245.61 299.614 245.89 299.865 246.248 300.047C246.613 300.229 247.029 300.32 247.498 300.32C247.993 300.32 248.419 300.232 248.777 300.057C249.135 299.881 249.409 299.62 249.598 299.275C249.793 298.93 249.891 298.514 249.891 298.025C249.891 297.472 249.783 297.023 249.568 296.678C249.354 296.333 249.048 296.079 248.65 295.916C248.253 295.747 247.785 295.662 247.244 295.662H245.838ZM263.709 293.699V296.023C263.709 297.137 263.598 298.087 263.377 298.875C263.162 299.656 262.85 300.291 262.439 300.779C262.029 301.268 261.538 301.626 260.965 301.854C260.398 302.081 259.764 302.195 259.061 302.195C258.501 302.195 257.98 302.124 257.498 301.98C257.023 301.837 256.593 301.613 256.209 301.307C255.825 301.001 255.496 300.607 255.223 300.125C254.956 299.637 254.747 299.054 254.598 298.377C254.454 297.7 254.383 296.915 254.383 296.023V293.699C254.383 292.579 254.493 291.635 254.715 290.867C254.936 290.092 255.252 289.464 255.662 288.982C256.072 288.494 256.561 288.139 257.127 287.918C257.7 287.697 258.338 287.586 259.041 287.586C259.607 287.586 260.128 287.658 260.604 287.801C261.085 287.938 261.515 288.156 261.893 288.455C262.277 288.755 262.602 289.145 262.869 289.627C263.143 290.102 263.351 290.678 263.494 291.355C263.637 292.026 263.709 292.807 263.709 293.699ZM261.355 296.355V293.348C261.355 292.781 261.323 292.283 261.258 291.854C261.193 291.417 261.095 291.049 260.965 290.75C260.841 290.444 260.685 290.197 260.496 290.008C260.307 289.812 260.092 289.673 259.852 289.588C259.611 289.497 259.34 289.451 259.041 289.451C258.676 289.451 258.351 289.523 258.064 289.666C257.778 289.803 257.537 290.024 257.342 290.33C257.146 290.636 256.997 291.04 256.893 291.541C256.795 292.036 256.746 292.638 256.746 293.348V296.355C256.746 296.928 256.779 297.433 256.844 297.869C256.909 298.305 257.007 298.68 257.137 298.992C257.267 299.298 257.423 299.552 257.605 299.754C257.794 299.949 258.009 300.092 258.25 300.184C258.497 300.275 258.768 300.32 259.061 300.32C259.432 300.32 259.76 300.249 260.047 300.105C260.333 299.962 260.574 299.734 260.77 299.422C260.965 299.103 261.111 298.689 261.209 298.182C261.307 297.674 261.355 297.065 261.355 296.355Z" fill="white"/>
<rect x="448" y="35" width="94" height="40" rx="10" fill="#002C29"/>
<path d="M482.871 60.125V62H473.34V60.3887L477.969 55.3398C478.477 54.7669 478.877 54.2721 479.17 53.8555C479.463 53.4388 479.668 53.0645 479.785 52.7324C479.909 52.3939 479.971 52.0651 479.971 51.7461C479.971 51.2969 479.886 50.903 479.717 50.5645C479.554 50.2194 479.313 49.9492 478.994 49.7539C478.675 49.5521 478.288 49.4512 477.832 49.4512C477.305 49.4512 476.862 49.5651 476.504 49.793C476.146 50.0208 475.876 50.3366 475.693 50.7402C475.511 51.1374 475.42 51.5931 475.42 52.1074H473.066C473.066 51.2806 473.255 50.5254 473.633 49.8418C474.01 49.1517 474.557 48.6048 475.273 48.2012C475.99 47.791 476.852 47.5859 477.861 47.5859C478.812 47.5859 479.619 47.7454 480.283 48.0645C480.947 48.3835 481.452 48.8359 481.797 49.4219C482.148 50.0078 482.324 50.7012 482.324 51.502C482.324 51.9447 482.253 52.3841 482.109 52.8203C481.966 53.2565 481.761 53.6927 481.494 54.1289C481.234 54.5586 480.924 54.9915 480.566 55.4277C480.208 55.8574 479.814 56.2936 479.385 56.7363L476.309 60.125H482.871ZM493.975 53.6992V56.0234C493.975 57.1367 493.864 58.0872 493.643 58.875C493.428 59.6562 493.115 60.291 492.705 60.7793C492.295 61.2676 491.803 61.6257 491.23 61.8535C490.664 62.0814 490.029 62.1953 489.326 62.1953C488.766 62.1953 488.245 62.1237 487.764 61.9805C487.288 61.8372 486.859 61.6126 486.475 61.3066C486.09 61.0007 485.762 60.6068 485.488 60.125C485.221 59.6367 485.013 59.054 484.863 58.377C484.72 57.6999 484.648 56.9154 484.648 56.0234V53.6992C484.648 52.5794 484.759 51.6354 484.98 50.8672C485.202 50.0924 485.518 49.4642 485.928 48.9824C486.338 48.4941 486.826 48.1393 487.393 47.918C487.965 47.6966 488.604 47.5859 489.307 47.5859C489.873 47.5859 490.394 47.6576 490.869 47.8008C491.351 47.9375 491.781 48.1556 492.158 48.4551C492.542 48.7546 492.868 49.1452 493.135 49.627C493.408 50.1022 493.617 50.6784 493.76 51.3555C493.903 52.026 493.975 52.8073 493.975 53.6992ZM491.621 56.3555V53.3477C491.621 52.7812 491.589 52.2832 491.523 51.8535C491.458 51.4173 491.361 51.0495 491.23 50.75C491.107 50.444 490.951 50.1966 490.762 50.0078C490.573 49.8125 490.358 49.6725 490.117 49.5879C489.876 49.4967 489.606 49.4512 489.307 49.4512C488.942 49.4512 488.617 49.5228 488.33 49.666C488.044 49.8027 487.803 50.0241 487.607 50.3301C487.412 50.6361 487.262 51.0397 487.158 51.541C487.061 52.0358 487.012 52.638 487.012 53.3477V56.3555C487.012 56.9284 487.044 57.4329 487.109 57.8691C487.174 58.3053 487.272 58.6797 487.402 58.9922C487.533 59.2982 487.689 59.5521 487.871 59.7539C488.06 59.9492 488.275 60.0924 488.516 60.1836C488.763 60.2747 489.033 60.3203 489.326 60.3203C489.697 60.3203 490.026 60.2487 490.312 60.1055C490.599 59.9622 490.84 59.7344 491.035 59.4219C491.23 59.1029 491.377 58.6895 491.475 58.1816C491.572 57.6738 491.621 57.0651 491.621 56.3555ZM505.605 60.125V62H496.074V60.3887L500.703 55.3398C501.211 54.7669 501.611 54.2721 501.904 53.8555C502.197 53.4388 502.402 53.0645 502.52 52.7324C502.643 52.3939 502.705 52.0651 502.705 51.7461C502.705 51.2969 502.62 50.903 502.451 50.5645C502.288 50.2194 502.048 49.9492 501.729 49.7539C501.41 49.5521 501.022 49.4512 500.566 49.4512C500.039 49.4512 499.596 49.5651 499.238 49.793C498.88 50.0208 498.61 50.3366 498.428 50.7402C498.245 51.1374 498.154 51.5931 498.154 52.1074H495.801C495.801 51.2806 495.99 50.5254 496.367 49.8418C496.745 49.1517 497.292 48.6048 498.008 48.2012C498.724 47.791 499.587 47.5859 500.596 47.5859C501.546 47.5859 502.354 47.7454 503.018 48.0645C503.682 48.3835 504.186 48.8359 504.531 49.4219C504.883 50.0078 505.059 50.7012 505.059 51.502C505.059 51.9447 504.987 52.3841 504.844 52.8203C504.701 53.2565 504.495 53.6927 504.229 54.1289C503.968 54.5586 503.659 54.9915 503.301 55.4277C502.943 55.8574 502.549 56.2936 502.119 56.7363L499.043 60.125H505.605ZM516.709 53.6992V56.0234C516.709 57.1367 516.598 58.0872 516.377 58.875C516.162 59.6562 515.85 60.291 515.439 60.7793C515.029 61.2676 514.538 61.6257 513.965 61.8535C513.398 62.0814 512.764 62.1953 512.061 62.1953C511.501 62.1953 510.98 62.1237 510.498 61.9805C510.023 61.8372 509.593 61.6126 509.209 61.3066C508.825 61.0007 508.496 60.6068 508.223 60.125C507.956 59.6367 507.747 59.054 507.598 58.377C507.454 57.6999 507.383 56.9154 507.383 56.0234V53.6992C507.383 52.5794 507.493 51.6354 507.715 50.8672C507.936 50.0924 508.252 49.4642 508.662 48.9824C509.072 48.4941 509.561 48.1393 510.127 47.918C510.7 47.6966 511.338 47.5859 512.041 47.5859C512.607 47.5859 513.128 47.6576 513.604 47.8008C514.085 47.9375 514.515 48.1556 514.893 48.4551C515.277 48.7546 515.602 49.1452 515.869 49.627C516.143 50.1022 516.351 50.6784 516.494 51.3555C516.637 52.026 516.709 52.8073 516.709 53.6992ZM514.355 56.3555V53.3477C514.355 52.7812 514.323 52.2832 514.258 51.8535C514.193 51.4173 514.095 51.0495 513.965 50.75C513.841 50.444 513.685 50.1966 513.496 50.0078C513.307 49.8125 513.092 49.6725 512.852 49.5879C512.611 49.4967 512.34 49.4512 512.041 49.4512C511.676 49.4512 511.351 49.5228 511.064 49.666C510.778 49.8027 510.537 50.0241 510.342 50.3301C510.146 50.6361 509.997 51.0397 509.893 51.541C509.795 52.0358 509.746 52.638 509.746 53.3477V56.3555C509.746 56.9284 509.779 57.4329 509.844 57.8691C509.909 58.3053 510.007 58.6797 510.137 58.9922C510.267 59.2982 510.423 59.5521 510.605 59.7539C510.794 59.9492 511.009 60.0924 511.25 60.1836C511.497 60.2747 511.768 60.3203 512.061 60.3203C512.432 60.3203 512.76 60.2487 513.047 60.1055C513.333 59.9622 513.574 59.7344 513.77 59.4219C513.965 59.1029 514.111 58.6895 514.209 58.1816C514.307 57.6738 514.355 57.0651 514.355 56.3555Z" fill="white"/>
<rect x="768" y="35" width="94" height="40" rx="10" fill="#002C29"/>
<path d="M802.871 60.125V62H793.34V60.3887L797.969 55.3398C798.477 54.7669 798.877 54.2721 799.17 53.8555C799.463 53.4388 799.668 53.0645 799.785 52.7324C799.909 52.3939 799.971 52.0651 799.971 51.7461C799.971 51.2969 799.886 50.903 799.717 50.5645C799.554 50.2194 799.313 49.9492 798.994 49.7539C798.675 49.5521 798.288 49.4512 797.832 49.4512C797.305 49.4512 796.862 49.5651 796.504 49.793C796.146 50.0208 795.876 50.3366 795.693 50.7402C795.511 51.1374 795.42 51.5931 795.42 52.1074H793.066C793.066 51.2806 793.255 50.5254 793.633 49.8418C794.01 49.1517 794.557 48.6048 795.273 48.2012C795.99 47.791 796.852 47.5859 797.861 47.5859C798.812 47.5859 799.619 47.7454 800.283 48.0645C800.947 48.3835 801.452 48.8359 801.797 49.4219C802.148 50.0078 802.324 50.7012 802.324 51.502C802.324 51.9447 802.253 52.3841 802.109 52.8203C801.966 53.2565 801.761 53.6927 801.494 54.1289C801.234 54.5586 800.924 54.9915 800.566 55.4277C800.208 55.8574 799.814 56.2936 799.385 56.7363L796.309 60.125H802.871ZM813.975 53.6992V56.0234C813.975 57.1367 813.864 58.0872 813.643 58.875C813.428 59.6562 813.115 60.291 812.705 60.7793C812.295 61.2676 811.803 61.6257 811.23 61.8535C810.664 62.0814 810.029 62.1953 809.326 62.1953C808.766 62.1953 808.245 62.1237 807.764 61.9805C807.288 61.8372 806.859 61.6126 806.475 61.3066C806.09 61.0007 805.762 60.6068 805.488 60.125C805.221 59.6367 805.013 59.054 804.863 58.377C804.72 57.6999 804.648 56.9154 804.648 56.0234V53.6992C804.648 52.5794 804.759 51.6354 804.98 50.8672C805.202 50.0924 805.518 49.4642 805.928 48.9824C806.338 48.4941 806.826 48.1393 807.393 47.918C807.965 47.6966 808.604 47.5859 809.307 47.5859C809.873 47.5859 810.394 47.6576 810.869 47.8008C811.351 47.9375 811.781 48.1556 812.158 48.4551C812.542 48.7546 812.868 49.1452 813.135 49.627C813.408 50.1022 813.617 50.6784 813.76 51.3555C813.903 52.026 813.975 52.8073 813.975 53.6992ZM811.621 56.3555V53.3477C811.621 52.7812 811.589 52.2832 811.523 51.8535C811.458 51.4173 811.361 51.0495 811.23 50.75C811.107 50.444 810.951 50.1966 810.762 50.0078C810.573 49.8125 810.358 49.6725 810.117 49.5879C809.876 49.4967 809.606 49.4512 809.307 49.4512C808.942 49.4512 808.617 49.5228 808.33 49.666C808.044 49.8027 807.803 50.0241 807.607 50.3301C807.412 50.6361 807.262 51.0397 807.158 51.541C807.061 52.0358 807.012 52.638 807.012 53.3477V56.3555C807.012 56.9284 807.044 57.4329 807.109 57.8691C807.174 58.3053 807.272 58.6797 807.402 58.9922C807.533 59.2982 807.689 59.5521 807.871 59.7539C808.06 59.9492 808.275 60.0924 808.516 60.1836C808.763 60.2747 809.033 60.3203 809.326 60.3203C809.697 60.3203 810.026 60.2487 810.312 60.1055C810.599 59.9622 810.84 59.7344 811.035 59.4219C811.23 59.1029 811.377 58.6895 811.475 58.1816C811.572 57.6738 811.621 57.0651 811.621 56.3555ZM825.605 60.125V62H816.074V60.3887L820.703 55.3398C821.211 54.7669 821.611 54.2721 821.904 53.8555C822.197 53.4388 822.402 53.0645 822.52 52.7324C822.643 52.3939 822.705 52.0651 822.705 51.7461C822.705 51.2969 822.62 50.903 822.451 50.5645C822.288 50.2194 822.048 49.9492 821.729 49.7539C821.41 49.5521 821.022 49.4512 820.566 49.4512C820.039 49.4512 819.596 49.5651 819.238 49.793C818.88 50.0208 818.61 50.3366 818.428 50.7402C818.245 51.1374 818.154 51.5931 818.154 52.1074H815.801C815.801 51.2806 815.99 50.5254 816.367 49.8418C816.745 49.1517 817.292 48.6048 818.008 48.2012C818.724 47.791 819.587 47.5859 820.596 47.5859C821.546 47.5859 822.354 47.7454 823.018 48.0645C823.682 48.3835 824.186 48.8359 824.531 49.4219C824.883 50.0078 825.059 50.7012 825.059 51.502C825.059 51.9447 824.987 52.3841 824.844 52.8203C824.701 53.2565 824.495 53.6927 824.229 54.1289C823.968 54.5586 823.659 54.9915 823.301 55.4277C822.943 55.8574 822.549 56.2936 822.119 56.7363L819.043 60.125H825.605ZM830.205 53.8262H831.611C832.158 53.8262 832.611 53.7318 832.969 53.543C833.333 53.3542 833.604 53.0938 833.779 52.7617C833.955 52.4297 834.043 52.0488 834.043 51.6191C834.043 51.1699 833.962 50.7858 833.799 50.4668C833.643 50.1413 833.402 49.8906 833.076 49.7148C832.757 49.5391 832.35 49.4512 831.855 49.4512C831.439 49.4512 831.061 49.5358 830.723 49.7051C830.391 49.8678 830.127 50.1022 829.932 50.4082C829.736 50.7077 829.639 51.0658 829.639 51.4824H827.275C827.275 50.7272 827.474 50.0566 827.871 49.4707C828.268 48.8848 828.809 48.4258 829.492 48.0938C830.182 47.7552 830.957 47.5859 831.816 47.5859C832.734 47.5859 833.535 47.7389 834.219 48.0449C834.909 48.3444 835.446 48.7936 835.83 49.3926C836.214 49.9915 836.406 50.7337 836.406 51.6191C836.406 52.0228 836.312 52.4329 836.123 52.8496C835.934 53.2663 835.654 53.6471 835.283 53.9922C834.912 54.3307 834.45 54.6074 833.896 54.8223C833.343 55.0306 832.702 55.1348 831.973 55.1348H830.205V53.8262ZM830.205 55.6621V54.373H831.973C832.806 54.373 833.516 54.4707 834.102 54.666C834.694 54.8613 835.176 55.1315 835.547 55.4766C835.918 55.8151 836.188 56.2025 836.357 56.6387C836.533 57.0749 836.621 57.5371 836.621 58.0254C836.621 58.6895 836.501 59.2819 836.26 59.8027C836.025 60.3171 835.69 60.7533 835.254 61.1113C834.818 61.4694 834.307 61.7396 833.721 61.9219C833.141 62.1042 832.51 62.1953 831.826 62.1953C831.214 62.1953 830.628 62.1107 830.068 61.9414C829.508 61.7721 829.007 61.5215 828.564 61.1895C828.122 60.8509 827.77 60.431 827.51 59.9297C827.256 59.4219 827.129 58.8359 827.129 58.1719H829.482C829.482 58.5951 829.58 58.9694 829.775 59.2949C829.977 59.6139 830.257 59.8646 830.615 60.0469C830.98 60.2292 831.396 60.3203 831.865 60.3203C832.36 60.3203 832.786 60.2324 833.145 60.0566C833.503 59.8809 833.776 59.6204 833.965 59.2754C834.16 58.9303 834.258 58.5137 834.258 58.0254C834.258 57.472 834.15 57.0228 833.936 56.6777C833.721 56.3327 833.415 56.0788 833.018 55.916C832.62 55.7467 832.152 55.6621 831.611 55.6621H830.205Z" fill="white"/>
<rect x="602" y="303" width="94" height="40" rx="10" fill="#002C29"/>
<path d="M636.871 328.125V330H627.34V328.389L631.969 323.34C632.477 322.767 632.877 322.272 633.17 321.855C633.463 321.439 633.668 321.064 633.785 320.732C633.909 320.394 633.971 320.065 633.971 319.746C633.971 319.297 633.886 318.903 633.717 318.564C633.554 318.219 633.313 317.949 632.994 317.754C632.675 317.552 632.288 317.451 631.832 317.451C631.305 317.451 630.862 317.565 630.504 317.793C630.146 318.021 629.876 318.337 629.693 318.74C629.511 319.137 629.42 319.593 629.42 320.107H627.066C627.066 319.281 627.255 318.525 627.633 317.842C628.01 317.152 628.557 316.605 629.273 316.201C629.99 315.791 630.852 315.586 631.861 315.586C632.812 315.586 633.619 315.745 634.283 316.064C634.947 316.383 635.452 316.836 635.797 317.422C636.148 318.008 636.324 318.701 636.324 319.502C636.324 319.945 636.253 320.384 636.109 320.82C635.966 321.257 635.761 321.693 635.494 322.129C635.234 322.559 634.924 322.992 634.566 323.428C634.208 323.857 633.814 324.294 633.385 324.736L630.309 328.125H636.871ZM647.975 321.699V324.023C647.975 325.137 647.864 326.087 647.643 326.875C647.428 327.656 647.115 328.291 646.705 328.779C646.295 329.268 645.803 329.626 645.23 329.854C644.664 330.081 644.029 330.195 643.326 330.195C642.766 330.195 642.245 330.124 641.764 329.98C641.288 329.837 640.859 329.613 640.475 329.307C640.09 329.001 639.762 328.607 639.488 328.125C639.221 327.637 639.013 327.054 638.863 326.377C638.72 325.7 638.648 324.915 638.648 324.023V321.699C638.648 320.579 638.759 319.635 638.98 318.867C639.202 318.092 639.518 317.464 639.928 316.982C640.338 316.494 640.826 316.139 641.393 315.918C641.965 315.697 642.604 315.586 643.307 315.586C643.873 315.586 644.394 315.658 644.869 315.801C645.351 315.938 645.781 316.156 646.158 316.455C646.542 316.755 646.868 317.145 647.135 317.627C647.408 318.102 647.617 318.678 647.76 319.355C647.903 320.026 647.975 320.807 647.975 321.699ZM645.621 324.355V321.348C645.621 320.781 645.589 320.283 645.523 319.854C645.458 319.417 645.361 319.049 645.23 318.75C645.107 318.444 644.951 318.197 644.762 318.008C644.573 317.812 644.358 317.673 644.117 317.588C643.876 317.497 643.606 317.451 643.307 317.451C642.942 317.451 642.617 317.523 642.33 317.666C642.044 317.803 641.803 318.024 641.607 318.33C641.412 318.636 641.262 319.04 641.158 319.541C641.061 320.036 641.012 320.638 641.012 321.348V324.355C641.012 324.928 641.044 325.433 641.109 325.869C641.174 326.305 641.272 326.68 641.402 326.992C641.533 327.298 641.689 327.552 641.871 327.754C642.06 327.949 642.275 328.092 642.516 328.184C642.763 328.275 643.033 328.32 643.326 328.32C643.697 328.32 644.026 328.249 644.312 328.105C644.599 327.962 644.84 327.734 645.035 327.422C645.23 327.103 645.377 326.689 645.475 326.182C645.572 325.674 645.621 325.065 645.621 324.355ZM659.605 328.125V330H650.074V328.389L654.703 323.34C655.211 322.767 655.611 322.272 655.904 321.855C656.197 321.439 656.402 321.064 656.52 320.732C656.643 320.394 656.705 320.065 656.705 319.746C656.705 319.297 656.62 318.903 656.451 318.564C656.288 318.219 656.048 317.949 655.729 317.754C655.41 317.552 655.022 317.451 654.566 317.451C654.039 317.451 653.596 317.565 653.238 317.793C652.88 318.021 652.61 318.337 652.428 318.74C652.245 319.137 652.154 319.593 652.154 320.107H649.801C649.801 319.281 649.99 318.525 650.367 317.842C650.745 317.152 651.292 316.605 652.008 316.201C652.724 315.791 653.587 315.586 654.596 315.586C655.546 315.586 656.354 315.745 657.018 316.064C657.682 316.383 658.186 316.836 658.531 317.422C658.883 318.008 659.059 318.701 659.059 319.502C659.059 319.945 658.987 320.384 658.844 320.82C658.701 321.257 658.495 321.693 658.229 322.129C657.968 322.559 657.659 322.992 657.301 323.428C656.943 323.857 656.549 324.294 656.119 324.736L653.043 328.125H659.605ZM664.205 321.826H665.611C666.158 321.826 666.611 321.732 666.969 321.543C667.333 321.354 667.604 321.094 667.779 320.762C667.955 320.43 668.043 320.049 668.043 319.619C668.043 319.17 667.962 318.786 667.799 318.467C667.643 318.141 667.402 317.891 667.076 317.715C666.757 317.539 666.35 317.451 665.855 317.451C665.439 317.451 665.061 317.536 664.723 317.705C664.391 317.868 664.127 318.102 663.932 318.408C663.736 318.708 663.639 319.066 663.639 319.482H661.275C661.275 318.727 661.474 318.057 661.871 317.471C662.268 316.885 662.809 316.426 663.492 316.094C664.182 315.755 664.957 315.586 665.816 315.586C666.734 315.586 667.535 315.739 668.219 316.045C668.909 316.344 669.446 316.794 669.83 317.393C670.214 317.992 670.406 318.734 670.406 319.619C670.406 320.023 670.312 320.433 670.123 320.85C669.934 321.266 669.654 321.647 669.283 321.992C668.912 322.331 668.45 322.607 667.896 322.822C667.343 323.031 666.702 323.135 665.973 323.135H664.205V321.826ZM664.205 323.662V322.373H665.973C666.806 322.373 667.516 322.471 668.102 322.666C668.694 322.861 669.176 323.132 669.547 323.477C669.918 323.815 670.188 324.202 670.357 324.639C670.533 325.075 670.621 325.537 670.621 326.025C670.621 326.689 670.501 327.282 670.26 327.803C670.025 328.317 669.69 328.753 669.254 329.111C668.818 329.469 668.307 329.74 667.721 329.922C667.141 330.104 666.51 330.195 665.826 330.195C665.214 330.195 664.628 330.111 664.068 329.941C663.508 329.772 663.007 329.521 662.564 329.189C662.122 328.851 661.77 328.431 661.51 327.93C661.256 327.422 661.129 326.836 661.129 326.172H663.482C663.482 326.595 663.58 326.969 663.775 327.295C663.977 327.614 664.257 327.865 664.615 328.047C664.98 328.229 665.396 328.32 665.865 328.32C666.36 328.32 666.786 328.232 667.145 328.057C667.503 327.881 667.776 327.62 667.965 327.275C668.16 326.93 668.258 326.514 668.258 326.025C668.258 325.472 668.15 325.023 667.936 324.678C667.721 324.333 667.415 324.079 667.018 323.916C666.62 323.747 666.152 323.662 665.611 323.662H664.205Z" fill="white"/>
<rect x="929" y="283" width="94" height="40" rx="10" fill="#002C29"/>
<path d="M963.871 308.125V310H954.34V308.389L958.969 303.34C959.477 302.767 959.877 302.272 960.17 301.855C960.463 301.439 960.668 301.064 960.785 300.732C960.909 300.394 960.971 300.065 960.971 299.746C960.971 299.297 960.886 298.903 960.717 298.564C960.554 298.219 960.313 297.949 959.994 297.754C959.675 297.552 959.288 297.451 958.832 297.451C958.305 297.451 957.862 297.565 957.504 297.793C957.146 298.021 956.876 298.337 956.693 298.74C956.511 299.137 956.42 299.593 956.42 300.107H954.066C954.066 299.281 954.255 298.525 954.633 297.842C955.01 297.152 955.557 296.605 956.273 296.201C956.99 295.791 957.852 295.586 958.861 295.586C959.812 295.586 960.619 295.745 961.283 296.064C961.947 296.383 962.452 296.836 962.797 297.422C963.148 298.008 963.324 298.701 963.324 299.502C963.324 299.945 963.253 300.384 963.109 300.82C962.966 301.257 962.761 301.693 962.494 302.129C962.234 302.559 961.924 302.992 961.566 303.428C961.208 303.857 960.814 304.294 960.385 304.736L957.309 308.125H963.871ZM974.975 301.699V304.023C974.975 305.137 974.864 306.087 974.643 306.875C974.428 307.656 974.115 308.291 973.705 308.779C973.295 309.268 972.803 309.626 972.23 309.854C971.664 310.081 971.029 310.195 970.326 310.195C969.766 310.195 969.245 310.124 968.764 309.98C968.288 309.837 967.859 309.613 967.475 309.307C967.09 309.001 966.762 308.607 966.488 308.125C966.221 307.637 966.013 307.054 965.863 306.377C965.72 305.7 965.648 304.915 965.648 304.023V301.699C965.648 300.579 965.759 299.635 965.98 298.867C966.202 298.092 966.518 297.464 966.928 296.982C967.338 296.494 967.826 296.139 968.393 295.918C968.965 295.697 969.604 295.586 970.307 295.586C970.873 295.586 971.394 295.658 971.869 295.801C972.351 295.938 972.781 296.156 973.158 296.455C973.542 296.755 973.868 297.145 974.135 297.627C974.408 298.102 974.617 298.678 974.76 299.355C974.903 300.026 974.975 300.807 974.975 301.699ZM972.621 304.355V301.348C972.621 300.781 972.589 300.283 972.523 299.854C972.458 299.417 972.361 299.049 972.23 298.75C972.107 298.444 971.951 298.197 971.762 298.008C971.573 297.812 971.358 297.673 971.117 297.588C970.876 297.497 970.606 297.451 970.307 297.451C969.942 297.451 969.617 297.523 969.33 297.666C969.044 297.803 968.803 298.024 968.607 298.33C968.412 298.636 968.262 299.04 968.158 299.541C968.061 300.036 968.012 300.638 968.012 301.348V304.355C968.012 304.928 968.044 305.433 968.109 305.869C968.174 306.305 968.272 306.68 968.402 306.992C968.533 307.298 968.689 307.552 968.871 307.754C969.06 307.949 969.275 308.092 969.516 308.184C969.763 308.275 970.033 308.32 970.326 308.32C970.697 308.32 971.026 308.249 971.312 308.105C971.599 307.962 971.84 307.734 972.035 307.422C972.23 307.103 972.377 306.689 972.475 306.182C972.572 305.674 972.621 305.065 972.621 304.355ZM986.605 308.125V310H977.074V308.389L981.703 303.34C982.211 302.767 982.611 302.272 982.904 301.855C983.197 301.439 983.402 301.064 983.52 300.732C983.643 300.394 983.705 300.065 983.705 299.746C983.705 299.297 983.62 298.903 983.451 298.564C983.288 298.219 983.048 297.949 982.729 297.754C982.41 297.552 982.022 297.451 981.566 297.451C981.039 297.451 980.596 297.565 980.238 297.793C979.88 298.021 979.61 298.337 979.428 298.74C979.245 299.137 979.154 299.593 979.154 300.107H976.801C976.801 299.281 976.99 298.525 977.367 297.842C977.745 297.152 978.292 296.605 979.008 296.201C979.724 295.791 980.587 295.586 981.596 295.586C982.546 295.586 983.354 295.745 984.018 296.064C984.682 296.383 985.186 296.836 985.531 297.422C985.883 298.008 986.059 298.701 986.059 299.502C986.059 299.945 985.987 300.384 985.844 300.82C985.701 301.257 985.495 301.693 985.229 302.129C984.968 302.559 984.659 302.992 984.301 303.428C983.943 303.857 983.549 304.294 983.119 304.736L980.043 308.125H986.605ZM991.205 301.826H992.611C993.158 301.826 993.611 301.732 993.969 301.543C994.333 301.354 994.604 301.094 994.779 300.762C994.955 300.43 995.043 300.049 995.043 299.619C995.043 299.17 994.962 298.786 994.799 298.467C994.643 298.141 994.402 297.891 994.076 297.715C993.757 297.539 993.35 297.451 992.855 297.451C992.439 297.451 992.061 297.536 991.723 297.705C991.391 297.868 991.127 298.102 990.932 298.408C990.736 298.708 990.639 299.066 990.639 299.482H988.275C988.275 298.727 988.474 298.057 988.871 297.471C989.268 296.885 989.809 296.426 990.492 296.094C991.182 295.755 991.957 295.586 992.816 295.586C993.734 295.586 994.535 295.739 995.219 296.045C995.909 296.344 996.446 296.794 996.83 297.393C997.214 297.992 997.406 298.734 997.406 299.619C997.406 300.023 997.312 300.433 997.123 300.85C996.934 301.266 996.654 301.647 996.283 301.992C995.912 302.331 995.45 302.607 994.896 302.822C994.343 303.031 993.702 303.135 992.973 303.135H991.205V301.826ZM991.205 303.662V302.373H992.973C993.806 302.373 994.516 302.471 995.102 302.666C995.694 302.861 996.176 303.132 996.547 303.477C996.918 303.815 997.188 304.202 997.357 304.639C997.533 305.075 997.621 305.537 997.621 306.025C997.621 306.689 997.501 307.282 997.26 307.803C997.025 308.317 996.69 308.753 996.254 309.111C995.818 309.469 995.307 309.74 994.721 309.922C994.141 310.104 993.51 310.195 992.826 310.195C992.214 310.195 991.628 310.111 991.068 309.941C990.508 309.772 990.007 309.521 989.564 309.189C989.122 308.851 988.77 308.431 988.51 307.93C988.256 307.422 988.129 306.836 988.129 306.172H990.482C990.482 306.595 990.58 306.969 990.775 307.295C990.977 307.614 991.257 307.865 991.615 308.047C991.98 308.229 992.396 308.32 992.865 308.32C993.36 308.32 993.786 308.232 994.145 308.057C994.503 307.881 994.776 307.62 994.965 307.275C995.16 306.93 995.258 306.514 995.258 306.025C995.258 305.472 995.15 305.023 994.936 304.678C994.721 304.333 994.415 304.079 994.018 303.916C993.62 303.747 993.152 303.662 992.611 303.662H991.205Z" fill="white"/>
<rect x="1196" y="67" width="94" height="40" rx="10" fill="#002C29"/>
<path d="M1230.87 92.125V94H1221.34V92.3887L1225.97 87.3398C1226.48 86.7669 1226.88 86.2721 1227.17 85.8555C1227.46 85.4388 1227.67 85.0645 1227.79 84.7324C1227.91 84.3939 1227.97 84.0651 1227.97 83.7461C1227.97 83.2969 1227.89 82.903 1227.72 82.5645C1227.55 82.2194 1227.31 81.9492 1226.99 81.7539C1226.68 81.5521 1226.29 81.4512 1225.83 81.4512C1225.3 81.4512 1224.86 81.5651 1224.5 81.793C1224.15 82.0208 1223.88 82.3366 1223.69 82.7402C1223.51 83.1374 1223.42 83.5931 1223.42 84.1074H1221.07C1221.07 83.2806 1221.26 82.5254 1221.63 81.8418C1222.01 81.1517 1222.56 80.6048 1223.27 80.2012C1223.99 79.791 1224.85 79.5859 1225.86 79.5859C1226.81 79.5859 1227.62 79.7454 1228.28 80.0645C1228.95 80.3835 1229.45 80.8359 1229.8 81.4219C1230.15 82.0078 1230.32 82.7012 1230.32 83.502C1230.32 83.9447 1230.25 84.3841 1230.11 84.8203C1229.97 85.2565 1229.76 85.6927 1229.49 86.1289C1229.23 86.5586 1228.92 86.9915 1228.57 87.4277C1228.21 87.8574 1227.81 88.2936 1227.38 88.7363L1224.31 92.125H1230.87ZM1241.97 85.6992V88.0234C1241.97 89.1367 1241.86 90.0872 1241.64 90.875C1241.43 91.6562 1241.12 92.291 1240.71 92.7793C1240.29 93.2676 1239.8 93.6257 1239.23 93.8535C1238.66 94.0814 1238.03 94.1953 1237.33 94.1953C1236.77 94.1953 1236.25 94.1237 1235.76 93.9805C1235.29 93.8372 1234.86 93.6126 1234.47 93.3066C1234.09 93.0007 1233.76 92.6068 1233.49 92.125C1233.22 91.6367 1233.01 91.054 1232.86 90.377C1232.72 89.6999 1232.65 88.9154 1232.65 88.0234V85.6992C1232.65 84.5794 1232.76 83.6354 1232.98 82.8672C1233.2 82.0924 1233.52 81.4642 1233.93 80.9824C1234.34 80.4941 1234.83 80.1393 1235.39 79.918C1235.97 79.6966 1236.6 79.5859 1237.31 79.5859C1237.87 79.5859 1238.39 79.6576 1238.87 79.8008C1239.35 79.9375 1239.78 80.1556 1240.16 80.4551C1240.54 80.7546 1240.87 81.1452 1241.13 81.627C1241.41 82.1022 1241.62 82.6784 1241.76 83.3555C1241.9 84.026 1241.97 84.8073 1241.97 85.6992ZM1239.62 88.3555V85.3477C1239.62 84.7812 1239.59 84.2832 1239.52 83.8535C1239.46 83.4173 1239.36 83.0495 1239.23 82.75C1239.11 82.444 1238.95 82.1966 1238.76 82.0078C1238.57 81.8125 1238.36 81.6725 1238.12 81.5879C1237.88 81.4967 1237.61 81.4512 1237.31 81.4512C1236.94 81.4512 1236.62 81.5228 1236.33 81.666C1236.04 81.8027 1235.8 82.0241 1235.61 82.3301C1235.41 82.6361 1235.26 83.0397 1235.16 83.541C1235.06 84.0358 1235.01 84.638 1235.01 85.3477V88.3555C1235.01 88.9284 1235.04 89.4329 1235.11 89.8691C1235.17 90.3053 1235.27 90.6797 1235.4 90.9922C1235.53 91.2982 1235.69 91.5521 1235.87 91.7539C1236.06 91.9492 1236.27 92.0924 1236.52 92.1836C1236.76 92.2747 1237.03 92.3203 1237.33 92.3203C1237.7 92.3203 1238.03 92.2487 1238.31 92.1055C1238.6 91.9622 1238.84 91.7344 1239.04 91.4219C1239.23 91.1029 1239.38 90.6895 1239.47 90.1816C1239.57 89.6738 1239.62 89.0651 1239.62 88.3555ZM1253.61 92.125V94H1244.07V92.3887L1248.7 87.3398C1249.21 86.7669 1249.61 86.2721 1249.9 85.8555C1250.2 85.4388 1250.4 85.0645 1250.52 84.7324C1250.64 84.3939 1250.71 84.0651 1250.71 83.7461C1250.71 83.2969 1250.62 82.903 1250.45 82.5645C1250.29 82.2194 1250.05 81.9492 1249.73 81.7539C1249.41 81.5521 1249.02 81.4512 1248.57 81.4512C1248.04 81.4512 1247.6 81.5651 1247.24 81.793C1246.88 82.0208 1246.61 82.3366 1246.43 82.7402C1246.25 83.1374 1246.15 83.5931 1246.15 84.1074H1243.8C1243.8 83.2806 1243.99 82.5254 1244.37 81.8418C1244.74 81.1517 1245.29 80.6048 1246.01 80.2012C1246.72 79.791 1247.59 79.5859 1248.6 79.5859C1249.55 79.5859 1250.35 79.7454 1251.02 80.0645C1251.68 80.3835 1252.19 80.8359 1252.53 81.4219C1252.88 82.0078 1253.06 82.7012 1253.06 83.502C1253.06 83.9447 1252.99 84.3841 1252.84 84.8203C1252.7 85.2565 1252.5 85.6927 1252.23 86.1289C1251.97 86.5586 1251.66 86.9915 1251.3 87.4277C1250.94 87.8574 1250.55 88.2936 1250.12 88.7363L1247.04 92.125H1253.61ZM1265.24 88.9316V90.8066H1254.98L1254.9 89.3906L1261.04 79.7812H1262.92L1260.88 83.2773L1257.36 88.9316H1265.24ZM1263.46 79.7812V94H1261.11V79.7812H1263.46Z" fill="white"/>
</svg>
