<svg width="170" height="143" viewBox="0 0 170 143" fill="none" xmlns="http://www.w3.org/2000/svg">
<path d="M96 127.999L96.9955 129.121L96 127.999ZM100.5 13.4985L101.248 14.7987L100.5 13.4985ZM168.718 14.8155C169.445 14.419 169.714 13.5079 169.317 12.7806L162.856 0.92732C162.459 0.199945 161.548 -0.068275 160.821 0.328233C160.093 0.724741 159.825 1.63583 160.222 2.3632L165.965 12.8994L155.429 18.6429C154.701 19.0395 154.433 19.9505 154.83 20.6779C155.226 21.4053 156.137 21.6735 156.865 21.277L168.718 14.8155ZM0.5 135.499C0.127116 136.951 0.127689 136.952 0.12852 136.952C0.12914 136.952 0.130228 136.952 0.131467 136.953C0.133944 136.953 0.137447 136.954 0.141969 136.955C0.151013 136.958 0.164133 136.961 0.181277 136.965C0.215566 136.974 0.265954 136.987 0.332033 137.003C0.464191 137.036 0.659122 137.084 0.913555 137.145C1.42241 137.268 2.16935 137.444 3.12822 137.658C5.04578 138.087 7.81188 138.671 11.217 139.294C18.0243 140.538 27.4006 141.937 37.6659 142.556C47.9241 143.175 59.1168 143.016 69.541 141.12C79.9531 139.227 89.7174 135.578 96.9955 129.121L95.0045 126.876C88.2908 132.833 79.1217 136.329 69.0041 138.169C58.8986 140.007 47.9653 140.172 37.8464 139.562C27.7346 138.952 18.4829 137.572 11.7563 136.342C8.39458 135.728 5.66734 135.152 3.78329 134.731C2.84134 134.52 2.11041 134.348 1.61659 134.229C1.36969 134.169 1.18208 134.123 1.05704 134.092C0.994515 134.076 0.947636 134.065 0.916807 134.057C0.901393 134.053 0.889991 134.05 0.882654 134.048C0.878985 134.047 0.876332 134.046 0.874702 134.046C0.873886 134.046 0.873433 134.046 0.873024 134.046C0.872826 134.046 0.872884 134.046 0.5 135.499ZM96.9955 129.121C105.836 121.277 107.933 111.258 106.863 100.567C105.801 89.9624 101.603 78.4792 97.6694 67.4747C93.6943 56.3538 90.0032 45.753 89.639 36.5675C89.4584 32.0108 90.1039 27.8886 91.8883 24.2707C93.6657 20.6671 96.6246 17.4585 101.248 14.7987L99.752 12.1983C94.6782 15.1173 91.2697 18.7429 89.1978 22.9437C87.1328 27.1303 86.447 31.7829 86.6414 36.6864C87.0273 46.4212 90.9118 57.4822 94.8445 68.4845C98.8188 79.6033 102.861 90.7048 103.878 100.866C104.886 110.941 102.901 119.87 95.0045 126.876L96.9955 129.121ZM101.248 14.7987C112.215 8.48943 128.65 8.41871 142.644 10.0589C149.587 10.8727 155.829 12.0943 160.336 13.1131C162.588 13.6222 164.404 14.08 165.654 14.4098C166.279 14.5746 166.763 14.7074 167.089 14.7986C167.252 14.8442 167.375 14.8793 167.457 14.9029C167.498 14.9147 167.529 14.9235 167.549 14.9293C167.559 14.9322 167.566 14.9344 167.571 14.9357C167.573 14.9364 167.575 14.9369 167.576 14.9372C167.576 14.9373 167.576 14.9374 167.576 14.9375C167.576 14.9375 167.576 14.9374 168 13.4985C168.424 12.0596 168.423 12.0594 168.423 12.0592C168.422 12.0591 168.421 12.0589 168.42 12.0586C168.419 12.0581 168.416 12.0574 168.413 12.0565C168.407 12.0547 168.398 12.0521 168.387 12.0487C168.363 12.042 168.33 12.0322 168.285 12.0195C168.197 11.9941 168.067 11.9571 167.897 11.9096C167.558 11.8146 167.06 11.6778 166.419 11.5089C165.139 11.1712 163.288 10.7047 160.997 10.1869C156.418 9.15173 150.068 7.9086 142.993 7.0793C128.949 5.43323 111.634 5.3625 99.752 12.1983L101.248 14.7987Z" fill="#002C29"/>
</svg>
