<svg width="320" height="136" viewBox="0 0 320 136" fill="none" xmlns="http://www.w3.org/2000/svg">
<rect width="320" height="136" rx="3.07397" fill="white"/>
<path d="M73.0723 111.709V112.338C73.0723 113.085 72.9788 113.755 72.792 114.348C72.6051 114.94 72.3363 115.444 71.9854 115.858C71.6344 116.273 71.2129 116.59 70.7207 116.809C70.2331 117.027 69.6862 117.137 69.0801 117.137C68.4922 117.137 67.9521 117.027 67.46 116.809C66.9723 116.59 66.5485 116.273 66.1885 115.858C65.833 115.444 65.5573 114.94 65.3613 114.348C65.1654 113.755 65.0674 113.085 65.0674 112.338V111.709C65.0674 110.962 65.1631 110.294 65.3545 109.706C65.5505 109.114 65.8262 108.61 66.1816 108.195C66.5371 107.776 66.9587 107.457 67.4463 107.238C67.9385 107.02 68.4785 106.91 69.0664 106.91C69.6725 106.91 70.2194 107.02 70.707 107.238C71.1992 107.457 71.6208 107.776 71.9717 108.195C72.3271 108.61 72.5983 109.114 72.7852 109.706C72.9766 110.294 73.0723 110.962 73.0723 111.709ZM71.7666 112.338V111.695C71.7666 111.103 71.7051 110.579 71.582 110.123C71.4635 109.667 71.2881 109.285 71.0557 108.975C70.8232 108.665 70.5384 108.43 70.2012 108.271C69.8685 108.111 69.4902 108.031 69.0664 108.031C68.6562 108.031 68.2848 108.111 67.9521 108.271C67.624 108.43 67.3415 108.665 67.1045 108.975C66.8721 109.285 66.6921 109.667 66.5645 110.123C66.4368 110.579 66.373 111.103 66.373 111.695V112.338C66.373 112.935 66.4368 113.464 66.5645 113.924C66.6921 114.38 66.8743 114.765 67.1113 115.079C67.3529 115.389 67.6377 115.624 67.9658 115.783C68.2985 115.943 68.6699 116.022 69.0801 116.022C69.5085 116.022 69.889 115.943 70.2217 115.783C70.5544 115.624 70.8346 115.389 71.0625 115.079C71.2949 114.765 71.4704 114.38 71.5889 113.924C71.7074 113.464 71.7666 112.935 71.7666 112.338ZM76.1211 111.025V119.844H74.8496V109.604H76.0117L76.1211 111.025ZM81.1045 113.24V113.384C81.1045 113.922 81.0407 114.421 80.9131 114.881C80.7855 115.337 80.5986 115.733 80.3525 116.07C80.111 116.408 79.8125 116.67 79.457 116.856C79.1016 117.043 78.6937 117.137 78.2334 117.137C77.764 117.137 77.3493 117.059 76.9893 116.904C76.6292 116.749 76.3239 116.524 76.0732 116.228C75.8226 115.931 75.6221 115.576 75.4717 115.161C75.3258 114.746 75.2256 114.279 75.1709 113.76V112.994C75.2256 112.447 75.3281 111.957 75.4785 111.524C75.6289 111.091 75.8271 110.722 76.0732 110.417C76.3239 110.107 76.627 109.872 76.9824 109.713C77.3379 109.549 77.748 109.467 78.2129 109.467C78.6777 109.467 79.0902 109.558 79.4502 109.74C79.8102 109.918 80.1133 110.173 80.3594 110.506C80.6055 110.839 80.79 111.237 80.9131 111.702C81.0407 112.162 81.1045 112.675 81.1045 113.24ZM79.833 113.384V113.24C79.833 112.871 79.7943 112.525 79.7168 112.201C79.6393 111.873 79.5186 111.586 79.3545 111.34C79.195 111.089 78.9899 110.893 78.7393 110.752C78.4886 110.606 78.1901 110.533 77.8438 110.533C77.5247 110.533 77.2467 110.588 77.0098 110.697C76.7773 110.807 76.5791 110.955 76.415 111.142C76.251 111.324 76.1165 111.534 76.0117 111.771C75.9115 112.003 75.8363 112.244 75.7861 112.495V114.266C75.8773 114.585 76.0049 114.885 76.1689 115.168C76.333 115.446 76.5518 115.672 76.8252 115.845C77.0986 116.013 77.4427 116.098 77.8574 116.098C78.1992 116.098 78.4932 116.027 78.7393 115.886C78.9899 115.74 79.195 115.542 79.3545 115.291C79.5186 115.04 79.6393 114.753 79.7168 114.43C79.7943 114.102 79.833 113.753 79.833 113.384ZM85.7871 117.137C85.2721 117.137 84.805 117.05 84.3857 116.877C83.971 116.699 83.6133 116.451 83.3125 116.132C83.0163 115.813 82.7884 115.435 82.6289 114.997C82.4694 114.56 82.3896 114.081 82.3896 113.562V113.274C82.3896 112.673 82.4785 112.137 82.6562 111.668C82.834 111.194 83.0755 110.793 83.3809 110.465C83.6862 110.137 84.0326 109.888 84.4199 109.72C84.8073 109.551 85.2083 109.467 85.623 109.467C86.1517 109.467 86.6074 109.558 86.9902 109.74C87.3776 109.923 87.6943 110.178 87.9404 110.506C88.1865 110.829 88.3688 111.212 88.4873 111.654C88.6058 112.092 88.665 112.57 88.665 113.09V113.657H83.1416V112.625H87.4004V112.529C87.3822 112.201 87.3138 111.882 87.1953 111.572C87.0814 111.262 86.8991 111.007 86.6484 110.807C86.3978 110.606 86.056 110.506 85.623 110.506C85.3359 110.506 85.0716 110.567 84.8301 110.69C84.5885 110.809 84.3812 110.987 84.208 111.224C84.0348 111.461 83.9004 111.75 83.8047 112.092C83.709 112.434 83.6611 112.828 83.6611 113.274V113.562C83.6611 113.912 83.709 114.243 83.8047 114.553C83.9049 114.858 84.0485 115.127 84.2354 115.359C84.4268 115.592 84.6569 115.774 84.9258 115.906C85.1992 116.038 85.5091 116.104 85.8555 116.104C86.3021 116.104 86.6803 116.013 86.9902 115.831C87.3001 115.649 87.5713 115.405 87.8037 115.1L88.5693 115.708C88.4098 115.95 88.207 116.18 87.9609 116.398C87.7148 116.617 87.4118 116.795 87.0518 116.932C86.6963 117.068 86.2747 117.137 85.7871 117.137ZM91.4062 111.183V117H90.1416V109.604H91.3379L91.4062 111.183ZM91.1055 113.021L90.5791 113.001C90.5837 112.495 90.6589 112.028 90.8047 111.6C90.9505 111.167 91.1556 110.791 91.4199 110.472C91.6842 110.153 91.9987 109.907 92.3633 109.733C92.7324 109.556 93.1403 109.467 93.5869 109.467C93.9515 109.467 94.2796 109.517 94.5713 109.617C94.863 109.713 95.1113 109.868 95.3164 110.082C95.526 110.296 95.6855 110.574 95.7949 110.916C95.9043 111.253 95.959 111.666 95.959 112.153V117H94.6875V112.14C94.6875 111.752 94.6305 111.442 94.5166 111.21C94.4027 110.973 94.2363 110.802 94.0176 110.697C93.7988 110.588 93.5299 110.533 93.2109 110.533C92.8965 110.533 92.6094 110.599 92.3496 110.731C92.0944 110.864 91.8734 111.046 91.6865 111.278C91.5042 111.511 91.3607 111.777 91.2559 112.078C91.1556 112.374 91.1055 112.689 91.1055 113.021ZM100.512 112.249V113.288H97.1758V112.249H100.512ZM101.414 113.384V113.227C101.414 112.693 101.492 112.199 101.646 111.743C101.801 111.283 102.025 110.884 102.316 110.547C102.608 110.205 102.961 109.941 103.376 109.754C103.791 109.562 104.256 109.467 104.771 109.467C105.29 109.467 105.757 109.562 106.172 109.754C106.591 109.941 106.947 110.205 107.238 110.547C107.535 110.884 107.76 111.283 107.915 111.743C108.07 112.199 108.147 112.693 108.147 113.227V113.384C108.147 113.917 108.07 114.411 107.915 114.867C107.76 115.323 107.535 115.722 107.238 116.063C106.947 116.401 106.593 116.665 106.179 116.856C105.769 117.043 105.304 117.137 104.784 117.137C104.265 117.137 103.798 117.043 103.383 116.856C102.968 116.665 102.613 116.401 102.316 116.063C102.025 115.722 101.801 115.323 101.646 114.867C101.492 114.411 101.414 113.917 101.414 113.384ZM102.679 113.227V113.384C102.679 113.753 102.722 114.102 102.809 114.43C102.895 114.753 103.025 115.04 103.198 115.291C103.376 115.542 103.597 115.74 103.861 115.886C104.126 116.027 104.433 116.098 104.784 116.098C105.131 116.098 105.434 116.027 105.693 115.886C105.958 115.74 106.176 115.542 106.35 115.291C106.523 115.04 106.653 114.753 106.739 114.43C106.83 114.102 106.876 113.753 106.876 113.384V113.227C106.876 112.862 106.83 112.518 106.739 112.194C106.653 111.866 106.521 111.577 106.343 111.326C106.17 111.071 105.951 110.87 105.687 110.725C105.427 110.579 105.121 110.506 104.771 110.506C104.424 110.506 104.119 110.579 103.854 110.725C103.595 110.87 103.376 111.071 103.198 111.326C103.025 111.577 102.895 111.866 102.809 112.194C102.722 112.518 102.679 112.862 102.679 113.227ZM114.396 115.564V106.5H115.667V117H114.505L114.396 115.564ZM109.419 113.384V113.24C109.419 112.675 109.487 112.162 109.624 111.702C109.765 111.237 109.964 110.839 110.219 110.506C110.479 110.173 110.786 109.918 111.142 109.74C111.502 109.558 111.903 109.467 112.345 109.467C112.81 109.467 113.215 109.549 113.562 109.713C113.912 109.872 114.209 110.107 114.45 110.417C114.696 110.722 114.89 111.091 115.031 111.524C115.173 111.957 115.271 112.447 115.325 112.994V113.623C115.275 114.165 115.177 114.653 115.031 115.086C114.89 115.519 114.696 115.888 114.45 116.193C114.209 116.499 113.912 116.733 113.562 116.897C113.211 117.057 112.8 117.137 112.331 117.137C111.898 117.137 111.502 117.043 111.142 116.856C110.786 116.67 110.479 116.408 110.219 116.07C109.964 115.733 109.765 115.337 109.624 114.881C109.487 114.421 109.419 113.922 109.419 113.384ZM110.69 113.24V113.384C110.69 113.753 110.727 114.099 110.8 114.423C110.877 114.746 110.996 115.031 111.155 115.277C111.315 115.523 111.518 115.717 111.764 115.858C112.01 115.995 112.304 116.063 112.646 116.063C113.065 116.063 113.409 115.975 113.678 115.797C113.951 115.619 114.17 115.384 114.334 115.093C114.498 114.801 114.626 114.484 114.717 114.143V112.495C114.662 112.244 114.582 112.003 114.478 111.771C114.377 111.534 114.245 111.324 114.081 111.142C113.922 110.955 113.723 110.807 113.486 110.697C113.254 110.588 112.978 110.533 112.659 110.533C112.313 110.533 112.014 110.606 111.764 110.752C111.518 110.893 111.315 111.089 111.155 111.34C110.996 111.586 110.877 111.873 110.8 112.201C110.727 112.525 110.69 112.871 110.69 113.24ZM122.298 115.564V106.5H123.569V117H122.407L122.298 115.564ZM117.321 113.384V113.24C117.321 112.675 117.39 112.162 117.526 111.702C117.668 111.237 117.866 110.839 118.121 110.506C118.381 110.173 118.688 109.918 119.044 109.74C119.404 109.558 119.805 109.467 120.247 109.467C120.712 109.467 121.118 109.549 121.464 109.713C121.815 109.872 122.111 110.107 122.353 110.417C122.599 110.722 122.792 111.091 122.934 111.524C123.075 111.957 123.173 112.447 123.228 112.994V113.623C123.177 114.165 123.079 114.653 122.934 115.086C122.792 115.519 122.599 115.888 122.353 116.193C122.111 116.499 121.815 116.733 121.464 116.897C121.113 117.057 120.703 117.137 120.233 117.137C119.8 117.137 119.404 117.043 119.044 116.856C118.688 116.67 118.381 116.408 118.121 116.07C117.866 115.733 117.668 115.337 117.526 114.881C117.39 114.421 117.321 113.922 117.321 113.384ZM118.593 113.24V113.384C118.593 113.753 118.629 114.099 118.702 114.423C118.78 114.746 118.898 115.031 119.058 115.277C119.217 115.523 119.42 115.717 119.666 115.858C119.912 115.995 120.206 116.063 120.548 116.063C120.967 116.063 121.311 115.975 121.58 115.797C121.854 115.619 122.072 115.384 122.236 115.093C122.4 114.801 122.528 114.484 122.619 114.143V112.495C122.564 112.244 122.485 112.003 122.38 111.771C122.28 111.534 122.147 111.324 121.983 111.142C121.824 110.955 121.626 110.807 121.389 110.697C121.156 110.588 120.881 110.533 120.562 110.533C120.215 110.533 119.917 110.606 119.666 110.752C119.42 110.893 119.217 111.089 119.058 111.34C118.898 111.586 118.78 111.873 118.702 112.201C118.629 112.525 118.593 112.871 118.593 113.24ZM128.607 117.137C128.092 117.137 127.625 117.05 127.206 116.877C126.791 116.699 126.434 116.451 126.133 116.132C125.837 115.813 125.609 115.435 125.449 114.997C125.29 114.56 125.21 114.081 125.21 113.562V113.274C125.21 112.673 125.299 112.137 125.477 111.668C125.654 111.194 125.896 110.793 126.201 110.465C126.507 110.137 126.853 109.888 127.24 109.72C127.628 109.551 128.029 109.467 128.443 109.467C128.972 109.467 129.428 109.558 129.811 109.74C130.198 109.923 130.515 110.178 130.761 110.506C131.007 110.829 131.189 111.212 131.308 111.654C131.426 112.092 131.485 112.57 131.485 113.09V113.657H125.962V112.625H130.221V112.529C130.202 112.201 130.134 111.882 130.016 111.572C129.902 111.262 129.719 111.007 129.469 110.807C129.218 110.606 128.876 110.506 128.443 110.506C128.156 110.506 127.892 110.567 127.65 110.69C127.409 110.809 127.201 110.987 127.028 111.224C126.855 111.461 126.721 111.75 126.625 112.092C126.529 112.434 126.481 112.828 126.481 113.274V113.562C126.481 113.912 126.529 114.243 126.625 114.553C126.725 114.858 126.869 115.127 127.056 115.359C127.247 115.592 127.477 115.774 127.746 115.906C128.02 116.038 128.329 116.104 128.676 116.104C129.122 116.104 129.501 116.013 129.811 115.831C130.12 115.649 130.392 115.405 130.624 115.1L131.39 115.708C131.23 115.95 131.027 116.18 130.781 116.398C130.535 116.617 130.232 116.795 129.872 116.932C129.517 117.068 129.095 117.137 128.607 117.137ZM134.227 110.766V117H132.962V109.604H134.192L134.227 110.766ZM136.537 109.562L136.53 110.738C136.425 110.715 136.325 110.702 136.229 110.697C136.138 110.688 136.034 110.684 135.915 110.684C135.623 110.684 135.366 110.729 135.143 110.82C134.919 110.911 134.73 111.039 134.575 111.203C134.42 111.367 134.297 111.563 134.206 111.791C134.119 112.014 134.062 112.26 134.035 112.529L133.68 112.734C133.68 112.288 133.723 111.868 133.81 111.477C133.901 111.085 134.04 110.738 134.227 110.438C134.413 110.132 134.65 109.895 134.938 109.727C135.229 109.553 135.576 109.467 135.977 109.467C136.068 109.467 136.173 109.478 136.291 109.501C136.41 109.519 136.492 109.54 136.537 109.562ZM139.08 109.604V117H137.809V109.604H139.08ZM137.713 107.642C137.713 107.437 137.774 107.263 137.897 107.122C138.025 106.981 138.212 106.91 138.458 106.91C138.7 106.91 138.884 106.981 139.012 107.122C139.144 107.263 139.21 107.437 139.21 107.642C139.21 107.838 139.144 108.006 139.012 108.147C138.884 108.284 138.7 108.353 138.458 108.353C138.212 108.353 138.025 108.284 137.897 108.147C137.774 108.006 137.713 107.838 137.713 107.642ZM142.375 111.183V117H141.11V109.604H142.307L142.375 111.183ZM142.074 113.021L141.548 113.001C141.552 112.495 141.628 112.028 141.773 111.6C141.919 111.167 142.124 110.791 142.389 110.472C142.653 110.153 142.967 109.907 143.332 109.733C143.701 109.556 144.109 109.467 144.556 109.467C144.92 109.467 145.248 109.517 145.54 109.617C145.832 109.713 146.08 109.868 146.285 110.082C146.495 110.296 146.654 110.574 146.764 110.916C146.873 111.253 146.928 111.666 146.928 112.153V117H145.656V112.14C145.656 111.752 145.599 111.442 145.485 111.21C145.371 110.973 145.205 110.802 144.986 110.697C144.768 110.588 144.499 110.533 144.18 110.533C143.865 110.533 143.578 110.599 143.318 110.731C143.063 110.864 142.842 111.046 142.655 111.278C142.473 111.511 142.329 111.777 142.225 112.078C142.124 112.374 142.074 112.689 142.074 113.021ZM153.641 109.604H154.789V116.843C154.789 117.494 154.657 118.05 154.393 118.511C154.128 118.971 153.759 119.32 153.285 119.557C152.816 119.798 152.273 119.919 151.658 119.919C151.403 119.919 151.102 119.878 150.756 119.796C150.414 119.718 150.077 119.584 149.744 119.393C149.416 119.206 149.14 118.953 148.917 118.634L149.58 117.882C149.89 118.256 150.214 118.515 150.551 118.661C150.893 118.807 151.23 118.88 151.562 118.88C151.964 118.88 152.31 118.805 152.602 118.654C152.893 118.504 153.119 118.281 153.278 117.984C153.442 117.693 153.524 117.333 153.524 116.904V111.23L153.641 109.604ZM148.548 113.384V113.24C148.548 112.675 148.614 112.162 148.746 111.702C148.883 111.237 149.076 110.839 149.327 110.506C149.582 110.173 149.89 109.918 150.25 109.74C150.61 109.558 151.016 109.467 151.467 109.467C151.932 109.467 152.337 109.549 152.684 109.713C153.035 109.872 153.331 110.107 153.572 110.417C153.818 110.722 154.012 111.091 154.153 111.524C154.295 111.957 154.393 112.447 154.447 112.994V113.623C154.397 114.165 154.299 114.653 154.153 115.086C154.012 115.519 153.818 115.888 153.572 116.193C153.331 116.499 153.035 116.733 152.684 116.897C152.333 117.057 151.923 117.137 151.453 117.137C151.011 117.137 150.61 117.043 150.25 116.856C149.895 116.67 149.589 116.408 149.334 116.07C149.079 115.733 148.883 115.337 148.746 114.881C148.614 114.421 148.548 113.922 148.548 113.384ZM149.812 113.24V113.384C149.812 113.753 149.849 114.099 149.922 114.423C149.999 114.746 150.116 115.031 150.271 115.277C150.43 115.523 150.633 115.717 150.879 115.858C151.125 115.995 151.419 116.063 151.761 116.063C152.18 116.063 152.526 115.975 152.8 115.797C153.073 115.619 153.29 115.384 153.449 115.093C153.613 114.801 153.741 114.484 153.832 114.143V112.495C153.782 112.244 153.704 112.003 153.6 111.771C153.499 111.534 153.367 111.324 153.203 111.142C153.044 110.955 152.845 110.807 152.608 110.697C152.371 110.588 152.093 110.533 151.774 110.533C151.428 110.533 151.13 110.606 150.879 110.752C150.633 110.893 150.43 111.089 150.271 111.34C150.116 111.586 149.999 111.873 149.922 112.201C149.849 112.525 149.812 112.871 149.812 113.24Z" fill="#002C29"/>
<path d="M177.846 21.0469V31H176.526V21.0469H177.846ZM184.36 29.0381C184.36 28.8558 184.319 28.6872 184.237 28.5322C184.16 28.3727 183.998 28.2292 183.752 28.1016C183.51 27.9694 183.146 27.8555 182.658 27.7598C182.248 27.6732 181.877 27.5706 181.544 27.4521C181.216 27.3337 180.936 27.1901 180.703 27.0215C180.475 26.8529 180.3 26.6546 180.177 26.4268C180.054 26.1989 179.992 25.9323 179.992 25.627C179.992 25.3353 180.056 25.0596 180.184 24.7998C180.316 24.54 180.5 24.3099 180.737 24.1094C180.979 23.9089 181.268 23.7516 181.605 23.6377C181.943 23.5238 182.319 23.4668 182.733 23.4668C183.326 23.4668 183.832 23.5716 184.251 23.7812C184.67 23.9909 184.992 24.2712 185.215 24.6221C185.438 24.9684 185.55 25.3535 185.55 25.7773H184.285C184.285 25.5723 184.224 25.374 184.101 25.1826C183.982 24.9867 183.807 24.8249 183.574 24.6973C183.346 24.5697 183.066 24.5059 182.733 24.5059C182.382 24.5059 182.098 24.5605 181.879 24.6699C181.665 24.7747 181.507 24.9092 181.407 25.0732C181.312 25.2373 181.264 25.4105 181.264 25.5928C181.264 25.7295 181.286 25.8525 181.332 25.9619C181.382 26.0667 181.469 26.1647 181.592 26.2559C181.715 26.3424 181.888 26.4245 182.111 26.502C182.335 26.5794 182.619 26.6569 182.966 26.7344C183.572 26.8711 184.071 27.0352 184.463 27.2266C184.855 27.418 185.146 27.6527 185.338 27.9307C185.529 28.2087 185.625 28.5459 185.625 28.9424C185.625 29.266 185.557 29.5622 185.42 29.8311C185.288 30.0999 185.094 30.3324 184.839 30.5283C184.588 30.7197 184.287 30.8701 183.937 30.9795C183.59 31.0843 183.201 31.1367 182.768 31.1367C182.116 31.1367 181.564 31.0205 181.113 30.7881C180.662 30.5557 180.32 30.2549 180.088 29.8857C179.855 29.5166 179.739 29.127 179.739 28.7168H181.011C181.029 29.0632 181.129 29.3389 181.312 29.5439C181.494 29.7445 181.717 29.888 181.981 29.9746C182.246 30.0566 182.508 30.0977 182.768 30.0977C183.114 30.0977 183.403 30.0521 183.636 29.9609C183.873 29.8698 184.053 29.7445 184.176 29.585C184.299 29.4255 184.36 29.2432 184.36 29.0381ZM191.593 29.0381C191.593 28.8558 191.552 28.6872 191.47 28.5322C191.392 28.3727 191.23 28.2292 190.984 28.1016C190.743 27.9694 190.378 27.8555 189.891 27.7598C189.48 27.6732 189.109 27.5706 188.776 27.4521C188.448 27.3337 188.168 27.1901 187.936 27.0215C187.708 26.8529 187.532 26.6546 187.409 26.4268C187.286 26.1989 187.225 25.9323 187.225 25.627C187.225 25.3353 187.288 25.0596 187.416 24.7998C187.548 24.54 187.733 24.3099 187.97 24.1094C188.211 23.9089 188.501 23.7516 188.838 23.6377C189.175 23.5238 189.551 23.4668 189.966 23.4668C190.558 23.4668 191.064 23.5716 191.483 23.7812C191.903 23.9909 192.224 24.2712 192.447 24.6221C192.671 24.9684 192.782 25.3535 192.782 25.7773H191.518C191.518 25.5723 191.456 25.374 191.333 25.1826C191.215 24.9867 191.039 24.8249 190.807 24.6973C190.579 24.5697 190.299 24.5059 189.966 24.5059C189.615 24.5059 189.33 24.5605 189.111 24.6699C188.897 24.7747 188.74 24.9092 188.64 25.0732C188.544 25.2373 188.496 25.4105 188.496 25.5928C188.496 25.7295 188.519 25.8525 188.564 25.9619C188.615 26.0667 188.701 26.1647 188.824 26.2559C188.947 26.3424 189.12 26.4245 189.344 26.502C189.567 26.5794 189.852 26.6569 190.198 26.7344C190.804 26.8711 191.303 27.0352 191.695 27.2266C192.087 27.418 192.379 27.6527 192.57 27.9307C192.762 28.2087 192.857 28.5459 192.857 28.9424C192.857 29.266 192.789 29.5622 192.652 29.8311C192.52 30.0999 192.326 30.3324 192.071 30.5283C191.821 30.7197 191.52 30.8701 191.169 30.9795C190.823 31.0843 190.433 31.1367 190 31.1367C189.348 31.1367 188.797 31.0205 188.346 30.7881C187.895 30.5557 187.553 30.2549 187.32 29.8857C187.088 29.5166 186.972 29.127 186.972 28.7168H188.243C188.261 29.0632 188.362 29.3389 188.544 29.5439C188.726 29.7445 188.95 29.888 189.214 29.9746C189.478 30.0566 189.74 30.0977 190 30.0977C190.346 30.0977 190.636 30.0521 190.868 29.9609C191.105 29.8698 191.285 29.7445 191.408 29.585C191.531 29.4255 191.593 29.2432 191.593 29.0381ZM199.044 29.291V23.6035H200.315V31H199.105L199.044 29.291ZM199.283 27.7324L199.81 27.7188C199.81 28.2109 199.757 28.6667 199.652 29.0859C199.552 29.5007 199.388 29.8607 199.16 30.166C198.932 30.4714 198.634 30.7106 198.265 30.8838C197.896 31.0524 197.447 31.1367 196.918 31.1367C196.558 31.1367 196.228 31.0843 195.927 30.9795C195.631 30.8747 195.375 30.7129 195.161 30.4941C194.947 30.2754 194.781 29.9906 194.662 29.6396C194.548 29.2887 194.491 28.8672 194.491 28.375V23.6035H195.756V28.3887C195.756 28.7214 195.792 28.9971 195.865 29.2158C195.943 29.43 196.045 29.6009 196.173 29.7285C196.305 29.8516 196.451 29.9382 196.61 29.9883C196.774 30.0384 196.943 30.0635 197.116 30.0635C197.654 30.0635 198.08 29.9609 198.395 29.7559C198.709 29.5462 198.935 29.266 199.071 28.915C199.213 28.5596 199.283 28.1654 199.283 27.7324ZM205.312 31.1367C204.798 31.1367 204.33 31.0501 203.911 30.877C203.496 30.6992 203.139 30.4508 202.838 30.1318C202.542 29.8128 202.314 29.4346 202.154 28.9971C201.995 28.5596 201.915 28.0811 201.915 27.5615V27.2744C201.915 26.6729 202.004 26.1374 202.182 25.668C202.359 25.194 202.601 24.793 202.906 24.4648C203.212 24.1367 203.558 23.8883 203.945 23.7197C204.333 23.5511 204.734 23.4668 205.148 23.4668C205.677 23.4668 206.133 23.5579 206.516 23.7402C206.903 23.9225 207.22 24.1777 207.466 24.5059C207.712 24.8294 207.894 25.2122 208.013 25.6543C208.131 26.0918 208.19 26.5703 208.19 27.0898V27.6572H202.667V26.625H206.926V26.5293C206.908 26.2012 206.839 25.8822 206.721 25.5723C206.607 25.2624 206.424 25.0072 206.174 24.8066C205.923 24.6061 205.581 24.5059 205.148 24.5059C204.861 24.5059 204.597 24.5674 204.355 24.6904C204.114 24.8089 203.907 24.9867 203.733 25.2236C203.56 25.4606 203.426 25.75 203.33 26.0918C203.234 26.4336 203.187 26.8278 203.187 27.2744V27.5615C203.187 27.9124 203.234 28.2428 203.33 28.5527C203.43 28.8581 203.574 29.127 203.761 29.3594C203.952 29.5918 204.182 29.7741 204.451 29.9062C204.725 30.0384 205.035 30.1045 205.381 30.1045C205.827 30.1045 206.206 30.0133 206.516 29.8311C206.826 29.6488 207.097 29.4049 207.329 29.0996L208.095 29.708C207.935 29.9495 207.732 30.1797 207.486 30.3984C207.24 30.6172 206.937 30.7949 206.577 30.9316C206.222 31.0684 205.8 31.1367 205.312 31.1367ZM216.236 23.6035V24.5742H212.237V23.6035H216.236ZM213.591 21.8057H214.855V29.168C214.855 29.4186 214.894 29.6077 214.972 29.7354C215.049 29.863 215.149 29.9473 215.272 29.9883C215.396 30.0293 215.528 30.0498 215.669 30.0498C215.774 30.0498 215.883 30.0407 215.997 30.0225C216.116 29.9997 216.204 29.9814 216.264 29.9678L216.271 31C216.17 31.0319 216.038 31.0615 215.874 31.0889C215.715 31.1208 215.521 31.1367 215.293 31.1367C214.983 31.1367 214.698 31.0752 214.438 30.9521C214.179 30.8291 213.971 30.624 213.816 30.3369C213.666 30.0452 213.591 29.6533 213.591 29.1611V21.8057ZM217.248 27.3838V27.2266C217.248 26.6934 217.326 26.1989 217.48 25.7432C217.635 25.2829 217.859 24.8841 218.15 24.5469C218.442 24.2051 218.795 23.9408 219.21 23.7539C219.625 23.5625 220.09 23.4668 220.604 23.4668C221.124 23.4668 221.591 23.5625 222.006 23.7539C222.425 23.9408 222.781 24.2051 223.072 24.5469C223.368 24.8841 223.594 25.2829 223.749 25.7432C223.904 26.1989 223.981 26.6934 223.981 27.2266V27.3838C223.981 27.917 223.904 28.4115 223.749 28.8672C223.594 29.3229 223.368 29.7217 223.072 30.0635C222.781 30.4007 222.427 30.665 222.013 30.8564C221.603 31.0433 221.138 31.1367 220.618 31.1367C220.099 31.1367 219.632 31.0433 219.217 30.8564C218.802 30.665 218.447 30.4007 218.15 30.0635C217.859 29.7217 217.635 29.3229 217.48 28.8672C217.326 28.4115 217.248 27.917 217.248 27.3838ZM218.513 27.2266V27.3838C218.513 27.7529 218.556 28.1016 218.643 28.4297C218.729 28.7533 218.859 29.0404 219.032 29.291C219.21 29.5417 219.431 29.7399 219.695 29.8857C219.96 30.027 220.267 30.0977 220.618 30.0977C220.965 30.0977 221.268 30.027 221.527 29.8857C221.792 29.7399 222.01 29.5417 222.184 29.291C222.357 29.0404 222.487 28.7533 222.573 28.4297C222.664 28.1016 222.71 27.7529 222.71 27.3838V27.2266C222.71 26.862 222.664 26.5179 222.573 26.1943C222.487 25.8662 222.354 25.5768 222.177 25.3262C222.004 25.071 221.785 24.8704 221.521 24.7246C221.261 24.5788 220.955 24.5059 220.604 24.5059C220.258 24.5059 219.953 24.5788 219.688 24.7246C219.429 24.8704 219.21 25.071 219.032 25.3262C218.859 25.5768 218.729 25.8662 218.643 26.1943C218.556 26.5179 218.513 26.862 218.513 27.2266ZM226.839 20.5V31H225.567V20.5H226.839ZM231.357 23.6035L228.131 27.0557L226.326 28.9287L226.224 27.582L227.516 26.0371L229.812 23.6035H231.357ZM230.202 31L227.563 27.4727L228.22 26.3447L231.692 31H230.202ZM235.596 31.1367C235.081 31.1367 234.614 31.0501 234.194 30.877C233.78 30.6992 233.422 30.4508 233.121 30.1318C232.825 29.8128 232.597 29.4346 232.438 28.9971C232.278 28.5596 232.198 28.0811 232.198 27.5615V27.2744C232.198 26.6729 232.287 26.1374 232.465 25.668C232.643 25.194 232.884 24.793 233.189 24.4648C233.495 24.1367 233.841 23.8883 234.229 23.7197C234.616 23.5511 235.017 23.4668 235.432 23.4668C235.96 23.4668 236.416 23.5579 236.799 23.7402C237.186 23.9225 237.503 24.1777 237.749 24.5059C237.995 24.8294 238.177 25.2122 238.296 25.6543C238.414 26.0918 238.474 26.5703 238.474 27.0898V27.6572H232.95V26.625H237.209V26.5293C237.191 26.2012 237.122 25.8822 237.004 25.5723C236.89 25.2624 236.708 25.0072 236.457 24.8066C236.206 24.6061 235.865 24.5059 235.432 24.5059C235.145 24.5059 234.88 24.5674 234.639 24.6904C234.397 24.8089 234.19 24.9867 234.017 25.2236C233.843 25.4606 233.709 25.75 233.613 26.0918C233.518 26.4336 233.47 26.8278 233.47 27.2744V27.5615C233.47 27.9124 233.518 28.2428 233.613 28.5527C233.714 28.8581 233.857 29.127 234.044 29.3594C234.235 29.5918 234.465 29.7741 234.734 29.9062C235.008 30.0384 235.318 30.1045 235.664 30.1045C236.111 30.1045 236.489 30.0133 236.799 29.8311C237.109 29.6488 237.38 29.4049 237.612 29.0996L238.378 29.708C238.218 29.9495 238.016 30.1797 237.77 30.3984C237.523 30.6172 237.22 30.7949 236.86 30.9316C236.505 31.0684 236.083 31.1367 235.596 31.1367ZM241.215 25.1826V31H239.95V23.6035H241.146L241.215 25.1826ZM240.914 27.0215L240.388 27.001C240.392 26.4951 240.467 26.028 240.613 25.5996C240.759 25.1667 240.964 24.7907 241.229 24.4717C241.493 24.1527 241.807 23.9066 242.172 23.7334C242.541 23.5557 242.949 23.4668 243.396 23.4668C243.76 23.4668 244.088 23.5169 244.38 23.6172C244.672 23.7129 244.92 23.8678 245.125 24.082C245.335 24.2962 245.494 24.5742 245.604 24.916C245.713 25.2533 245.768 25.6657 245.768 26.1533V31H244.496V26.1396C244.496 25.7523 244.439 25.4424 244.325 25.21C244.211 24.973 244.045 24.8021 243.826 24.6973C243.607 24.5879 243.339 24.5332 243.02 24.5332C242.705 24.5332 242.418 24.5993 242.158 24.7314C241.903 24.8636 241.682 25.0459 241.495 25.2783C241.313 25.5107 241.169 25.7773 241.064 26.0781C240.964 26.3743 240.914 26.6888 240.914 27.0215Z" fill="#002C29"/>
<path d="M192.495 118.835H193.808C193.739 119.464 193.559 120.027 193.268 120.523C192.976 121.02 192.563 121.414 192.03 121.706C191.497 121.993 190.832 122.137 190.034 122.137C189.451 122.137 188.92 122.027 188.441 121.809C187.967 121.59 187.56 121.28 187.218 120.879C186.876 120.473 186.612 119.988 186.425 119.423C186.243 118.853 186.151 118.22 186.151 117.522V116.531C186.151 115.834 186.243 115.203 186.425 114.638C186.612 114.068 186.878 113.58 187.225 113.175C187.576 112.769 187.997 112.457 188.489 112.238C188.981 112.02 189.535 111.91 190.15 111.91C190.902 111.91 191.538 112.051 192.058 112.334C192.577 112.617 192.98 113.008 193.268 113.51C193.559 114.007 193.739 114.583 193.808 115.239H192.495C192.431 114.774 192.313 114.376 192.14 114.043C191.966 113.706 191.72 113.446 191.401 113.264C191.082 113.081 190.665 112.99 190.15 112.99C189.708 112.99 189.319 113.075 188.981 113.243C188.649 113.412 188.368 113.651 188.141 113.961C187.917 114.271 187.749 114.642 187.635 115.075C187.521 115.508 187.464 115.989 187.464 116.518V117.522C187.464 118.01 187.514 118.468 187.614 118.896C187.719 119.325 187.876 119.701 188.086 120.024C188.296 120.348 188.562 120.603 188.886 120.79C189.209 120.972 189.592 121.063 190.034 121.063C190.595 121.063 191.041 120.975 191.374 120.797C191.707 120.619 191.957 120.364 192.126 120.031C192.299 119.699 192.422 119.3 192.495 118.835ZM195.079 118.384V118.227C195.079 117.693 195.157 117.199 195.312 116.743C195.466 116.283 195.69 115.884 195.981 115.547C196.273 115.205 196.626 114.941 197.041 114.754C197.456 114.562 197.921 114.467 198.436 114.467C198.955 114.467 199.422 114.562 199.837 114.754C200.256 114.941 200.612 115.205 200.903 115.547C201.2 115.884 201.425 116.283 201.58 116.743C201.735 117.199 201.812 117.693 201.812 118.227V118.384C201.812 118.917 201.735 119.411 201.58 119.867C201.425 120.323 201.2 120.722 200.903 121.063C200.612 121.401 200.258 121.665 199.844 121.856C199.434 122.043 198.969 122.137 198.449 122.137C197.93 122.137 197.463 122.043 197.048 121.856C196.633 121.665 196.278 121.401 195.981 121.063C195.69 120.722 195.466 120.323 195.312 119.867C195.157 119.411 195.079 118.917 195.079 118.384ZM196.344 118.227V118.384C196.344 118.753 196.387 119.102 196.474 119.43C196.56 119.753 196.69 120.04 196.863 120.291C197.041 120.542 197.262 120.74 197.526 120.886C197.791 121.027 198.098 121.098 198.449 121.098C198.796 121.098 199.099 121.027 199.358 120.886C199.623 120.74 199.841 120.542 200.015 120.291C200.188 120.04 200.318 119.753 200.404 119.43C200.495 119.102 200.541 118.753 200.541 118.384V118.227C200.541 117.862 200.495 117.518 200.404 117.194C200.318 116.866 200.186 116.577 200.008 116.326C199.835 116.071 199.616 115.87 199.352 115.725C199.092 115.579 198.786 115.506 198.436 115.506C198.089 115.506 197.784 115.579 197.52 115.725C197.26 115.87 197.041 116.071 196.863 116.326C196.69 116.577 196.56 116.866 196.474 117.194C196.387 117.518 196.344 117.862 196.344 118.227ZM204.656 116.073V122H203.385V114.604H204.588L204.656 116.073ZM204.396 118.021L203.809 118.001C203.813 117.495 203.879 117.028 204.007 116.6C204.134 116.167 204.324 115.791 204.574 115.472C204.825 115.153 205.137 114.907 205.511 114.733C205.884 114.556 206.317 114.467 206.81 114.467C207.156 114.467 207.475 114.517 207.767 114.617C208.058 114.713 208.311 114.866 208.525 115.075C208.74 115.285 208.906 115.554 209.024 115.882C209.143 116.21 209.202 116.606 209.202 117.071V122H207.938V117.133C207.938 116.745 207.871 116.436 207.739 116.203C207.612 115.971 207.429 115.802 207.192 115.697C206.955 115.588 206.677 115.533 206.358 115.533C205.985 115.533 205.673 115.599 205.422 115.731C205.171 115.864 204.971 116.046 204.82 116.278C204.67 116.511 204.561 116.777 204.492 117.078C204.428 117.374 204.396 117.689 204.396 118.021ZM209.188 117.324L208.341 117.584C208.345 117.178 208.411 116.789 208.539 116.415C208.671 116.041 208.86 115.709 209.106 115.417C209.357 115.125 209.665 114.895 210.029 114.727C210.394 114.553 210.811 114.467 211.28 114.467C211.677 114.467 212.028 114.519 212.333 114.624C212.643 114.729 212.903 114.891 213.112 115.109C213.326 115.324 213.488 115.599 213.598 115.937C213.707 116.274 213.762 116.675 213.762 117.14V122H212.49V117.126C212.49 116.711 212.424 116.39 212.292 116.162C212.164 115.93 211.982 115.768 211.745 115.677C211.513 115.581 211.235 115.533 210.911 115.533C210.633 115.533 210.387 115.581 210.173 115.677C209.959 115.772 209.779 115.905 209.633 116.073C209.487 116.237 209.375 116.426 209.298 116.641C209.225 116.855 209.188 117.083 209.188 117.324ZM216.934 116.073V122H215.662V114.604H216.865L216.934 116.073ZM216.674 118.021L216.086 118.001C216.09 117.495 216.157 117.028 216.284 116.6C216.412 116.167 216.601 115.791 216.852 115.472C217.102 115.153 217.414 114.907 217.788 114.733C218.162 114.556 218.595 114.467 219.087 114.467C219.433 114.467 219.752 114.517 220.044 114.617C220.336 114.713 220.589 114.866 220.803 115.075C221.017 115.285 221.183 115.554 221.302 115.882C221.42 116.21 221.479 116.606 221.479 117.071V122H220.215V117.133C220.215 116.745 220.149 116.436 220.017 116.203C219.889 115.971 219.707 115.802 219.47 115.697C219.233 115.588 218.955 115.533 218.636 115.533C218.262 115.533 217.95 115.599 217.699 115.731C217.449 115.864 217.248 116.046 217.098 116.278C216.947 116.511 216.838 116.777 216.77 117.078C216.706 117.374 216.674 117.689 216.674 118.021ZM221.466 117.324L220.618 117.584C220.623 117.178 220.689 116.789 220.816 116.415C220.949 116.041 221.138 115.709 221.384 115.417C221.634 115.125 221.942 114.895 222.307 114.727C222.671 114.553 223.088 114.467 223.558 114.467C223.954 114.467 224.305 114.519 224.61 114.624C224.92 114.729 225.18 114.891 225.39 115.109C225.604 115.324 225.766 115.599 225.875 115.937C225.984 116.274 226.039 116.675 226.039 117.14V122H224.768V117.126C224.768 116.711 224.701 116.39 224.569 116.162C224.442 115.93 224.259 115.768 224.022 115.677C223.79 115.581 223.512 115.533 223.188 115.533C222.91 115.533 222.664 115.581 222.45 115.677C222.236 115.772 222.056 115.905 221.91 116.073C221.764 116.237 221.653 116.426 221.575 116.641C221.502 116.855 221.466 117.083 221.466 117.324ZM231.022 122.137C230.507 122.137 230.04 122.05 229.621 121.877C229.206 121.699 228.849 121.451 228.548 121.132C228.252 120.813 228.024 120.435 227.864 119.997C227.705 119.56 227.625 119.081 227.625 118.562V118.274C227.625 117.673 227.714 117.137 227.892 116.668C228.069 116.194 228.311 115.793 228.616 115.465C228.922 115.137 229.268 114.888 229.655 114.72C230.043 114.551 230.444 114.467 230.858 114.467C231.387 114.467 231.843 114.558 232.226 114.74C232.613 114.923 232.93 115.178 233.176 115.506C233.422 115.829 233.604 116.212 233.723 116.654C233.841 117.092 233.9 117.57 233.9 118.09V118.657H228.377V117.625H232.636V117.529C232.618 117.201 232.549 116.882 232.431 116.572C232.317 116.262 232.134 116.007 231.884 115.807C231.633 115.606 231.291 115.506 230.858 115.506C230.571 115.506 230.307 115.567 230.065 115.69C229.824 115.809 229.617 115.987 229.443 116.224C229.27 116.461 229.136 116.75 229.04 117.092C228.944 117.434 228.896 117.828 228.896 118.274V118.562C228.896 118.912 228.944 119.243 229.04 119.553C229.14 119.858 229.284 120.127 229.471 120.359C229.662 120.592 229.892 120.774 230.161 120.906C230.435 121.038 230.744 121.104 231.091 121.104C231.537 121.104 231.916 121.013 232.226 120.831C232.535 120.649 232.807 120.405 233.039 120.1L233.805 120.708C233.645 120.95 233.442 121.18 233.196 121.398C232.95 121.617 232.647 121.795 232.287 121.932C231.932 122.068 231.51 122.137 231.022 122.137ZM236.642 115.766V122H235.377V114.604H236.607L236.642 115.766ZM238.952 114.562L238.945 115.738C238.84 115.715 238.74 115.702 238.645 115.697C238.553 115.688 238.449 115.684 238.33 115.684C238.038 115.684 237.781 115.729 237.558 115.82C237.334 115.911 237.145 116.039 236.99 116.203C236.835 116.367 236.712 116.563 236.621 116.791C236.535 117.014 236.478 117.26 236.45 117.529L236.095 117.734C236.095 117.288 236.138 116.868 236.225 116.477C236.316 116.085 236.455 115.738 236.642 115.438C236.828 115.132 237.065 114.895 237.353 114.727C237.644 114.553 237.991 114.467 238.392 114.467C238.483 114.467 238.588 114.478 238.706 114.501C238.825 114.519 238.907 114.54 238.952 114.562ZM242.944 121.098C243.245 121.098 243.523 121.036 243.778 120.913C244.034 120.79 244.243 120.621 244.407 120.407C244.571 120.188 244.665 119.94 244.688 119.662H245.891C245.868 120.1 245.72 120.507 245.446 120.886C245.177 121.259 244.824 121.562 244.387 121.795C243.949 122.023 243.468 122.137 242.944 122.137C242.388 122.137 241.903 122.039 241.488 121.843C241.078 121.647 240.736 121.378 240.463 121.036C240.194 120.694 239.991 120.302 239.854 119.86C239.722 119.414 239.656 118.942 239.656 118.445V118.158C239.656 117.661 239.722 117.192 239.854 116.75C239.991 116.303 240.194 115.909 240.463 115.567C240.736 115.226 241.078 114.957 241.488 114.761C241.903 114.565 242.388 114.467 242.944 114.467C243.523 114.467 244.029 114.585 244.462 114.822C244.895 115.055 245.234 115.374 245.48 115.779C245.731 116.18 245.868 116.636 245.891 117.146H244.688C244.665 116.841 244.578 116.565 244.428 116.319C244.282 116.073 244.081 115.877 243.826 115.731C243.576 115.581 243.282 115.506 242.944 115.506C242.557 115.506 242.231 115.583 241.967 115.738C241.707 115.889 241.5 116.094 241.345 116.354C241.194 116.609 241.085 116.894 241.017 117.208C240.953 117.518 240.921 117.835 240.921 118.158V118.445C240.921 118.769 240.953 119.088 241.017 119.402C241.08 119.717 241.188 120.002 241.338 120.257C241.493 120.512 241.7 120.717 241.96 120.872C242.224 121.022 242.552 121.098 242.944 121.098ZM250.382 122.137C249.867 122.137 249.4 122.05 248.98 121.877C248.566 121.699 248.208 121.451 247.907 121.132C247.611 120.813 247.383 120.435 247.224 119.997C247.064 119.56 246.984 119.081 246.984 118.562V118.274C246.984 117.673 247.073 117.137 247.251 116.668C247.429 116.194 247.67 115.793 247.976 115.465C248.281 115.137 248.627 114.888 249.015 114.72C249.402 114.551 249.803 114.467 250.218 114.467C250.746 114.467 251.202 114.558 251.585 114.74C251.972 114.923 252.289 115.178 252.535 115.506C252.781 115.829 252.964 116.212 253.082 116.654C253.201 117.092 253.26 117.57 253.26 118.09V118.657H247.736V117.625H251.995V117.529C251.977 117.201 251.909 116.882 251.79 116.572C251.676 116.262 251.494 116.007 251.243 115.807C250.993 115.606 250.651 115.506 250.218 115.506C249.931 115.506 249.666 115.567 249.425 115.69C249.183 115.809 248.976 115.987 248.803 116.224C248.63 116.461 248.495 116.75 248.399 117.092C248.304 117.434 248.256 117.828 248.256 118.274V118.562C248.256 118.912 248.304 119.243 248.399 119.553C248.5 119.858 248.643 120.127 248.83 120.359C249.021 120.592 249.252 120.774 249.521 120.906C249.794 121.038 250.104 121.104 250.45 121.104C250.897 121.104 251.275 121.013 251.585 120.831C251.895 120.649 252.166 120.405 252.398 120.1L253.164 120.708C253.005 120.95 252.802 121.18 252.556 121.398C252.31 121.617 252.007 121.795 251.646 121.932C251.291 122.068 250.869 122.137 250.382 122.137ZM259.467 116.073V122H258.195V114.604H259.398L259.467 116.073ZM259.207 118.021L258.619 118.001C258.624 117.495 258.69 117.028 258.817 116.6C258.945 116.167 259.134 115.791 259.385 115.472C259.635 115.153 259.948 114.907 260.321 114.733C260.695 114.556 261.128 114.467 261.62 114.467C261.966 114.467 262.285 114.517 262.577 114.617C262.869 114.713 263.122 114.866 263.336 115.075C263.55 115.285 263.716 115.554 263.835 115.882C263.953 116.21 264.013 116.606 264.013 117.071V122H262.748V117.133C262.748 116.745 262.682 116.436 262.55 116.203C262.422 115.971 262.24 115.802 262.003 115.697C261.766 115.588 261.488 115.533 261.169 115.533C260.795 115.533 260.483 115.599 260.232 115.731C259.982 115.864 259.781 116.046 259.631 116.278C259.48 116.511 259.371 116.777 259.303 117.078C259.239 117.374 259.207 117.689 259.207 118.021ZM263.999 117.324L263.151 117.584C263.156 117.178 263.222 116.789 263.35 116.415C263.482 116.041 263.671 115.709 263.917 115.417C264.168 115.125 264.475 114.895 264.84 114.727C265.204 114.553 265.621 114.467 266.091 114.467C266.487 114.467 266.838 114.519 267.144 114.624C267.453 114.729 267.713 114.891 267.923 115.109C268.137 115.324 268.299 115.599 268.408 115.937C268.518 116.274 268.572 116.675 268.572 117.14V122H267.301V117.126C267.301 116.711 267.235 116.39 267.103 116.162C266.975 115.93 266.793 115.768 266.556 115.677C266.323 115.581 266.045 115.533 265.722 115.533C265.444 115.533 265.198 115.581 264.983 115.677C264.769 115.772 264.589 115.905 264.443 116.073C264.298 116.237 264.186 116.426 264.108 116.641C264.035 116.855 263.999 117.083 263.999 117.324ZM271.86 114.604V122H270.589V114.604H271.86ZM270.493 112.642C270.493 112.437 270.555 112.263 270.678 112.122C270.805 111.981 270.992 111.91 271.238 111.91C271.48 111.91 271.664 111.981 271.792 112.122C271.924 112.263 271.99 112.437 271.99 112.642C271.99 112.838 271.924 113.006 271.792 113.147C271.664 113.284 271.48 113.353 271.238 113.353C270.992 113.353 270.805 113.284 270.678 113.147C270.555 113.006 270.493 112.838 270.493 112.642ZM275.155 116.183V122H273.891V114.604H275.087L275.155 116.183ZM274.854 118.021L274.328 118.001C274.333 117.495 274.408 117.028 274.554 116.6C274.7 116.167 274.905 115.791 275.169 115.472C275.433 115.153 275.748 114.907 276.112 114.733C276.481 114.556 276.889 114.467 277.336 114.467C277.701 114.467 278.029 114.517 278.32 114.617C278.612 114.713 278.86 114.868 279.065 115.082C279.275 115.296 279.435 115.574 279.544 115.916C279.653 116.253 279.708 116.666 279.708 117.153V122H278.437V117.14C278.437 116.752 278.38 116.442 278.266 116.21C278.152 115.973 277.985 115.802 277.767 115.697C277.548 115.588 277.279 115.533 276.96 115.533C276.646 115.533 276.358 115.599 276.099 115.731C275.843 115.864 275.622 116.046 275.436 116.278C275.253 116.511 275.11 116.777 275.005 117.078C274.905 117.374 274.854 117.689 274.854 118.021ZM283.003 114.604V122H281.731V114.604H283.003ZM281.636 112.642C281.636 112.437 281.697 112.263 281.82 112.122C281.948 111.981 282.135 111.91 282.381 111.91C282.622 111.91 282.807 111.981 282.935 112.122C283.067 112.263 283.133 112.437 283.133 112.642C283.133 112.838 283.067 113.006 282.935 113.147C282.807 113.284 282.622 113.353 282.381 113.353C282.135 113.353 281.948 113.284 281.82 113.147C281.697 113.006 281.636 112.838 281.636 112.642ZM286.298 116.183V122H285.033V114.604H286.229L286.298 116.183ZM285.997 118.021L285.471 118.001C285.475 117.495 285.55 117.028 285.696 116.6C285.842 116.167 286.047 115.791 286.312 115.472C286.576 115.153 286.89 114.907 287.255 114.733C287.624 114.556 288.032 114.467 288.479 114.467C288.843 114.467 289.171 114.517 289.463 114.617C289.755 114.713 290.003 114.868 290.208 115.082C290.418 115.296 290.577 115.574 290.687 115.916C290.796 116.253 290.851 116.666 290.851 117.153V122H289.579V117.14C289.579 116.752 289.522 116.442 289.408 116.21C289.294 115.973 289.128 115.802 288.909 115.697C288.69 115.588 288.422 115.533 288.103 115.533C287.788 115.533 287.501 115.599 287.241 115.731C286.986 115.864 286.765 116.046 286.578 116.278C286.396 116.511 286.252 116.777 286.147 117.078C286.047 117.374 285.997 117.689 285.997 118.021ZM297.563 114.604H298.712V121.843C298.712 122.494 298.58 123.05 298.315 123.511C298.051 123.971 297.682 124.32 297.208 124.557C296.739 124.798 296.196 124.919 295.581 124.919C295.326 124.919 295.025 124.878 294.679 124.796C294.337 124.718 294 124.584 293.667 124.393C293.339 124.206 293.063 123.953 292.84 123.634L293.503 122.882C293.813 123.256 294.136 123.515 294.474 123.661C294.815 123.807 295.153 123.88 295.485 123.88C295.886 123.88 296.233 123.805 296.524 123.654C296.816 123.504 297.042 123.281 297.201 122.984C297.365 122.693 297.447 122.333 297.447 121.904V116.23L297.563 114.604ZM292.471 118.384V118.24C292.471 117.675 292.537 117.162 292.669 116.702C292.806 116.237 292.999 115.839 293.25 115.506C293.505 115.173 293.813 114.918 294.173 114.74C294.533 114.558 294.938 114.467 295.39 114.467C295.854 114.467 296.26 114.549 296.606 114.713C296.957 114.872 297.254 115.107 297.495 115.417C297.741 115.722 297.935 116.091 298.076 116.524C298.217 116.957 298.315 117.447 298.37 117.994V118.623C298.32 119.165 298.222 119.653 298.076 120.086C297.935 120.519 297.741 120.888 297.495 121.193C297.254 121.499 296.957 121.733 296.606 121.897C296.256 122.057 295.845 122.137 295.376 122.137C294.934 122.137 294.533 122.043 294.173 121.856C293.817 121.67 293.512 121.408 293.257 121.07C293.002 120.733 292.806 120.337 292.669 119.881C292.537 119.421 292.471 118.922 292.471 118.384ZM293.735 118.24V118.384C293.735 118.753 293.772 119.099 293.845 119.423C293.922 119.746 294.038 120.031 294.193 120.277C294.353 120.523 294.556 120.717 294.802 120.858C295.048 120.995 295.342 121.063 295.684 121.063C296.103 121.063 296.449 120.975 296.723 120.797C296.996 120.619 297.213 120.384 297.372 120.093C297.536 119.801 297.664 119.484 297.755 119.143V117.495C297.705 117.244 297.627 117.003 297.522 116.771C297.422 116.534 297.29 116.324 297.126 116.142C296.966 115.955 296.768 115.807 296.531 115.697C296.294 115.588 296.016 115.533 295.697 115.533C295.351 115.533 295.052 115.606 294.802 115.752C294.556 115.893 294.353 116.089 294.193 116.34C294.038 116.586 293.922 116.873 293.845 117.201C293.772 117.525 293.735 117.871 293.735 118.24Z" fill="#002C29"/>
<path d="M25.0088 18.0967H22.3496V17.0234H25.0088C25.5238 17.0234 25.9408 16.9414 26.2598 16.7773C26.5788 16.6133 26.8112 16.3854 26.957 16.0938C27.1074 15.8021 27.1826 15.4694 27.1826 15.0957C27.1826 14.7539 27.1074 14.4326 26.957 14.1318C26.8112 13.8311 26.5788 13.5895 26.2598 13.4072C25.9408 13.2204 25.5238 13.127 25.0088 13.127H22.6572V22H21.3379V12.0469H25.0088C25.7607 12.0469 26.3965 12.1768 26.916 12.4365C27.4355 12.6963 27.8298 13.0563 28.0986 13.5166C28.3675 13.9723 28.502 14.4941 28.502 15.082C28.502 15.7201 28.3675 16.2646 28.0986 16.7158C27.8298 17.167 27.4355 17.5111 26.916 17.748C26.3965 17.9805 25.7607 18.0967 25.0088 18.0967ZM31.2432 15.7656V22H29.9785V14.6035H31.209L31.2432 15.7656ZM33.5537 14.5625L33.5469 15.7383C33.4421 15.7155 33.3418 15.7018 33.2461 15.6973C33.1549 15.6882 33.0501 15.6836 32.9316 15.6836C32.64 15.6836 32.3825 15.7292 32.1592 15.8203C31.9359 15.9115 31.7467 16.0391 31.5918 16.2031C31.4368 16.3672 31.3138 16.5632 31.2227 16.791C31.1361 17.0143 31.0791 17.2604 31.0518 17.5293L30.6963 17.7344C30.6963 17.2878 30.7396 16.8685 30.8262 16.4766C30.9173 16.0846 31.0563 15.7383 31.2432 15.4375C31.43 15.1322 31.667 14.8952 31.9541 14.7266C32.2458 14.5534 32.5921 14.4668 32.9932 14.4668C33.0843 14.4668 33.1891 14.4782 33.3076 14.501C33.4261 14.5192 33.5081 14.5397 33.5537 14.5625ZM37.6553 22.1367C37.1403 22.1367 36.6732 22.0501 36.2539 21.877C35.8392 21.6992 35.4814 21.4508 35.1807 21.1318C34.8844 20.8128 34.6566 20.4346 34.4971 19.9971C34.3376 19.5596 34.2578 19.0811 34.2578 18.5615V18.2744C34.2578 17.6729 34.3467 17.1374 34.5244 16.668C34.7021 16.194 34.9437 15.793 35.249 15.4648C35.5544 15.1367 35.9007 14.8883 36.2881 14.7197C36.6755 14.5511 37.0765 14.4668 37.4912 14.4668C38.0199 14.4668 38.4756 14.5579 38.8584 14.7402C39.2458 14.9225 39.5625 15.1777 39.8086 15.5059C40.0547 15.8294 40.237 16.2122 40.3555 16.6543C40.474 17.0918 40.5332 17.5703 40.5332 18.0898V18.6572H35.0098V17.625H39.2686V17.5293C39.2503 17.2012 39.182 16.8822 39.0635 16.5723C38.9495 16.2624 38.7673 16.0072 38.5166 15.8066C38.266 15.6061 37.9242 15.5059 37.4912 15.5059C37.2041 15.5059 36.9398 15.5674 36.6982 15.6904C36.4567 15.8089 36.2493 15.9867 36.0762 16.2236C35.903 16.4606 35.7686 16.75 35.6729 17.0918C35.5771 17.4336 35.5293 17.8278 35.5293 18.2744V18.5615C35.5293 18.9124 35.5771 19.2428 35.6729 19.5527C35.7731 19.8581 35.9167 20.127 36.1035 20.3594C36.2949 20.5918 36.5251 20.7741 36.7939 20.9062C37.0674 21.0384 37.3773 21.1045 37.7236 21.1045C38.1702 21.1045 38.5485 21.0133 38.8584 20.8311C39.1683 20.6488 39.4395 20.4049 39.6719 20.0996L40.4375 20.708C40.278 20.9495 40.0752 21.1797 39.8291 21.3984C39.583 21.6172 39.2799 21.7949 38.9199 21.9316C38.5645 22.0684 38.1429 22.1367 37.6553 22.1367ZM44.6416 17.249V18.2881H41.3057V17.249H44.6416ZM47.1436 15.7656V22H45.8789V14.6035H47.1094L47.1436 15.7656ZM49.4541 14.5625L49.4473 15.7383C49.3424 15.7155 49.2422 15.7018 49.1465 15.6973C49.0553 15.6882 48.9505 15.6836 48.832 15.6836C48.5404 15.6836 48.2829 15.7292 48.0596 15.8203C47.8363 15.9115 47.6471 16.0391 47.4922 16.2031C47.3372 16.3672 47.2142 16.5632 47.123 16.791C47.0365 17.0143 46.9795 17.2604 46.9521 17.5293L46.5967 17.7344C46.5967 17.2878 46.64 16.8685 46.7266 16.4766C46.8177 16.0846 46.9567 15.7383 47.1436 15.4375C47.3304 15.1322 47.5674 14.8952 47.8545 14.7266C48.1462 14.5534 48.4925 14.4668 48.8936 14.4668C48.9847 14.4668 49.0895 14.4782 49.208 14.501C49.3265 14.5192 49.4085 14.5397 49.4541 14.5625ZM53.5557 22.1367C53.0407 22.1367 52.5736 22.0501 52.1543 21.877C51.7396 21.6992 51.3818 21.4508 51.0811 21.1318C50.7848 20.8128 50.557 20.4346 50.3975 19.9971C50.238 19.5596 50.1582 19.0811 50.1582 18.5615V18.2744C50.1582 17.6729 50.2471 17.1374 50.4248 16.668C50.6025 16.194 50.8441 15.793 51.1494 15.4648C51.4548 15.1367 51.8011 14.8883 52.1885 14.7197C52.5758 14.5511 52.9769 14.4668 53.3916 14.4668C53.9202 14.4668 54.376 14.5579 54.7588 14.7402C55.1462 14.9225 55.4629 15.1777 55.709 15.5059C55.9551 15.8294 56.1374 16.2122 56.2559 16.6543C56.3743 17.0918 56.4336 17.5703 56.4336 18.0898V18.6572H50.9102V17.625H55.1689V17.5293C55.1507 17.2012 55.0824 16.8822 54.9639 16.5723C54.8499 16.2624 54.6676 16.0072 54.417 15.8066C54.1663 15.6061 53.8245 15.5059 53.3916 15.5059C53.1045 15.5059 52.8402 15.5674 52.5986 15.6904C52.3571 15.8089 52.1497 15.9867 51.9766 16.2236C51.8034 16.4606 51.6689 16.75 51.5732 17.0918C51.4775 17.4336 51.4297 17.8278 51.4297 18.2744V18.5615C51.4297 18.9124 51.4775 19.2428 51.5732 19.5527C51.6735 19.8581 51.8171 20.127 52.0039 20.3594C52.1953 20.5918 52.4255 20.7741 52.6943 20.9062C52.9678 21.0384 53.2777 21.1045 53.624 21.1045C54.0706 21.1045 54.4489 21.0133 54.7588 20.8311C55.0687 20.6488 55.3398 20.4049 55.5723 20.0996L56.3379 20.708C56.1784 20.9495 55.9756 21.1797 55.7295 21.3984C55.4834 21.6172 55.1803 21.7949 54.8203 21.9316C54.4648 22.0684 54.0433 22.1367 53.5557 22.1367ZM62.7021 14.6035H63.8506V21.8428C63.8506 22.4945 63.7184 23.0505 63.4541 23.5107C63.1898 23.971 62.8206 24.3197 62.3467 24.5566C61.8773 24.7982 61.335 24.9189 60.7197 24.9189C60.4645 24.9189 60.1637 24.8779 59.8174 24.7959C59.4756 24.7184 59.1383 24.584 58.8057 24.3926C58.4775 24.2057 58.2018 23.9528 57.9785 23.6338L58.6416 22.8818C58.9515 23.2555 59.2751 23.5153 59.6123 23.6611C59.9541 23.807 60.2913 23.8799 60.624 23.8799C61.0251 23.8799 61.3714 23.8047 61.6631 23.6543C61.9548 23.5039 62.1803 23.2806 62.3398 22.9844C62.5039 22.6927 62.5859 22.3327 62.5859 21.9043V16.2305L62.7021 14.6035ZM57.6094 18.3838V18.2402C57.6094 17.6751 57.6755 17.1624 57.8076 16.7021C57.9443 16.2373 58.138 15.8385 58.3887 15.5059C58.6439 15.1732 58.9515 14.918 59.3115 14.7402C59.6715 14.5579 60.0771 14.4668 60.5283 14.4668C60.9932 14.4668 61.3988 14.5488 61.7451 14.7129C62.096 14.8724 62.3923 15.1071 62.6338 15.417C62.8799 15.7223 63.0736 16.0915 63.2148 16.5244C63.3561 16.9574 63.4541 17.4473 63.5088 17.9941V18.623C63.4587 19.1654 63.3607 19.653 63.2148 20.0859C63.0736 20.5189 62.8799 20.888 62.6338 21.1934C62.3923 21.4987 62.096 21.7334 61.7451 21.8975C61.3942 22.057 60.984 22.1367 60.5146 22.1367C60.0726 22.1367 59.6715 22.0433 59.3115 21.8564C58.9561 21.6696 58.6507 21.4076 58.3955 21.0703C58.1403 20.7331 57.9443 20.3366 57.8076 19.8809C57.6755 19.4206 57.6094 18.9215 57.6094 18.3838ZM58.874 18.2402V18.3838C58.874 18.7529 58.9105 19.0993 58.9834 19.4229C59.0609 19.7464 59.1771 20.0312 59.332 20.2773C59.4915 20.5234 59.6943 20.7171 59.9404 20.8584C60.1865 20.9951 60.4805 21.0635 60.8223 21.0635C61.2415 21.0635 61.5879 20.9746 61.8613 20.7969C62.1348 20.6191 62.3512 20.3844 62.5107 20.0928C62.6748 19.8011 62.8024 19.4844 62.8936 19.1426V17.4951C62.8434 17.2445 62.766 17.0029 62.6611 16.7705C62.5609 16.5335 62.4287 16.3239 62.2646 16.1416C62.1051 15.9548 61.9069 15.8066 61.6699 15.6973C61.4329 15.5879 61.1549 15.5332 60.8359 15.5332C60.4896 15.5332 60.1911 15.6061 59.9404 15.752C59.6943 15.8932 59.4915 16.0892 59.332 16.3398C59.1771 16.5859 59.0609 16.873 58.9834 17.2012C58.9105 17.5247 58.874 17.8711 58.874 18.2402ZM67.1455 14.6035V22H65.874V14.6035H67.1455ZM65.7783 12.6416C65.7783 12.4365 65.8398 12.2633 65.9629 12.1221C66.0905 11.9808 66.2773 11.9102 66.5234 11.9102C66.765 11.9102 66.9495 11.9808 67.0771 12.1221C67.2093 12.2633 67.2754 12.4365 67.2754 12.6416C67.2754 12.8376 67.2093 13.0062 67.0771 13.1475C66.9495 13.2842 66.765 13.3525 66.5234 13.3525C66.2773 13.3525 66.0905 13.2842 65.9629 13.1475C65.8398 13.0062 65.7783 12.8376 65.7783 12.6416ZM73.4824 20.0381C73.4824 19.8558 73.4414 19.6872 73.3594 19.5322C73.2819 19.3727 73.1201 19.2292 72.874 19.1016C72.6325 18.9694 72.2679 18.8555 71.7803 18.7598C71.3701 18.6732 70.9987 18.5706 70.666 18.4521C70.3379 18.3337 70.0576 18.1901 69.8252 18.0215C69.5973 17.8529 69.4219 17.6546 69.2988 17.4268C69.1758 17.1989 69.1143 16.9323 69.1143 16.627C69.1143 16.3353 69.1781 16.0596 69.3057 15.7998C69.4378 15.54 69.6224 15.3099 69.8594 15.1094C70.1009 14.9089 70.3903 14.7516 70.7275 14.6377C71.0648 14.5238 71.4408 14.4668 71.8555 14.4668C72.4479 14.4668 72.9538 14.5716 73.373 14.7812C73.7923 14.9909 74.1136 15.2712 74.3369 15.6221C74.5602 15.9684 74.6719 16.3535 74.6719 16.7773H73.4072C73.4072 16.5723 73.3457 16.374 73.2227 16.1826C73.1042 15.9867 72.9287 15.8249 72.6963 15.6973C72.4684 15.5697 72.1882 15.5059 71.8555 15.5059C71.5046 15.5059 71.2197 15.5605 71.001 15.6699C70.7868 15.7747 70.6296 15.9092 70.5293 16.0732C70.4336 16.2373 70.3857 16.4105 70.3857 16.5928C70.3857 16.7295 70.4085 16.8525 70.4541 16.9619C70.5042 17.0667 70.5908 17.1647 70.7139 17.2559C70.8369 17.3424 71.0101 17.4245 71.2334 17.502C71.4567 17.5794 71.7415 17.6569 72.0879 17.7344C72.694 17.8711 73.193 18.0352 73.585 18.2266C73.9769 18.418 74.2686 18.6527 74.46 18.9307C74.6514 19.2087 74.7471 19.5459 74.7471 19.9424C74.7471 20.266 74.6787 20.5622 74.542 20.8311C74.4098 21.0999 74.2161 21.3324 73.9609 21.5283C73.7103 21.7197 73.4095 21.8701 73.0586 21.9795C72.7122 22.0843 72.3226 22.1367 71.8896 22.1367C71.238 22.1367 70.6865 22.0205 70.2354 21.7881C69.7842 21.5557 69.4424 21.2549 69.21 20.8857C68.9775 20.5166 68.8613 20.127 68.8613 19.7168H70.1328C70.151 20.0632 70.2513 20.3389 70.4336 20.5439C70.6159 20.7445 70.8392 20.888 71.1035 20.9746C71.3678 21.0566 71.6299 21.0977 71.8896 21.0977C72.236 21.0977 72.5254 21.0521 72.7578 20.9609C72.9948 20.8698 73.1748 20.7445 73.2979 20.585C73.4209 20.4255 73.4824 20.2432 73.4824 20.0381ZM79.5049 14.6035V15.5742H75.5059V14.6035H79.5049ZM76.8594 12.8057H78.124V20.168C78.124 20.4186 78.1628 20.6077 78.2402 20.7354C78.3177 20.863 78.418 20.9473 78.541 20.9883C78.6641 21.0293 78.7962 21.0498 78.9375 21.0498C79.0423 21.0498 79.1517 21.0407 79.2656 21.0225C79.3841 20.9997 79.473 20.9814 79.5322 20.9678L79.5391 22C79.4388 22.0319 79.3066 22.0615 79.1426 22.0889C78.9831 22.1208 78.7894 22.1367 78.5615 22.1367C78.2516 22.1367 77.9668 22.0752 77.707 21.9521C77.4473 21.8291 77.2399 21.624 77.085 21.3369C76.9346 21.0452 76.8594 20.6533 76.8594 20.1611V12.8057ZM82.2529 15.7656V22H80.9883V14.6035H82.2188L82.2529 15.7656ZM84.5635 14.5625L84.5566 15.7383C84.4518 15.7155 84.3516 15.7018 84.2559 15.6973C84.1647 15.6882 84.0599 15.6836 83.9414 15.6836C83.6497 15.6836 83.3923 15.7292 83.1689 15.8203C82.9456 15.9115 82.7565 16.0391 82.6016 16.2031C82.4466 16.3672 82.3236 16.5632 82.2324 16.791C82.1458 17.0143 82.0889 17.2604 82.0615 17.5293L81.7061 17.7344C81.7061 17.2878 81.7493 16.8685 81.8359 16.4766C81.9271 16.0846 82.0661 15.7383 82.2529 15.4375C82.4398 15.1322 82.6768 14.8952 82.9639 14.7266C83.2555 14.5534 83.6019 14.4668 84.0029 14.4668C84.0941 14.4668 84.1989 14.4782 84.3174 14.501C84.4359 14.5192 84.5179 14.5397 84.5635 14.5625ZM89.8203 20.7354V16.9277C89.8203 16.6361 89.7611 16.3831 89.6426 16.1689C89.5286 15.9502 89.3555 15.7816 89.123 15.6631C88.8906 15.5446 88.6035 15.4854 88.2617 15.4854C87.9427 15.4854 87.6624 15.54 87.4209 15.6494C87.1839 15.7588 86.9971 15.9023 86.8604 16.0801C86.7282 16.2578 86.6621 16.4492 86.6621 16.6543H85.3975C85.3975 16.39 85.4658 16.1279 85.6025 15.8682C85.7393 15.6084 85.9352 15.3737 86.1904 15.1641C86.4502 14.9499 86.7601 14.7812 87.1201 14.6582C87.4847 14.5306 87.8903 14.4668 88.3369 14.4668C88.8747 14.4668 89.3486 14.5579 89.7588 14.7402C90.1735 14.9225 90.4971 15.1982 90.7295 15.5674C90.9665 15.932 91.085 16.39 91.085 16.9414V20.3867C91.085 20.6328 91.1055 20.8949 91.1465 21.1729C91.1921 21.4508 91.2581 21.6901 91.3447 21.8906V22H90.0254C89.9616 21.8542 89.9115 21.6605 89.875 21.4189C89.8385 21.1729 89.8203 20.945 89.8203 20.7354ZM90.0391 17.5156L90.0527 18.4043H88.7744C88.4144 18.4043 88.0931 18.4339 87.8105 18.4932C87.528 18.5479 87.291 18.6322 87.0996 18.7461C86.9082 18.86 86.7624 19.0036 86.6621 19.1768C86.5618 19.3454 86.5117 19.5436 86.5117 19.7715C86.5117 20.0039 86.5641 20.2158 86.6689 20.4072C86.7738 20.5986 86.931 20.7513 87.1406 20.8652C87.3548 20.9746 87.6169 21.0293 87.9268 21.0293C88.3141 21.0293 88.6559 20.9473 88.9521 20.7832C89.2484 20.6191 89.4831 20.4186 89.6562 20.1816C89.834 19.9447 89.9297 19.7145 89.9434 19.4912L90.4834 20.0996C90.4515 20.291 90.3649 20.5029 90.2236 20.7354C90.0824 20.9678 89.8932 21.1911 89.6562 21.4053C89.4238 21.6149 89.1458 21.7904 88.8223 21.9316C88.5033 22.0684 88.1432 22.1367 87.7422 22.1367C87.2409 22.1367 86.8011 22.0387 86.4229 21.8428C86.0492 21.6468 85.7575 21.3848 85.5479 21.0566C85.3428 20.724 85.2402 20.3525 85.2402 19.9424C85.2402 19.5459 85.3177 19.1973 85.4727 18.8965C85.6276 18.5911 85.8509 18.3382 86.1426 18.1377C86.4342 17.9326 86.7852 17.7777 87.1953 17.6729C87.6055 17.568 88.0635 17.5156 88.5693 17.5156H90.0391ZM96.1709 14.6035V15.5742H92.1719V14.6035H96.1709ZM93.5254 12.8057H94.79V20.168C94.79 20.4186 94.8288 20.6077 94.9062 20.7354C94.9837 20.863 95.084 20.9473 95.207 20.9883C95.3301 21.0293 95.4622 21.0498 95.6035 21.0498C95.7083 21.0498 95.8177 21.0407 95.9316 21.0225C96.0501 20.9997 96.139 20.9814 96.1982 20.9678L96.2051 22C96.1048 22.0319 95.9727 22.0615 95.8086 22.0889C95.6491 22.1208 95.4554 22.1367 95.2275 22.1367C94.9176 22.1367 94.6328 22.0752 94.373 21.9521C94.1133 21.8291 93.9059 21.624 93.751 21.3369C93.6006 21.0452 93.5254 20.6533 93.5254 20.1611V12.8057ZM99.0283 14.6035V22H97.7568V14.6035H99.0283ZM97.6611 12.6416C97.6611 12.4365 97.7227 12.2633 97.8457 12.1221C97.9733 11.9808 98.1602 11.9102 98.4062 11.9102C98.6478 11.9102 98.8324 11.9808 98.96 12.1221C99.0921 12.2633 99.1582 12.4365 99.1582 12.6416C99.1582 12.8376 99.0921 13.0062 98.96 13.1475C98.8324 13.2842 98.6478 13.3525 98.4062 13.3525C98.1602 13.3525 97.9733 13.2842 97.8457 13.1475C97.7227 13.0062 97.6611 12.8376 97.6611 12.6416ZM100.724 18.3838V18.2266C100.724 17.6934 100.801 17.1989 100.956 16.7432C101.111 16.2829 101.334 15.8841 101.626 15.5469C101.918 15.2051 102.271 14.9408 102.686 14.7539C103.1 14.5625 103.565 14.4668 104.08 14.4668C104.6 14.4668 105.067 14.5625 105.481 14.7539C105.901 14.9408 106.256 15.2051 106.548 15.5469C106.844 15.8841 107.07 16.2829 107.225 16.7432C107.38 17.1989 107.457 17.6934 107.457 18.2266V18.3838C107.457 18.917 107.38 19.4115 107.225 19.8672C107.07 20.3229 106.844 20.7217 106.548 21.0635C106.256 21.4007 105.903 21.665 105.488 21.8564C105.078 22.0433 104.613 22.1367 104.094 22.1367C103.574 22.1367 103.107 22.0433 102.692 21.8564C102.278 21.665 101.922 21.4007 101.626 21.0635C101.334 20.7217 101.111 20.3229 100.956 19.8672C100.801 19.4115 100.724 18.917 100.724 18.3838ZM101.988 18.2266V18.3838C101.988 18.7529 102.032 19.1016 102.118 19.4297C102.205 19.7533 102.335 20.0404 102.508 20.291C102.686 20.5417 102.907 20.7399 103.171 20.8857C103.435 21.027 103.743 21.0977 104.094 21.0977C104.44 21.0977 104.743 21.027 105.003 20.8857C105.267 20.7399 105.486 20.5417 105.659 20.291C105.832 20.0404 105.962 19.7533 106.049 19.4297C106.14 19.1016 106.186 18.7529 106.186 18.3838V18.2266C106.186 17.862 106.14 17.5179 106.049 17.1943C105.962 16.8662 105.83 16.5768 105.652 16.3262C105.479 16.071 105.26 15.8704 104.996 15.7246C104.736 15.5788 104.431 15.5059 104.08 15.5059C103.734 15.5059 103.428 15.5788 103.164 15.7246C102.904 15.8704 102.686 16.071 102.508 16.3262C102.335 16.5768 102.205 16.8662 102.118 17.1943C102.032 17.5179 101.988 17.862 101.988 18.2266ZM110.308 16.1826V22H109.043V14.6035H110.239L110.308 16.1826ZM110.007 18.0215L109.48 18.001C109.485 17.4951 109.56 17.028 109.706 16.5996C109.852 16.1667 110.057 15.7907 110.321 15.4717C110.586 15.1527 110.9 14.9066 111.265 14.7334C111.634 14.5557 112.042 14.4668 112.488 14.4668C112.853 14.4668 113.181 14.5169 113.473 14.6172C113.764 14.7129 114.013 14.8678 114.218 15.082C114.427 15.2962 114.587 15.5742 114.696 15.916C114.806 16.2533 114.86 16.6657 114.86 17.1533V22H113.589V17.1396C113.589 16.7523 113.532 16.4424 113.418 16.21C113.304 15.973 113.138 15.8021 112.919 15.6973C112.7 15.5879 112.431 15.5332 112.112 15.5332C111.798 15.5332 111.511 15.5993 111.251 15.7314C110.996 15.8636 110.775 16.0459 110.588 16.2783C110.406 16.5107 110.262 16.7773 110.157 17.0781C110.057 17.3743 110.007 17.6888 110.007 18.0215Z" fill="#002C29"/>
<rect x="20" y="31" width="38" height="21" rx="3.07397" fill="#002C29"/>
<path d="M38.6848 41.4484V42.1628C38.6848 42.505 38.6508 42.7972 38.5827 43.0394C38.5167 43.2795 38.4206 43.4747 38.2945 43.6248C38.1685 43.7749 38.0174 43.8849 37.8413 43.955C37.6671 44.025 37.472 44.06 37.2559 44.06C37.0838 44.06 36.9237 44.038 36.7756 43.994C36.6295 43.95 36.4974 43.8809 36.3793 43.7869C36.2612 43.6928 36.1602 43.5717 36.0761 43.4236C35.9941 43.2735 35.93 43.0944 35.884 42.8863C35.84 42.6782 35.818 42.437 35.818 42.1628V41.4484C35.818 41.1041 35.852 40.814 35.92 40.5778C35.9881 40.3397 36.0851 40.1465 36.2112 39.9984C36.3373 39.8483 36.4874 39.7393 36.6615 39.6712C36.8376 39.6032 37.0337 39.5692 37.2499 39.5692C37.424 39.5692 37.5841 39.5912 37.7302 39.6352C37.8783 39.6772 38.0104 39.7443 38.1264 39.8363C38.2445 39.9284 38.3446 40.0485 38.4266 40.1966C38.5107 40.3427 38.5747 40.5198 38.6188 40.7279C38.6628 40.934 38.6848 41.1742 38.6848 41.4484ZM37.9613 42.2649V41.3403C37.9613 41.1662 37.9513 41.0131 37.9313 40.881C37.9113 40.7469 37.8813 40.6338 37.8413 40.5418C37.8032 40.4477 37.7552 40.3717 37.6972 40.3136C37.6391 40.2536 37.5731 40.2106 37.499 40.1846C37.425 40.1565 37.3419 40.1425 37.2499 40.1425C37.1378 40.1425 37.0377 40.1645 36.9497 40.2086C36.8616 40.2506 36.7876 40.3186 36.7275 40.4127C36.6675 40.5068 36.6215 40.6308 36.5895 40.7849C36.5594 40.937 36.5444 41.1222 36.5444 41.3403V42.2649C36.5444 42.441 36.5544 42.5961 36.5744 42.7302C36.5945 42.8643 36.6245 42.9793 36.6645 43.0754C36.7045 43.1695 36.7526 43.2475 36.8086 43.3096C36.8666 43.3696 36.9327 43.4136 37.0067 43.4416C37.0828 43.4697 37.1658 43.4837 37.2559 43.4837C37.37 43.4837 37.471 43.4617 37.5591 43.4176C37.6471 43.3736 37.7212 43.3036 37.7812 43.2075C37.8413 43.1094 37.8863 42.9823 37.9163 42.8262C37.9463 42.6701 37.9613 42.483 37.9613 42.2649ZM41.3055 39.6142V44H40.582V40.4727L39.5103 40.836V40.2386L41.2184 39.6142H41.3055Z" fill="white"/>
<rect x="91" y="80" width="37" height="19" rx="3.07397" fill="#002C29"/>
<path d="M109.185 89.4484V90.1628C109.185 90.505 109.151 90.7972 109.083 91.0394C109.017 91.2795 108.921 91.4747 108.795 91.6248C108.668 91.7749 108.517 91.8849 108.341 91.955C108.167 92.025 107.972 92.06 107.756 92.06C107.584 92.06 107.424 92.038 107.276 91.994C107.129 91.95 106.997 91.8809 106.879 91.7869C106.761 91.6928 106.66 91.5717 106.576 91.4236C106.494 91.2735 106.43 91.0944 106.384 90.8863C106.34 90.6782 106.318 90.437 106.318 90.1628V89.4484C106.318 89.1041 106.352 88.814 106.42 88.5778C106.488 88.3397 106.585 88.1465 106.711 87.9984C106.837 87.8483 106.987 87.7393 107.162 87.6712C107.338 87.6032 107.534 87.5692 107.75 87.5692C107.924 87.5692 108.084 87.5912 108.23 87.6352C108.378 87.6772 108.51 87.7443 108.626 87.8363C108.745 87.9284 108.845 88.0485 108.927 88.1966C109.011 88.3427 109.075 88.5198 109.119 88.7279C109.163 88.934 109.185 89.1742 109.185 89.4484ZM108.461 90.2649V89.3403C108.461 89.1662 108.451 89.0131 108.431 88.881C108.411 88.7469 108.381 88.6338 108.341 88.5418C108.303 88.4477 108.255 88.3717 108.197 88.3136C108.139 88.2536 108.073 88.2106 107.999 88.1846C107.925 88.1565 107.842 88.1425 107.75 88.1425C107.638 88.1425 107.538 88.1645 107.45 88.2086C107.362 88.2506 107.288 88.3186 107.228 88.4127C107.168 88.5068 107.121 88.6308 107.089 88.7849C107.059 88.937 107.044 89.1222 107.044 89.3403V90.2649C107.044 90.441 107.054 90.5961 107.074 90.7302C107.094 90.8643 107.124 90.9793 107.165 91.0754C107.205 91.1695 107.253 91.2475 107.309 91.3096C107.367 91.3696 107.433 91.4136 107.507 91.4416C107.583 91.4697 107.666 91.4837 107.756 91.4837C107.87 91.4837 107.971 91.4617 108.059 91.4176C108.147 91.3736 108.221 91.3036 108.281 91.2075C108.341 91.1094 108.386 90.9823 108.416 90.8262C108.446 90.6701 108.461 90.483 108.461 90.2649ZM112.76 91.4236V92H109.83V91.5047L111.253 89.9527C111.409 89.7766 111.532 89.6245 111.622 89.4964C111.712 89.3683 111.775 89.2532 111.811 89.1512C111.85 89.0471 111.869 88.946 111.869 88.848C111.869 88.7099 111.842 88.5888 111.79 88.4848C111.74 88.3787 111.666 88.2956 111.568 88.2356C111.47 88.1736 111.351 88.1425 111.211 88.1425C111.049 88.1425 110.913 88.1776 110.803 88.2476C110.693 88.3176 110.61 88.4147 110.554 88.5388C110.498 88.6609 110.47 88.801 110.47 88.9591H109.746C109.746 88.7049 109.804 88.4727 109.92 88.2626C110.036 88.0505 110.204 87.8824 110.425 87.7583C110.645 87.6322 110.91 87.5692 111.22 87.5692C111.512 87.5692 111.76 87.6182 111.965 87.7163C112.169 87.8143 112.324 87.9534 112.43 88.1335C112.538 88.3136 112.592 88.5268 112.592 88.7729C112.592 88.909 112.57 89.0441 112.526 89.1782C112.482 89.3123 112.419 89.4464 112.337 89.5805C112.257 89.7125 112.162 89.8456 112.052 89.9797C111.942 90.1118 111.82 90.2459 111.688 90.382L110.743 91.4236H112.76Z" fill="white"/>
<rect x="188" y="40" width="38" height="20" rx="3.07397" fill="#002C29"/>
<path d="M206.685 49.9484V50.6628C206.685 51.005 206.651 51.2972 206.583 51.5394C206.517 51.7795 206.421 51.9747 206.295 52.1248C206.168 52.2749 206.017 52.3849 205.841 52.455C205.667 52.525 205.472 52.56 205.256 52.56C205.084 52.56 204.924 52.538 204.776 52.494C204.629 52.45 204.497 52.3809 204.379 52.2869C204.261 52.1928 204.16 52.0717 204.076 51.9236C203.994 51.7735 203.93 51.5944 203.884 51.3863C203.84 51.1782 203.818 50.937 203.818 50.6628V49.9484C203.818 49.6041 203.852 49.314 203.92 49.0778C203.988 48.8397 204.085 48.6465 204.211 48.4984C204.337 48.3483 204.487 48.2393 204.662 48.1712C204.838 48.1032 205.034 48.0692 205.25 48.0692C205.424 48.0692 205.584 48.0912 205.73 48.1352C205.878 48.1772 206.01 48.2443 206.126 48.3363C206.245 48.4284 206.345 48.5485 206.427 48.6966C206.511 48.8427 206.575 49.0198 206.619 49.2279C206.663 49.434 206.685 49.6742 206.685 49.9484ZM205.961 50.7649V49.8403C205.961 49.6662 205.951 49.5131 205.931 49.381C205.911 49.2469 205.881 49.1338 205.841 49.0418C205.803 48.9477 205.755 48.8717 205.697 48.8136C205.639 48.7536 205.573 48.7106 205.499 48.6846C205.425 48.6565 205.342 48.6425 205.25 48.6425C205.138 48.6425 205.038 48.6645 204.95 48.7086C204.862 48.7506 204.788 48.8186 204.728 48.9127C204.668 49.0068 204.621 49.1308 204.589 49.2849C204.559 49.437 204.544 49.6222 204.544 49.8403V50.7649C204.544 50.941 204.554 51.0961 204.574 51.2302C204.594 51.3643 204.624 51.4793 204.665 51.5754C204.705 51.6695 204.753 51.7475 204.809 51.8096C204.867 51.8696 204.933 51.9136 205.007 51.9416C205.083 51.9697 205.166 51.9837 205.256 51.9837C205.37 51.9837 205.471 51.9617 205.559 51.9176C205.647 51.8736 205.721 51.8036 205.781 51.7075C205.841 51.6094 205.886 51.4823 205.916 51.3262C205.946 51.1701 205.961 50.983 205.961 50.7649ZM208.18 49.9874H208.612C208.78 49.9874 208.919 49.9584 209.029 49.9003C209.141 49.8423 209.224 49.7622 209.278 49.6602C209.332 49.5581 209.36 49.441 209.36 49.309C209.36 49.1709 209.334 49.0528 209.284 48.9547C209.236 48.8547 209.162 48.7776 209.062 48.7236C208.964 48.6695 208.839 48.6425 208.687 48.6425C208.559 48.6425 208.443 48.6685 208.339 48.7206C208.237 48.7706 208.156 48.8427 208.096 48.9367C208.036 49.0288 208.006 49.1388 208.006 49.2669H207.279C207.279 49.0348 207.34 48.8287 207.462 48.6485C207.584 48.4684 207.75 48.3273 207.961 48.2253C208.173 48.1212 208.411 48.0692 208.675 48.0692C208.957 48.0692 209.203 48.1162 209.414 48.2103C209.626 48.3023 209.791 48.4404 209.909 48.6245C210.027 48.8086 210.086 49.0368 210.086 49.309C210.086 49.433 210.057 49.5591 209.999 49.6872C209.941 49.8153 209.855 49.9324 209.741 50.0384C209.627 50.1425 209.485 50.2275 209.314 50.2936C209.144 50.3576 208.947 50.3896 208.723 50.3896H208.18V49.9874ZM208.18 50.5518V50.1555H208.723C208.979 50.1555 209.197 50.1855 209.378 50.2456C209.56 50.3056 209.708 50.3886 209.822 50.4947C209.936 50.5988 210.019 50.7179 210.071 50.8519C210.125 50.986 210.152 51.1281 210.152 51.2782C210.152 51.4823 210.115 51.6645 210.041 51.8246C209.969 51.9827 209.866 52.1168 209.732 52.2268C209.598 52.3369 209.441 52.4199 209.26 52.476C209.082 52.532 208.888 52.56 208.678 52.56C208.49 52.56 208.31 52.534 208.138 52.482C207.966 52.43 207.812 52.3529 207.675 52.2508C207.539 52.1468 207.431 52.0177 207.351 51.8636C207.273 51.7075 207.234 51.5274 207.234 51.3232H207.958C207.958 51.4533 207.988 51.5684 208.048 51.6685C208.11 51.7665 208.196 51.8436 208.306 51.8996C208.418 51.9557 208.546 51.9837 208.69 51.9837C208.842 51.9837 208.973 51.9567 209.083 51.9026C209.193 51.8486 209.277 51.7685 209.335 51.6625C209.396 51.5564 209.426 51.4283 209.426 51.2782C209.426 51.1081 209.393 50.97 209.326 50.864C209.26 50.7579 209.166 50.6798 209.044 50.6298C208.922 50.5778 208.778 50.5518 208.612 50.5518H208.18Z" fill="white"/>
<rect x="248" y="82" width="38" height="21" rx="3.07397" fill="#002C29"/>
<path d="M266.685 92.4484V93.1628C266.685 93.505 266.651 93.7972 266.583 94.0394C266.517 94.2795 266.421 94.4747 266.295 94.6248C266.168 94.7749 266.017 94.8849 265.841 94.955C265.667 95.025 265.472 95.06 265.256 95.06C265.084 95.06 264.924 95.038 264.776 94.994C264.629 94.95 264.497 94.8809 264.379 94.7869C264.261 94.6928 264.16 94.5717 264.076 94.4236C263.994 94.2735 263.93 94.0944 263.884 93.8863C263.84 93.6782 263.818 93.437 263.818 93.1628V92.4484C263.818 92.1041 263.852 91.814 263.92 91.5778C263.988 91.3397 264.085 91.1465 264.211 90.9984C264.337 90.8483 264.487 90.7393 264.662 90.6712C264.838 90.6032 265.034 90.5692 265.25 90.5692C265.424 90.5692 265.584 90.5912 265.73 90.6352C265.878 90.6772 266.01 90.7443 266.126 90.8363C266.245 90.9284 266.345 91.0485 266.427 91.1966C266.511 91.3427 266.575 91.5198 266.619 91.7279C266.663 91.934 266.685 92.1742 266.685 92.4484ZM265.961 93.2649V92.3403C265.961 92.1662 265.951 92.0131 265.931 91.881C265.911 91.7469 265.881 91.6338 265.841 91.5418C265.803 91.4477 265.755 91.3717 265.697 91.3136C265.639 91.2536 265.573 91.2106 265.499 91.1846C265.425 91.1565 265.342 91.1425 265.25 91.1425C265.138 91.1425 265.038 91.1645 264.95 91.2086C264.862 91.2506 264.788 91.3186 264.728 91.4127C264.668 91.5068 264.621 91.6308 264.589 91.7849C264.559 91.937 264.544 92.1222 264.544 92.3403V93.2649C264.544 93.441 264.554 93.5961 264.574 93.7302C264.594 93.8643 264.624 93.9793 264.665 94.0754C264.705 94.1695 264.753 94.2475 264.809 94.3096C264.867 94.3696 264.933 94.4136 265.007 94.4416C265.083 94.4697 265.166 94.4837 265.256 94.4837C265.37 94.4837 265.471 94.4617 265.559 94.4176C265.647 94.3736 265.721 94.3036 265.781 94.2075C265.841 94.1094 265.886 93.9823 265.916 93.8262C265.946 93.6701 265.961 93.483 265.961 93.2649ZM270.341 93.442V94.0184H267.189L267.165 93.5831L269.05 90.6292H269.63L269.002 91.7039L267.919 93.442H270.341ZM269.795 90.6292V95H269.071V90.6292H269.795Z" fill="white"/>
<path d="M94.2529 40.2706L93.9723 40.6364L94.2529 40.2706ZM63.0822 85.7892L62.8546 86.1902L63.0822 85.7892ZM88.7861 89.0746C88.9508 88.8804 88.9269 88.5895 88.7327 88.4247L85.5683 85.7401C85.3741 85.5753 85.0831 85.5992 84.9184 85.7934C84.7536 85.9875 84.7775 86.2785 84.9717 86.4433L87.7845 88.8296L85.3982 91.6425C85.2334 91.8367 85.2573 92.1277 85.4515 92.2924C85.6457 92.4571 85.9366 92.4333 86.1014 92.2391L88.7861 89.0746ZM63.0817 40.2706C63.2306 40.707 63.2306 40.707 63.2306 40.707C63.2308 40.7069 63.2309 40.7069 63.2312 40.7068C63.2317 40.7066 63.2326 40.7063 63.2338 40.7059C63.2361 40.7051 63.2398 40.7039 63.2447 40.7022C63.2546 40.6989 63.2696 40.6938 63.2897 40.6871C63.3297 40.6738 63.3898 40.6539 63.4689 40.6283C63.627 40.5769 63.8611 40.5022 64.163 40.4095C64.7667 40.2242 65.6413 39.9672 66.7212 39.6815C68.882 39.1098 71.8603 38.4244 75.1338 37.9677C78.4095 37.5107 81.9663 37.2849 85.2886 37.6248C88.6148 37.965 91.6675 38.8684 93.9723 40.6364L94.5336 39.9047C92.0419 37.9933 88.8001 37.057 85.3824 36.7074C81.9608 36.3574 78.3243 36.5915 75.0064 37.0544C71.6862 37.5175 68.6703 38.2119 66.4853 38.79C65.3924 39.0792 64.5062 39.3396 63.8924 39.5279C63.5855 39.6221 63.3466 39.6983 63.184 39.7512C63.1027 39.7776 63.0404 39.7982 62.9982 39.8122C62.9771 39.8192 62.961 39.8246 62.9501 39.8283C62.9447 39.8302 62.9405 39.8316 62.9376 39.8326C62.9362 39.833 62.9351 39.8334 62.9343 39.8337C62.9339 39.8338 62.9335 39.8339 62.9334 39.834C62.9331 39.8341 62.9329 39.8341 63.0817 40.2706ZM93.9723 40.6364C94.6815 41.1805 95.1179 41.7745 95.344 42.4054C95.5705 43.0374 95.5982 43.7407 95.4343 44.522C95.1025 46.1033 93.998 47.9456 92.3103 49.9858C88.9424 54.057 83.4354 58.7052 77.917 63.3373C72.4242 67.9481 66.9163 72.546 63.6345 76.4754C62.0002 78.4322 60.8594 80.2896 60.5968 81.949C60.4632 82.7932 60.555 83.5985 60.9347 84.3316C61.3127 85.0614 61.9552 85.6797 62.8546 86.1902L63.3098 85.3882C62.523 84.9416 62.0295 84.4402 61.7536 83.9075C61.4794 83.3782 61.3993 82.778 61.5077 82.0932C61.729 80.6947 62.7274 79.0001 64.3423 77.0665C67.559 73.2151 72.9891 68.678 78.5099 64.0437C84.0053 59.4308 89.5876 54.7238 93.0209 50.5736C94.7337 48.5032 95.9577 46.5184 96.3368 44.7114C96.5284 43.7986 96.5072 42.9175 96.2122 42.0943C95.9168 41.27 95.3591 40.538 94.5336 39.9047L93.9723 40.6364ZM62.8546 86.1902C64.87 87.3343 67.4881 88.0861 70.2528 88.5776C73.0234 89.0702 75.9716 89.3065 78.6662 89.4037C81.3619 89.5009 83.8115 89.459 85.587 89.3929C86.475 89.3598 87.195 89.3207 87.6935 89.2898C87.9428 89.2743 88.1368 89.2609 88.2688 89.2513C88.3348 89.2465 88.3853 89.2427 88.4194 89.24C88.4365 89.2387 88.4495 89.2377 88.4584 89.237C88.4628 89.2366 88.4661 89.2364 88.4684 89.2362C88.4696 89.2361 88.4705 89.236 88.4711 89.236C88.4714 89.2359 88.4717 89.2359 88.4718 89.2359C88.472 89.2359 88.4721 89.2359 88.4344 88.7763C88.3968 88.3168 88.3967 88.3168 88.3967 88.3168C88.3966 88.3168 88.3964 88.3168 88.3962 88.3168C88.3958 88.3168 88.395 88.3169 88.3941 88.317C88.3921 88.3171 88.3891 88.3174 88.385 88.3177C88.3769 88.3184 88.3646 88.3193 88.3483 88.3206C88.3155 88.3231 88.2665 88.3268 88.202 88.3315C88.0731 88.3409 87.8823 88.3541 87.6364 88.3693C87.1445 88.3999 86.4322 88.4386 85.5527 88.4714C83.7931 88.5369 81.3669 88.5783 78.6994 88.4821C76.0307 88.3859 73.1284 88.1522 70.4142 87.6696C67.6943 87.1861 65.1937 86.4577 63.3098 85.3882L62.8546 86.1902Z" fill="#002C29"/>
<path d="M163.078 86.8972L163.385 87.241L163.078 86.8972ZM164.448 51.7912L164.679 52.1902L164.448 51.7912ZM185.22 52.1965C185.444 52.0751 185.527 51.7951 185.405 51.5713L183.426 47.9239C183.304 47.7001 183.025 47.6171 182.801 47.7386C182.577 47.86 182.494 48.14 182.615 48.3638L184.375 51.6059L181.133 53.3653C180.909 53.4868 180.826 53.7667 180.947 53.9905C181.069 54.2143 181.349 54.2973 181.573 54.1759L185.22 52.1965ZM134 89.1967C133.885 89.6431 133.885 89.6432 133.885 89.6432C133.885 89.6433 133.886 89.6433 133.886 89.6434C133.887 89.6436 133.888 89.6439 133.889 89.6443C133.892 89.645 133.896 89.646 133.901 89.6473C133.912 89.65 133.927 89.6539 133.947 89.6589C133.987 89.669 134.047 89.6838 134.124 89.7026C134.279 89.7402 134.507 89.7941 134.799 89.8599C135.383 89.9915 136.225 90.1705 137.262 90.3613C139.335 90.7428 142.19 91.172 145.316 91.3618C148.439 91.5514 151.848 91.5029 155.023 90.9214C158.194 90.3407 161.168 89.2215 163.385 87.241L162.77 86.5533C160.727 88.3789 157.936 89.4503 154.857 90.0143C151.78 90.5777 148.452 90.6283 145.372 90.4413C142.293 90.2544 139.477 89.8312 137.429 89.4544C136.405 89.266 135.575 89.0895 135.001 88.9603C134.715 88.8957 134.492 88.8429 134.342 88.8064C134.267 88.7882 134.209 88.774 134.171 88.7644C134.152 88.7597 134.138 88.7561 134.129 88.7537C134.124 88.7525 134.121 88.7516 134.118 88.751C134.117 88.7507 134.116 88.7505 134.116 88.7504C134.116 88.7503 134.116 88.7503 134.115 88.7503C134.115 88.7502 134.115 88.7502 134 89.1967ZM163.385 87.241C166.077 84.8356 166.715 81.764 166.389 78.4869C166.066 75.2357 164.788 71.7151 163.59 68.341C162.38 64.9314 161.256 61.681 161.145 58.8643C161.09 57.4669 161.287 56.2028 161.83 55.0934C162.371 53.9885 163.272 53.0052 164.679 52.1902L164.217 51.3923C162.671 52.2877 161.633 53.3998 161.002 54.6878C160.373 55.9713 160.165 57.3975 160.224 58.9006C160.341 61.885 161.524 65.2761 162.721 68.6495C163.931 72.0585 165.162 75.4624 165.472 78.5781C165.779 81.6681 165.174 84.4058 162.77 86.5533L163.385 87.241ZM164.679 52.1902C168.016 50.2569 173.018 50.2349 177.279 50.7378C179.393 50.9873 181.293 51.3618 182.665 51.6741C183.35 51.8302 183.903 51.9705 184.284 52.0716C184.474 52.1221 184.621 52.1628 184.721 52.1908C184.77 52.2048 184.808 52.2155 184.833 52.2227C184.845 52.2263 184.854 52.2291 184.861 52.2308C184.864 52.2317 184.866 52.2324 184.867 52.2328C184.868 52.233 184.868 52.2332 184.869 52.2332C184.869 52.2333 184.869 52.2333 184.869 52.2333C184.869 52.2333 184.869 52.2333 185 51.7912C185.131 51.3492 185.131 51.3491 185.131 51.3491C185.131 51.349 185.13 51.349 185.13 51.3489C185.13 51.3487 185.129 51.3485 185.128 51.3482C185.126 51.3477 185.123 51.3469 185.12 51.3458C185.113 51.3438 185.102 51.3408 185.089 51.3369C185.062 51.3291 185.022 51.3177 184.971 51.3032C184.867 51.274 184.716 51.2321 184.521 51.1803C184.131 51.0767 183.567 50.9337 182.869 50.7749C181.475 50.4575 179.541 50.0763 177.387 49.822C173.11 49.3172 167.836 49.2953 164.217 51.3923L164.679 52.1902Z" fill="#002C29"/>
<path d="M257.874 49.8291L257.621 50.2148L257.874 49.8291ZM212.942 90.2187L212.664 90.5865L212.942 90.2187ZM244.122 93.9836C244.258 93.7686 244.194 93.4836 243.979 93.3472L240.475 91.124C240.26 90.9875 239.975 91.0513 239.839 91.2663C239.703 91.4813 239.766 91.7662 239.981 91.9027L243.096 93.8789L241.12 96.9936C240.983 97.2086 241.047 97.4935 241.262 97.63C241.477 97.7664 241.762 97.7027 241.899 97.4877L244.122 93.9836ZM228.084 49.8291C228.224 50.2686 228.224 50.2686 228.224 50.2686C228.224 50.2685 228.224 50.2685 228.224 50.2684C228.225 50.2682 228.226 50.268 228.227 50.2677C228.229 50.267 228.232 50.2659 228.237 50.2645C228.246 50.2616 228.26 50.2572 228.279 50.2515C228.316 50.2399 228.372 50.2228 228.445 50.2006C228.593 50.1562 228.811 50.0916 229.092 50.0115C229.655 49.8512 230.471 49.6289 231.482 49.3818C233.504 48.8874 236.298 48.2945 239.393 47.8994C242.489 47.5041 245.873 47.3086 249.077 47.6028C252.284 47.8975 255.278 48.6803 257.621 50.2148L258.126 49.4433C255.61 47.7952 252.45 46.9866 249.161 46.6845C245.868 46.382 242.412 46.5843 239.276 46.9847C236.138 47.3853 233.308 47.9859 231.263 48.486C230.24 48.7362 229.412 48.9615 228.84 49.1245C228.553 49.206 228.331 49.272 228.179 49.3177C228.103 49.3406 228.045 49.3584 228.006 49.3705C227.986 49.3766 227.971 49.3813 227.961 49.3845C227.956 49.3861 227.952 49.3873 227.949 49.3881C227.948 49.3886 227.947 49.3889 227.946 49.3891C227.946 49.3892 227.946 49.3894 227.946 49.3894C227.945 49.3895 227.945 49.3895 228.084 49.8291ZM257.621 50.2148C258.548 50.8218 259.087 51.4306 259.346 52.0218C259.598 52.6006 259.602 53.2092 259.365 53.8727C258.874 55.2454 257.372 56.7959 255.056 58.4865C250.455 61.8453 243.008 65.505 235.478 69.225C227.979 72.9296 220.397 76.6934 215.624 80.2406C213.249 82.0053 211.487 83.7739 210.826 85.5192C210.489 86.4098 210.434 87.3066 210.741 88.1826C211.046 89.0507 211.691 89.85 212.664 90.5865L213.221 89.851C212.342 89.1863 211.839 88.5236 211.611 87.8769C211.387 87.2381 211.415 86.5674 211.688 85.8459C212.248 84.3668 213.816 82.7326 216.174 80.9808C220.865 77.4948 228.358 73.7709 235.886 70.0518C243.384 66.3482 250.919 62.6486 255.6 59.2313C257.925 57.5338 259.64 55.8421 260.233 54.1832C260.538 53.3309 260.55 52.4765 260.191 51.6529C259.837 50.8417 259.143 50.109 258.126 49.4433L257.621 50.2148ZM212.664 90.5865C218.101 94.6998 225.934 95.5747 232.326 95.4499C235.536 95.3873 238.409 95.072 240.48 94.7725C241.516 94.6227 242.352 94.4767 242.93 94.3679C243.219 94.3135 243.444 94.2684 243.597 94.2368C243.673 94.221 243.732 94.2086 243.771 94.2C243.791 94.1957 243.806 94.1924 243.817 94.1902C243.822 94.189 243.826 94.1881 243.829 94.1875C243.83 94.1872 243.831 94.187 243.832 94.1868C243.832 94.1867 243.832 94.1867 243.833 94.1866C243.833 94.1866 243.833 94.1865 243.732 93.7366C243.632 93.2866 243.632 93.2866 243.632 93.2866C243.632 93.2866 243.632 93.2866 243.631 93.2867C243.631 93.2868 243.63 93.287 243.629 93.2872C243.627 93.2877 243.623 93.2884 243.619 93.2894C243.61 93.2914 243.596 93.2945 243.577 93.2985C243.54 93.3065 243.484 93.3184 243.41 93.3337C243.262 93.3643 243.043 93.4083 242.759 93.4616C242.193 93.5682 241.37 93.712 240.348 93.8598C238.304 94.1554 235.47 94.4662 232.308 94.5279C225.96 94.6518 218.397 93.7678 213.221 89.851L212.664 90.5865Z" fill="#002C29"/>
</svg>
