<svg width="177" height="154" viewBox="0 0 177 154" fill="none" xmlns="http://www.w3.org/2000/svg">
<path d="M101 12.498L101.923 11.316L101 12.498ZM101 140.498L100.249 141.797L101 140.498ZM176.318 141.215C176.714 140.487 176.445 139.576 175.717 139.18L163.858 132.729C163.131 132.333 162.22 132.602 161.824 133.329C161.428 134.057 161.697 134.968 162.425 135.364L172.966 141.099L167.231 151.64C166.835 152.367 167.104 153.278 167.831 153.674C168.559 154.07 169.47 153.801 169.866 153.073L176.318 141.215ZM1 12.498C1.49212 13.915 1.49208 13.915 1.49229 13.9149C1.49272 13.9148 1.4932 13.9146 1.49404 13.9143C1.49573 13.9137 1.49847 13.9128 1.50225 13.9115C1.50981 13.9089 1.52154 13.9048 1.53739 13.8994C1.56908 13.8885 1.61724 13.872 1.68145 13.8502C1.80987 13.8067 2.00251 13.7418 2.25608 13.658C2.76322 13.4902 3.514 13.2462 4.48216 12.9436C6.41864 12.3383 9.22377 11.4987 12.6876 10.5654C19.6184 8.69784 29.1713 6.45888 39.6706 4.9672C50.1773 3.47448 61.5838 2.73721 72.2367 3.84705C82.9014 4.95812 92.6877 7.90752 100.077 13.68L101.923 11.316C93.9252 5.06731 83.5179 2.00611 72.5475 0.863198C61.5653 -0.280942 49.8952 0.48444 39.2487 1.99702C28.5948 3.51064 18.9178 5.77963 11.9071 7.6687C8.40021 8.61366 5.55666 9.46459 3.58714 10.0802C2.6023 10.388 1.83575 10.6371 1.31382 10.8098C1.05285 10.8961 0.853014 10.9634 0.717599 11.0093C0.649891 11.0323 0.598286 11.0499 0.563197 11.062C0.545652 11.068 0.532235 11.0726 0.522998 11.0758C0.51838 11.0774 0.514807 11.0786 0.512285 11.0795C0.511024 11.0799 0.509922 11.0803 0.509291 11.0805C0.508453 11.0808 0.507879 11.081 1 12.498ZM100.077 13.68C109.375 20.9442 111.535 30.6162 110.046 41.7641C108.543 53.0175 103.348 65.5127 98.1568 78.0839C93.0163 90.5335 87.8645 103.09 86.7895 114.125C86.2487 119.678 86.7257 124.949 88.8189 129.684C90.9212 134.439 94.6001 138.531 100.249 141.797L101.751 139.199C96.581 136.211 93.3767 132.573 91.5627 128.471C89.7397 124.347 89.2674 119.632 89.7754 114.416C90.7983 103.915 95.7369 91.8051 100.93 79.2288C106.072 66.7742 111.453 53.8837 113.019 42.1612C114.599 30.3332 112.321 19.439 101.923 11.316L100.077 13.68ZM100.249 141.797C113.218 149.294 132.16 149.223 147.557 147.412C155.31 146.5 162.268 145.133 167.287 143.995C169.798 143.425 171.827 142.913 173.23 142.541C173.932 142.356 174.477 142.205 174.849 142.101C175.035 142.049 175.177 142.008 175.274 141.98C175.322 141.966 175.359 141.956 175.385 141.948C175.397 141.945 175.407 141.942 175.414 141.94C175.417 141.939 175.42 141.938 175.421 141.938C175.422 141.937 175.423 141.937 175.424 141.937C175.424 141.937 175.425 141.937 175 140.498C174.575 139.059 174.575 139.059 174.575 139.059C174.575 139.06 174.575 139.06 174.574 139.06C174.573 139.06 174.571 139.061 174.569 139.061C174.563 139.063 174.555 139.065 174.544 139.068C174.522 139.075 174.488 139.085 174.443 139.098C174.353 139.124 174.217 139.162 174.038 139.213C173.68 139.313 173.149 139.46 172.463 139.641C171.09 140.004 169.096 140.509 166.624 141.069C161.677 142.191 154.827 143.536 147.207 144.432C131.859 146.237 113.801 146.166 101.751 139.199L100.249 141.797Z" fill="#002C29"/>
</svg>
