<svg width="16" height="16" viewBox="0 0 16 16" fill="none" xmlns="http://www.w3.org/2000/svg">
<path d="M7.82346 6.86817L4.16646 10.5252C4.09991 10.5983 4.01936 10.6573 3.9296 10.6987C3.83984 10.7401 3.74268 10.763 3.64388 10.7662C3.54508 10.7694 3.44664 10.7527 3.3544 10.7172C3.26216 10.6817 3.17798 10.628 3.10686 10.5593C3.03573 10.4907 2.9791 10.4085 2.94032 10.3175C2.90154 10.2266 2.88139 10.1288 2.88108 10.03C2.88076 9.93111 2.90028 9.8332 2.93848 9.74203C2.97668 9.65086 3.03278 9.56828 3.10346 9.49917L3.12146 9.48117L7.30046 5.30117C7.43905 5.16262 7.627 5.08478 7.82296 5.08478C8.01893 5.08478 8.20688 5.16262 8.34546 5.30117L12.5245 9.48017C12.5943 9.54761 12.6501 9.62813 12.6888 9.71714C12.7275 9.80615 12.7482 9.90191 12.7499 9.99895C12.7516 10.096 12.7341 10.1924 12.6985 10.2827C12.6629 10.373 12.6099 10.4554 12.5425 10.5252C12.475 10.595 12.3945 10.6508 12.3055 10.6895C12.2165 10.7282 12.1207 10.7489 12.0237 10.7506C11.9267 10.7523 11.8302 10.7348 11.7399 10.6992C11.6497 10.6636 11.5673 10.6106 11.4975 10.5432L11.4795 10.5252L7.82346 6.86817Z" fill="#F0B345" stroke="#F0B345" stroke-width="0.5"/>
</svg>
