<svg width="41" height="41" viewBox="0 0 41 41" fill="none" xmlns="http://www.w3.org/2000/svg">
<path d="M5.71739 27.669L27.6336 5.75107M31.831 18.8847L28.0726 22.6431M24.8661 25.8103L23.1936 27.4828M6.83464 37.5807H34.168M5.42527 27.5716C4.78889 26.9355 4.28407 26.1802 3.93966 25.3489C3.59524 24.5176 3.41797 23.6266 3.41797 22.7268C3.41797 21.827 3.59524 20.936 3.93966 20.1047C4.28407 19.2734 4.78889 18.5181 5.42527 17.8819L17.8859 5.42136C18.522 4.78498 19.2773 4.28017 20.1086 3.93575C20.9399 3.59133 21.8309 3.41406 22.7307 3.41406C23.6305 3.41406 24.5215 3.59133 25.3528 3.93575C26.1841 4.28017 26.9394 4.78498 27.5755 5.42136L35.5774 13.4232C36.2137 14.0593 36.7185 14.8146 37.063 15.6459C37.4074 16.4772 37.5846 17.3682 37.5846 18.268C37.5846 19.1678 37.4074 20.0588 37.063 20.8901C36.7185 21.7214 36.2137 22.4767 35.5774 23.1129L23.1168 35.5734C22.4806 36.2098 21.7253 36.7146 20.894 37.0591C20.0627 37.4035 19.1717 37.5807 18.2719 37.5807C17.3721 37.5807 16.4811 37.4035 15.6498 37.0591C14.8185 36.7146 14.0633 36.2098 13.4271 35.5734L5.42527 27.5716Z" stroke="white" stroke-width="3" stroke-linecap="round" stroke-linejoin="round"/>
</svg>
