<svg width="41" height="41" viewBox="0 0 41 41" fill="none" xmlns="http://www.w3.org/2000/svg">
<path d="M13.2386 27.3333C13.8049 27.3333 14.3481 27.1084 14.7485 26.7079C15.149 26.3074 15.374 25.7643 15.374 25.1979C15.374 24.6316 15.149 24.0884 14.7485 23.688C14.3481 23.2875 13.8049 23.0625 13.2386 23.0625C12.6722 23.0625 12.1291 23.2875 11.7286 23.688C11.3281 24.0884 11.1032 24.6316 11.1032 25.1979C11.1032 25.7643 11.3281 26.3074 11.7286 26.7079C12.1291 27.1084 12.6722 27.3333 13.2386 27.3333ZM22.6344 25.1979C22.6344 25.7643 22.4094 26.3074 22.009 26.7079C21.6085 27.1084 21.0653 27.3333 20.499 27.3333C19.9326 27.3333 19.3895 27.1084 18.989 26.7079C18.5886 26.3074 18.3636 25.7643 18.3636 25.1979C18.3636 24.6316 18.5886 24.0884 18.989 23.688C19.3895 23.2875 19.9326 23.0625 20.499 23.0625C21.0653 23.0625 21.6085 23.2875 22.009 23.688C22.4094 24.0884 22.6344 24.6316 22.6344 25.1979ZM27.7594 27.3333C28.3258 27.3333 28.8689 27.1084 29.2694 26.7079C29.6698 26.3074 29.8948 25.7643 29.8948 25.1979C29.8948 24.6316 29.6698 24.0884 29.2694 23.688C28.8689 23.2875 28.3258 23.0625 27.7594 23.0625C27.1931 23.0625 26.6499 23.2875 26.2494 23.688C25.849 24.0884 25.624 24.6316 25.624 25.1979C25.624 25.7643 25.849 26.3074 26.2494 26.7079C26.6499 27.1084 27.1931 27.3333 27.7594 27.3333ZM8.3237 6.20637C8.60421 5.86808 8.95584 5.59578 9.35358 5.40887C9.75132 5.22196 10.1854 5.12504 10.6248 5.125H30.3732C31.2632 5.125 32.1071 5.52133 32.676 6.20637L38.7918 13.5864C39.9467 14.977 38.9575 17.0833 37.1484 17.0833H35.874V32.0312C35.874 33.1639 35.424 34.2502 34.6231 35.0512C33.8222 35.8521 32.7359 36.3021 31.6032 36.3021H9.39483C8.26213 36.3021 7.17583 35.8521 6.37489 35.0512C5.57396 34.2502 5.124 33.1639 5.124 32.0312V17.0833H3.84958C2.04216 17.0833 1.05304 14.977 2.20616 13.5847L8.3237 6.20637ZM10.6248 7.6875C10.5622 7.68752 10.5004 7.70131 10.4437 7.72788C10.387 7.75445 10.3369 7.79315 10.2968 7.84125L4.75841 14.5208H36.2396L30.7029 7.84125C30.6626 7.79293 30.6122 7.75409 30.5552 7.72751C30.4982 7.70094 30.4361 7.68727 30.3732 7.6875H10.6248ZM7.6865 17.0833V32.0312C7.6865 32.4843 7.86648 32.9189 8.18686 33.2392C8.50723 33.5596 8.94175 33.7396 9.39483 33.7396H31.6032C32.0562 33.7396 32.4908 33.5596 32.8111 33.2392C33.1315 32.9189 33.3115 32.4843 33.3115 32.0312V17.0833H7.6865Z" fill="white"/>
</svg>
