<svg width="41" height="41" viewBox="0 0 41 41" fill="none" xmlns="http://www.w3.org/2000/svg">
<path d="M23.9235 17.5001C23.7611 17.499 23.6048 17.5622 23.4889 17.6758C23.3729 17.7895 23.3066 17.9445 23.3044 18.1069V22.6415C23.3066 22.8042 23.3732 22.9595 23.4896 23.0732C23.606 23.187 23.7628 23.2499 23.9255 23.2483H37.5847C37.7475 23.2499 37.9042 23.187 38.0207 23.0732C38.1371 22.9595 38.2037 22.8042 38.2058 22.6415V18.1069C38.2037 17.9441 38.1371 17.7889 38.0207 17.6751C37.9042 17.5614 37.7475 17.4984 37.5847 17.5001H23.9235ZM32.2998 3.07627C34.1899 3.16647 35.549 3.53957 36.41 4.33087C37.2608 5.11397 37.6974 6.24762 37.7836 7.74822V12.0471C37.7792 12.4132 37.6298 12.7626 37.368 13.0186C37.1063 13.2746 36.7536 13.4162 36.3875 13.4124C36.206 13.4145 36.0259 13.3809 35.8575 13.3135C35.689 13.2461 35.5355 13.1461 35.4057 13.0193C35.2758 12.8925 35.1722 12.7414 35.1008 12.5746C35.0294 12.4078 34.9915 12.2285 34.9894 12.0471L34.9915 7.82612C34.9464 7.04712 34.7598 6.56332 34.4933 6.31732C34.235 6.07952 33.4478 5.86632 32.2321 5.80482H5.42635C4.3255 5.84582 3.61005 6.05492 3.2636 6.35217C2.9971 6.57972 2.7962 7.20702 2.79415 8.29147L2.788 32.42C2.8905 33.4737 3.12215 34.1768 3.4194 34.5274C3.6449 34.7939 4.34395 35.0604 5.37305 35.1916H32.2608C33.5196 35.2162 34.2616 35.0276 34.5117 34.7754C34.7885 34.4946 34.9894 33.7566 34.9894 32.5491V28.3569C34.9894 27.6045 35.6147 26.9916 36.3875 26.9916C37.1583 26.9916 37.7836 27.6045 37.7836 28.3569V32.5491C37.7836 34.3941 37.4063 35.7738 36.5228 36.6696C35.6126 37.5921 34.1653 37.9611 32.2321 37.9201L5.207 37.914C3.36815 37.7008 2.05 37.1965 1.26485 36.2678C0.5535 35.4273 0.15785 34.2281 0 32.5512V8.28942C0.0041 6.49362 0.4346 5.14267 1.4227 4.29807C2.3288 3.51907 3.6367 3.13982 5.37305 3.07422L32.2998 3.07627ZM37.5847 14.7695C39.4707 14.7695 41 16.2639 41 18.1069V22.6415C41 24.4844 39.4707 25.9789 37.5847 25.9789H23.9255C22.0395 25.9789 20.5103 24.4824 20.5103 22.6415V18.1069C20.5103 16.2639 22.0395 14.7695 23.9255 14.7695H37.5847ZM27.3408 18.7465C26.3979 18.7465 25.6332 19.4845 25.6332 20.3926C25.6332 21.3008 26.3979 22.0388 27.3408 22.0388C28.2838 22.0388 29.0485 21.3008 29.0485 20.3926C29.0485 19.4845 28.2838 18.7444 27.3408 18.7444" fill="white"/>
</svg>
