<svg width="41" height="41" viewBox="0 0 41 41" fill="none" xmlns="http://www.w3.org/2000/svg">
<path d="M6.61552 29.0732L4.55868 16.8074C4.24777 14.9521 4.09231 14.0262 4.59114 13.4181C5.08827 12.8099 6.00393 12.8099 7.83356 12.8099H33.1647C34.9943 12.8099 35.91 12.8099 36.4071 13.4181C36.906 14.0262 36.7488 14.9521 36.4396 16.8074L34.3828 29.0732C33.7011 33.1391 33.3612 35.1703 31.9689 36.3764C30.5783 37.5807 28.5727 37.5807 24.5616 37.5807H16.4367C12.4256 37.5807 10.42 37.5807 9.02939 36.3746C7.6371 35.1703 7.29714 33.1374 6.61552 29.0715M29.895 12.8099C29.895 10.318 28.9051 7.9281 27.143 6.16604C25.3809 4.40398 22.9911 3.41406 20.4991 3.41406C18.0072 3.41406 15.6173 4.40398 13.8553 6.16604C12.0932 7.9281 11.1033 10.318 11.1033 12.8099" stroke="white" stroke-width="3" stroke-linecap="round" stroke-linejoin="round"/>
</svg>
