<svg width="41" height="41" viewBox="0 0 41 41" fill="none" xmlns="http://www.w3.org/2000/svg">
<path d="M32.4583 10.2526H29.0417C29.0417 5.46927 25.2833 1.71094 20.5 1.71094C15.7167 1.71094 11.9583 5.46927 11.9583 10.2526H8.54167C6.6625 10.2526 5.125 11.7901 5.125 13.6693V34.1693C5.125 36.0484 6.6625 37.5859 8.54167 37.5859H32.4583C34.3375 37.5859 35.875 36.0484 35.875 34.1693V13.6693C35.875 11.7901 34.3375 10.2526 32.4583 10.2526ZM20.5 5.1276C23.4042 5.1276 25.625 7.34844 25.625 10.2526H15.375C15.375 7.34844 17.5958 5.1276 20.5 5.1276ZM32.4583 34.1693H8.54167V13.6693H32.4583V34.1693ZM20.5 20.5026C17.5958 20.5026 15.375 18.2818 15.375 15.3776H11.9583C11.9583 20.1609 15.7167 23.9193 20.5 23.9193C25.2833 23.9193 29.0417 20.1609 29.0417 15.3776H25.625C25.625 18.2818 23.4042 20.5026 20.5 20.5026Z" fill="white"/>
</svg>
