<svg width="41" height="41" viewBox="0 0 41 41" fill="none" xmlns="http://www.w3.org/2000/svg">
<path d="M20.4987 6.83594V8.54427M30.7487 27.3359H34.1654M23.9154 27.3359H20.4987V34.1693M20.4987 15.3776V20.5026M20.4987 20.5026H20.5158M20.4987 20.5026H27.3491M27.332 34.1693H34.1654M6.83203 20.5026H13.6654M34.1654 20.5026H34.1824M8.54036 13.6693H11.957C12.4101 13.6693 12.8446 13.4893 13.165 13.1689C13.4854 12.8485 13.6654 12.414 13.6654 11.9609V8.54427C13.6654 8.09119 13.4854 7.65667 13.165 7.3363C12.8446 7.01592 12.4101 6.83594 11.957 6.83594H8.54036C8.08729 6.83594 7.65277 7.01592 7.33239 7.3363C7.01202 7.65667 6.83203 8.09119 6.83203 8.54427V11.9609C6.83203 12.414 7.01202 12.8485 7.33239 13.1689C7.65277 13.4893 8.08729 13.6693 8.54036 13.6693ZM29.0404 13.6693H32.457C32.9101 13.6693 33.3446 13.4893 33.665 13.1689C33.9854 12.8485 34.1654 12.414 34.1654 11.9609V8.54427C34.1654 8.09119 33.9854 7.65667 33.665 7.3363C33.3446 7.01592 32.9101 6.83594 32.457 6.83594H29.0404C28.5873 6.83594 28.1528 7.01592 27.8324 7.3363C27.512 7.65667 27.332 8.09119 27.332 8.54427V11.9609C27.332 12.414 27.512 12.8485 27.8324 13.1689C28.1528 13.4893 28.5873 13.6693 29.0404 13.6693ZM8.54036 34.1693H11.957C12.4101 34.1693 12.8446 33.9893 13.165 33.6689C13.4854 33.3485 13.6654 32.914 13.6654 32.4609V29.0443C13.6654 28.5912 13.4854 28.1567 13.165 27.8363C12.8446 27.5159 12.4101 27.3359 11.957 27.3359H8.54036C8.08729 27.3359 7.65277 27.5159 7.33239 27.8363C7.01202 28.1567 6.83203 28.5912 6.83203 29.0443V32.4609C6.83203 32.914 7.01202 33.3485 7.33239 33.6689C7.65277 33.9893 8.08729 34.1693 8.54036 34.1693Z" stroke="white" stroke-width="3" stroke-linecap="round" stroke-linejoin="round"/>
</svg>
