<svg width="41" height="41" viewBox="0 0 41 41" fill="none" xmlns="http://www.w3.org/2000/svg">
<path d="M3.41797 13.6693H37.5846M3.41797 10.2526C3.41797 9.34645 3.77794 8.47741 4.41869 7.83666C5.05944 7.19591 5.92848 6.83594 6.83464 6.83594H34.168C35.0741 6.83594 35.9432 7.19591 36.5839 7.83666C37.2247 8.47741 37.5846 9.34645 37.5846 10.2526V30.7526C37.5846 31.6588 37.2247 32.5278 36.5839 33.1686C35.9432 33.8093 35.0741 34.1693 34.168 34.1693H6.83464C5.92848 34.1693 5.05944 33.8093 4.41869 33.1686C3.77794 32.5278 3.41797 31.6588 3.41797 30.7526V10.2526Z" stroke="white" stroke-width="3" stroke-linecap="round" stroke-linejoin="round"/>
<path d="M3.41797 20.5H15.3763C15.3763 22.2083 16.4013 25.625 20.5013 25.625C24.6013 25.625 25.6263 22.2083 25.6263 20.5H37.5846" stroke="white" stroke-width="3" stroke-linecap="round" stroke-linejoin="round"/>
</svg>
